<svg id="BG" xmlns="http://www.w3.org/2000/svg" xmlns:xlink="http://www.w3.org/1999/xlink" viewBox="0 0 1366 768"><defs><style>.cls-1{fill:#fff;}.cls-2{mask:url(#mask);}.cls-3{fill:url(#未命名漸層_983);}.cls-4{opacity:0.91;}.cls-5{fill:url(#未命名漸層_993);}.cls-6{opacity:0.14;}</style><mask id="mask" x="-23" y="-417" width="1849" height="1188" maskUnits="userSpaceOnUse"><rect class="cls-1" x="-23" y="-39" width="1409" height="810"/></mask><radialGradient id="未命名漸層_983" cx="901.5" cy="177" r="776.54" gradientUnits="userSpaceOnUse"><stop offset="0" stop-color="#fff"/><stop offset="0.04" stop-color="#e2f2f3"/><stop offset="0.12" stop-color="#98d1d3"/><stop offset="0.23" stop-color="#249ca1"/><stop offset="0.25" stop-color="#109398"/><stop offset="0.29" stop-color="#0f8c90"/><stop offset="0.49" stop-color="#086d70"/><stop offset="0.67" stop-color="#045759"/><stop offset="0.85" stop-color="#014a4b"/><stop offset="1" stop-color="#004546"/></radialGradient><linearGradient id="未命名漸層_993" x1="807.1" y1="358.72" x2="767.41" y2="99.79" gradientTransform="translate(20.48 -33.83) rotate(2.72)" gradientUnits="userSpaceOnUse"><stop offset="0" stop-color="#3f6282"/><stop offset="0.11" stop-color="#385e80"/><stop offset="0.27" stop-color="#255479"/><stop offset="0.45" stop-color="#06426f"/><stop offset="0.48" stop-color="#003f6d"/><stop offset="0.6" stop-color="#084470"/><stop offset="0.79" stop-color="#1f5077"/><stop offset="1" stop-color="#3f6282"/></linearGradient></defs><title>bg+whale</title><g class="cls-2"><rect class="cls-3" x="-22.5" y="-416.5" width="1848" height="1187"/><path d="M1825-416V770H-22V-416H1825m1-1H-23V771H1826V-417Z"/></g><g class="cls-4"><path class="cls-5" d="M1011.24,151.31c-60.48-19.2-108-9.86-118.79-8s-13.92-3.51-17.35-5.64S845,123.07,831.4,118.83s-72.63-16.13-99.89-11.09,42.33,29.34,60,34.23,57.87,1.31,72.06,4.07,5.11,4.45-3.24,6.41-62,23.36-92.2,47.6S690.44,247.17,663.37,254,633.85,231.11,632,213.5s-27.32-35.57-36.5-38.16S583.08,192.7,578,208.56a45.35,45.35,0,0,0,3,35c3.06,5.37.75,7-12.23,12.35s-22.3,34.8-25.71,46.21-27.25,11.82-7.21,19.3,48.86-6.28,69.43-20.59,39.66-15.63,46.9-14.62,29.6,13.59,60.2,13.18,93.92-11.44,113-19.54c13.3-5.64,60.79-20.29,94-30-3.26,1-2,.69,1.25-.25a3,3,0,0,0-.79.12l14.34-4.06c-4.78,1.39-10.21,3-13.55,3.94,3.91.15-19.62,18.26-34.33,30.15-15.75,12.72-39.42,58-44.78,74.61s20-12.82,24.27-19.69,37.79-33.25,52-46.53,18.57-29.7,22.75-40.55a42.9,42.9,0,0,1,2.11-4.34,6.12,6.12,0,0,1,2-.57c2.45-.65,4.44-1.16,5.89-1.5,16.69-3.92,32.89-22.39,67.09-32.46s42.73-17,48.55-32.61S1011.24,151.31,1011.24,151.31Z"/></g><g class="cls-6"><path class="cls-1" d="M816.21,198.67a188.14,188.14,0,0,1,20.49-11.33q10.56-5.09,21.55-9.24c7.31-2.81,14.75-5.25,22.26-7.46s15.14-4,22.81-5.64,15.42-2.76,23.19-3.74c3.9-.39,7.79-.85,11.7-1.09,2-.13,3.9-.34,5.86-.39l5.87-.23a235.25,235.25,0,0,1,46.7,3.22,356.23,356.23,0,0,0-46.55-.1,345,345,0,0,0-46,6.25A372.55,372.55,0,0,0,859.3,181c-7.33,2.49-14.63,5.14-21.81,8.09S823.18,195.17,816.21,198.67Z"/><path class="cls-1" d="M836.43,215.65c13.78-5.9,27.86-11.07,42.05-15.87,7.09-2.43,14.25-4.67,21.41-6.87s14.4-4.2,21.64-6.17,14.54-3.69,21.86-5.33,14.7-3.08,22.12-4.28,14.87-2.15,22.36-2.76a143.39,143.39,0,0,1,22.51-.21,202.35,202.35,0,0,0-22.29,2.16c-7.38,1.06-14.71,2.42-22,3.88-14.6,3-29.1,6.55-43.52,10.41-7.22,1.88-14.41,3.89-21.6,5.92s-14.35,4.14-21.53,6.21C865.08,207,850.77,211.31,836.43,215.65Z"/><path class="cls-1" d="M834.44,257.6c15.27-5.44,30.59-10.68,45.91-15.9L926.26,226c7.65-2.64,15.29-5.27,22.9-8s15.2-5.49,22.81-8.21l11.35-4.27c3.77-1.44,7.5-3,11.27-4.45,1.89-.71,3.74-1.52,5.59-2.33l5.57-2.39c1.89-.74,3.67-1.68,5.49-2.56l5.47-2.64-5.18,3.17c-1.75,1-3.47,2.13-5.29,3l-5.41,2.8c-1.8.93-3.6,1.88-5.45,2.71-3.68,1.7-7.36,3.43-11.06,5.09l-11.21,4.75c-3.74,1.57-7.52,3-11.3,4.51s-7.56,2.93-11.36,4.35c-7.59,2.85-15.24,5.51-22.88,8.22s-15.35,5.21-23.07,7.68-15.44,4.91-23.2,7.23C865.78,249.33,850.19,253.74,834.44,257.6Z"/><path class="cls-1" d="M818,240.64c15.25-6.25,30.7-12,46.22-17.5,7.75-2.8,15.55-5.42,23.35-8.08s15.65-5.13,23.5-7.65,15.74-4.91,23.7-7.09,16-4.24,24-6.12,16.05-3.72,24.06-5.57,16-3.64,24-5.91c-7.64,3.12-15.57,5.45-23.46,7.81s-15.85,4.5-23.78,6.69c-15.87,4.39-31.6,8.92-47.25,14l-47.07,14.86C849.55,231,833.84,236,818,240.64Z"/></g></svg>