<svg xmlns="http://www.w3.org/2000/svg" xmlns:xlink="http://www.w3.org/1999/xlink" viewBox="0 0 978.02 1388.07"><defs><style>.cls-1{fill:none;}.cls-2{clip-path:url(#clip-path);}.cls-3{fill:url(#未命名漸層_262);}.cls-4{fill:#fff;}.cls-5{fill:#002f48;}.cls-6{fill:url(#未命名漸層_233);}.cls-7{fill:url(#未命名漸層_226);}.cls-14,.cls-8{fill:#9dacff;}.cls-8{opacity:0.82;}.cls-9{fill:url(#未命名漸層_170);}.cls-10{fill:url(#未命名漸層_121);}.cls-11{fill:#3570ff;}.cls-12{fill:#004a82;}.cls-13{fill:#5aa9ff;}.cls-15{fill:#00306b;}.cls-16{fill:#8acaff;}.cls-17{fill:#003678;}.cls-18{fill:#3c3544;}.cls-19{fill:#8d8e7c;}.cls-20{fill:#d700da;}.cls-21{fill:#ff6bf5;}.cls-22{fill:#60004c;}</style><clipPath id="clip-path"><rect class="cls-1" x="150.37" y="27.03" width="750.78" height="1334"/></clipPath><linearGradient id="未命名漸層_262" x1="519.08" y1="498.74" x2="519.08" y2="1388.07" gradientUnits="userSpaceOnUse"><stop offset="0" stop-color="#ffcef0"/><stop offset="1" stop-color="#ff64f0"/></linearGradient><linearGradient id="未命名漸層_233" x1="510.67" x2="510.67" y2="530.22" gradientUnits="userSpaceOnUse"><stop offset="0" stop-color="#003b95"/><stop offset="0.06" stop-color="#0747a0"/><stop offset="0.24" stop-color="#1d6bc2"/><stop offset="0.43" stop-color="#2e86dd"/><stop offset="0.62" stop-color="#3a9af0"/><stop offset="0.81" stop-color="#42a6fb"/><stop offset="1" stop-color="#4af"/></linearGradient><linearGradient id="未命名漸層_226" x1="302.93" y1="182.53" x2="474.09" y2="182.53" gradientUnits="userSpaceOnUse"><stop offset="0" stop-color="#ff64f0"/><stop offset="0" stop-color="#ff65f0"/><stop offset="0.32" stop-color="#ff92f0"/><stop offset="0.61" stop-color="#ffb3f0"/><stop offset="0.84" stop-color="#ffc7f0"/><stop offset="1" stop-color="#ffcef0"/></linearGradient><linearGradient id="未命名漸層_170" x1="521.08" y1="332.33" x2="521.08" y2="1201.87" gradientUnits="userSpaceOnUse"><stop offset="0" stop-color="#003b95"/><stop offset="0.05" stop-color="#0f54ad"/><stop offset="0.12" stop-color="#206fc6"/><stop offset="0.2" stop-color="#2d85db"/><stop offset="0.29" stop-color="#3796eb"/><stop offset="0.4" stop-color="#3fa1f7"/><stop offset="0.56" stop-color="#43a8fd"/><stop offset="1" stop-color="#4af"/></linearGradient><linearGradient id="未命名漸層_121" x1="414.8" y1="1006.21" x2="414.8" y2="1074.04" gradientUnits="userSpaceOnUse"><stop offset="0" stop-color="#003b95"/><stop offset="0.16" stop-color="#1156af"/><stop offset="0.4" stop-color="#277ad2"/><stop offset="0.63" stop-color="#3795eb"/><stop offset="0.84" stop-color="#41a4fa"/><stop offset="1" stop-color="#4af"/></linearGradient></defs><title>3資產 10</title><g id="圖層_2" data-name="圖層 2"><g id="圖層_21" data-name="圖層 21"><g class="cls-2"><rect class="cls-3" x="86.08" y="498.74" width="866" height="889.33"/><path class="cls-4" d="M328.08,717.5a218.88,218.88,0,0,0,23.43,26.79c4.26,4.1,8.63,8.06,13.25,11.72a157.48,157.48,0,0,0,14.31,10.34q3.71,2.39,7.57,4.54l1.93,1.09a16.73,16.73,0,0,0,1.88.86,28,28,0,0,0,4.08,1.22,139.56,139.56,0,0,0,17.55,2.29c5.94.5,11.92,1,17.85,1.94s11.92,2.22,17.15,5.21a37.71,37.71,0,0,0-8.49-2.67,81.74,81.74,0,0,0-8.82-1.25c-5.91-.59-11.87-.73-17.84-1s-12-.47-18-1.65a31.59,31.59,0,0,1-4.53-1.2c-.74-.25-1.52-.6-2.22-.92l-2.05-1c-2.73-1.32-5.36-2.8-8-4.32A130.72,130.72,0,0,1,349,746.78c-2.08-2.19-4.09-4.44-6-6.78s-3.78-4.68-5.53-7.13A102,102,0,0,1,328.08,717.5Z"/><path class="cls-4" d="M534.08,1059.5A224.54,224.54,0,0,0,550,1078.41c2.81,3,5.7,5.89,8.65,8.73s6,5.56,9.13,8.2c1.55,1.33,3.15,2.6,4.75,3.87s3.21,2.52,4.86,3.72c.82.62,1.66,1.19,2.49,1.78s1.67,1.18,2.53,1.73c1.67,1.17,3.38,2.28,5.11,3.37s3.48,2.13,5.26,3.14a56.89,56.89,0,0,0,5.41,2.84,103.28,103.28,0,0,0,11.37,4.49c15.56,5.13,32,7.29,48.46,8.74,8.23.73,16.48,1.2,24.74,1.88,4.13.35,8.26.71,12.36,1.33,2,.3,4.1.66,6.11,1.16a24.56,24.56,0,0,1,5.84,2.11,24,24,0,0,0-5.89-1.86c-2-.41-4.07-.68-6.12-.9-4.11-.43-8.23-.67-12.36-.87-8.26-.37-16.53-.63-24.81-1.12s-16.55-1.2-24.79-2.39a156.76,156.76,0,0,1-24.42-5.35,105.58,105.58,0,0,1-11.77-4.43c-3.83-1.77-7.59-3.61-11.23-5.69-1.81-1.06-3.62-2.12-5.38-3.25-.89-.56-1.76-1.15-2.62-1.75s-1.74-1.17-2.58-1.79c-1.71-1.21-3.38-2.48-5-3.75s-3.25-2.65-4.83-4c-3.17-2.73-6.22-5.6-9.12-8.62s-5.68-6.14-8.31-9.38A116.58,116.58,0,0,1,534.08,1059.5Z"/><path class="cls-4" d="M401.12,1191.51a79.65,79.65,0,0,1-1.39,11.79,36.15,36.15,0,0,1-4.13,11.46,29.25,29.25,0,0,1-3.8,5,47,47,0,0,1-4.54,4.09c-3.11,2.54-6.35,4.75-9.51,7l-9.54,6.79a11.78,11.78,0,0,1-3,1.6,28.89,28.89,0,0,1-3,.94c-2,.51-3.93.9-5.89,1.24-7.83,1.3-15.66,2-23.49,2.7-15.65,1.33-31.29,2.39-46.88,4-7.79.85-15.56,1.8-23.28,3.16-3.85.68-7.69,1.47-11.48,2.43a67.06,67.06,0,0,0-11.12,3.76,68.27,68.27,0,0,1,11-4.19c3.77-1.11,7.6-2,11.44-2.83,7.7-1.61,15.47-2.81,23.26-3.84,15.58-2.08,31.23-3.44,46.82-5.09,7.78-.85,15.58-1.66,23.21-3,1.9-.36,3.79-.76,5.61-1.27a23.83,23.83,0,0,0,2.63-.87,8,8,0,0,0,2.17-1.19c1.48-1.3,3-2.55,4.55-3.78s3.07-2.49,4.65-3.65l9.37-7a36.4,36.4,0,0,0,7.88-7.84,41.1,41.1,0,0,0,4.88-10.18C398.86,1199.06,399.93,1195.28,401.12,1191.51Z"/><path class="cls-4" d="M502.55,1073.66a32.66,32.66,0,0,1-1.25,8.45,14.89,14.89,0,0,1-1.92,4,27.79,27.79,0,0,1-2.81,3.32c-1,1-2,2-3,3l-1.49,1.48-.76.73c-.11.09-.3.3-.46.43a5.3,5.3,0,0,1-.51.36,16.64,16.64,0,0,1-4.13,1.57c-1.38.38-2.76.69-4.15,1-5.53,1.1-11.07,2-16.56,3.13-2.75.57-5.48,1.21-8.15,2a30.21,30.21,0,0,0-7.69,3.33,28.45,28.45,0,0,1,7.55-3.74c2.66-.93,5.38-1.69,8.11-2.38,5.46-1.4,11-2.42,16.45-3.69,1.36-.32,2.72-.65,4-1a16,16,0,0,0,3.7-1.49,3,3,0,0,0,.34-.25,2.83,2.83,0,0,0,.29-.3l.68-.82,1.4-1.59c.93-1.07,1.94-2.06,2.88-3.08a20.31,20.31,0,0,0,4.68-6.49C500.86,1079.06,501.65,1076.34,502.55,1073.66Z"/><path class="cls-4" d="M945.08,1117.5s-291.46,25.59-368-35c-48-38-38-138,4-133,34.81,4.14,167,9,179-47s16-151-137-150-224,27-262-38-101.89-76.71-106.5-9.5c-4.5,65.5-33.71,154.15,39,198,39.37,23.75,54.81,23.67,76.5,35.5,11,6,5,54,1,65-8.46,23.25-36,28-85,43s-55,33.42-44,54c8,15,12,9.91,86.4,21.12,65.37,9.86,57.1,80.25,27.3,94.53-20.11,9.64-116.66,10.26-116.66,10.26s-111,25.09-157-3.91V38.5h870Z"/><path class="cls-4" d="M940.23,945.55c1.56-141.06,2.61-96.87,3.83-148.72l-.1,71.53c-1.06,94.68-2.8,239.95-3.56,211.91C940.3,1071.13,939.67,1005.15,940.23,945.55Z"/><path class="cls-4" d="M943.33,1107.69c.14-13.29.16-15.48.29-28.7l.87,38.51Z"/><path class="cls-4" d="M944.26,691.62l.32-66.64c.22-15.45.19,22.39.35,20.26l1-75C944.81,672,945.87,670.57,944.26,691.62Z"/><path class="cls-4" d="M726.62,36.08c-50.46-.67,38.57-1.13,59-1.61,42.09.07,79.26.76,45.58,1.27C775.75,35.69,753.33,36,726.62,36.08Z"/><path class="cls-4" d="M946.42,300.77c.93,25.29-.66,171.16.46,156.52.48-6.34,1-12.65,1.35-30.29l-.11-73.55c1.63-183.92.85,76.48,2.64-47.06.13-26.68.19-40,.09-51.24-.16-60.36-.55-42.82-1.32-7.71.49-87.72,1.38-114.89,2.21-132.08.42-8.59.82-14.68,1.16-24.6.17-5,.32-10.87.45-18.53.06-3.83.11-8.1.18-12.9,0-5,.09-10.59.14-16.82,0-2.07,0-4.1,0-5.61l-39.34.21c-9.82.09-17.08.19-22.4.31-10.64.24-13.5.52-13.45.81.1.57,11.83,1.18-3.78,1.51.17-.23-3.4-.45-10.17-.66s-16.72-.42-29.31-.61c-25.19-.39-60.9-.73-102.69-1-83.58-.59-191.44-1-287.88-1q-84.66.36-175.57.14L79.79,36.22q0,58.66,0,119.08.06,59.22.36,120c-.22,92.25-.5,212.75-.79,333.91-.09,0-.18.23-.28,0a30.7,30.7,0,0,0,.27,4.78C78,703,79.92,911,77.86,932.38L78,954c.15,108.07-.74,0-1.16,62.13.14,49.95-.22,107.95-.4,159.88,0,13-.06,25.59-.08,37.59,0,1.59,0,3.17,0,4.74,0,2.49,0,5,0,7.44l6.37,3.63.79.45.39.22.26.12,1,.5,2.1,1a92.09,92.09,0,0,0,16.54,5.58,157.64,157.64,0,0,0,29.74,4.08,222,222,0,0,0,23.25-.07c8.23-.12-2.65.32,5.61.15,13.1-.53,26.11-1.81,39-3.51q9.71-1.31,19.34-3c3.21-.56,6.42-1.14,9.63-1.76l4.8-1,4.32-.92,3,0c5.41-.46,21.71-1.36,8.21-1.5,9.42-.18,18.23-.55,28-1s20.63-1.12,34.1-2.11c16.93-1.36,25.91-2.8,30.27-3.51,2.18-.36,3.19-.53,3.45-.54s-.25.18-1.09.43l-3.14.8c-1.11.27-2.15.5-2.7.66s-.6.23.24.15,2.6-.31,5.69-.87a72.93,72.93,0,0,0,8.25-2.16,19.29,19.29,0,0,0,2.14-.78,19.07,19.07,0,0,0,2.15-1,30.21,30.21,0,0,0,3.95-2.38,39.44,39.44,0,0,0,6.8-6c.95-1.15,1.93-2.29,2.8-3.49s1.75-2.41,2.45-3.7a57.92,57.92,0,0,0,6.55-16.27,60.76,60.76,0,0,0,1.6-17.49,57,57,0,0,0-3.67-17.36,51.68,51.68,0,0,0-9.25-15.39,55.24,55.24,0,0,0-13.87-11.4,68.1,68.1,0,0,0-16.44-6.71c-1.43-.36-2.85-.77-4.28-1.08l-4.32-.79c-1.47-.3-2.83-.47-4.22-.68l-4.17-.61q-8.34-1.2-16.72-2.32c-11.16-1.49-22.41-2.8-33.54-4.17-2.77-.35-5.55-.71-8.26-1.13a75.59,75.59,0,0,1-7.82-1.57,26.14,26.14,0,0,1-3.35-1.19,11.46,11.46,0,0,1-2.6-1.66,19.53,19.53,0,0,1-4.06-5.64c-2.48-4.6-4.27-9.48-4.3-14.16a17.76,17.76,0,0,1,1.2-6.74,22.2,22.2,0,0,1,3.69-6.05,45.4,45.4,0,0,1,12-9.59,106.26,106.26,0,0,1,14.65-6.92c5.09-2,10.29-3.72,15.59-5.33l16-4.77c10.69-3.16,21.4-6.2,32-9.93a128.31,128.31,0,0,0,15.74-6.63,53.28,53.28,0,0,0,14.4-10.39,38.37,38.37,0,0,0,9-15.79c.8-2.85,1.35-5.57,1.86-8.32s.93-5.46,1.3-8.19c.73-5.45,1.25-10.89,1.53-16.36a120.69,120.69,0,0,0-.21-16.56,50.33,50.33,0,0,0-1.47-8.56,25.34,25.34,0,0,0-1.72-4.52c-.21-.39-.4-.77-.63-1.16s-.57-.84-.87-1.25a9,9,0,0,0-1-1.15,6,6,0,0,0-1.14-1l-1.24-.87c-.23-.14-.42-.22-.62-.34l-.46-.24-1.8-1c-1.19-.65-2.41-1.22-3.62-1.81s-2.44-1.15-3.66-1.69-2.45-1.08-3.68-1.58c-4.9-2-9.78-3.84-14.53-5.65s-9.39-3.68-13.94-5.66c.1-.19-2.48-1.4-7.05-3.72s-11.17-5.71-19.09-10.35l-6.19-3.71c-1.1-.63-2.1-1.32-3.15-2l-3.2-2.12c-1.12-.68-2.11-1.54-3.19-2.33l-3.23-2.47c-1.05-.89-2.07-1.83-3.13-2.76s-2.16-1.85-3.13-2.91l-3-3.13c-1-1.06-1.92-2.25-2.9-3.39L271.25,876c-.47-.59-.89-1.23-1.34-1.84-.88-1.26-1.82-2.48-2.68-3.78a91.59,91.59,0,0,1-8.66-17.19,104.2,104.2,0,0,1-5.29-19.67,154.89,154.89,0,0,1-2.15-21,306.35,306.35,0,0,1,2-42.81c1.5-14,3.43-27.55,4.94-40.13.78-6.28,1.4-12.35,1.92-18.08.12-1.44.23-2.85.34-4.25,0-.69.11-1.37.16-2.05l.19-1.87c.12-1.24.24-2.46.36-3.65s.38-2.31.57-3.43l.29-1.68.41-1.63.83-3.25a56,56,0,0,1,2.3-6.17,33.68,33.68,0,0,1,6.93-10.4,23.6,23.6,0,0,1,10.19-6,30.13,30.13,0,0,1,12.36-.71,46.8,46.8,0,0,1,12.8,3.82,69.69,69.69,0,0,1,12.15,6.91c1,.64,1.94,1.36,2.88,2.09s1.92,1.42,2.83,2.2c1.82,1.56,3.68,3.07,5.41,4.76a129.83,129.83,0,0,1,10,10.54c3.09,3.78,6.1,7.64,8.84,11.71l2.06,3.06c.68,1,1.29,2.08,1.95,3.12l1.94,3.16,2.16,3.42a99.88,99.88,0,0,0,9.83,13c.9,1,1.91,2,2.87,2.95a40,40,0,0,0,3,2.86,74.39,74.39,0,0,0,6.42,5.2,82.63,82.63,0,0,0,14.15,8.32,100.46,100.46,0,0,0,15.21,5.36,157.15,157.15,0,0,0,30.83,4.7c10.19.64,20.22.64,30.1.43s19.62-.63,29.21-1.15c19.18-1,37.8-2.2,55.8-3.07s35.35-1.51,51.9-1.74,32.13-.14,46.59,1.42c-4.26-.47-8.77-.55-13.42-.79l-3.52-.16-3.59,0-7.33,0c-10,0-20.52.3-31.19.56-21.38.62-43.47,1.66-63.83,2.77s-39,2.13-53.52,2.58-24.81.32-28.26.49c11,.53,21.93.51,32.79.3,18.36-.54,39.27-1.71,61-2.73s44.31-1.85,66-2.18c5.4,0,10.8-.15,16-.12l7.7.11,3.8,0c1.25.05,2.5.14,3.73.2l7.35.4,1.81.1,1.78.17,3.53.36c2.33.24,4.64.43,6.89.7l6.6,1c2.16.31,4.29.6,6.32,1.06l6,1.21c2,.33,3.81.92,5.64,1.37l5.32,1.37,4.89,1.6,2.32.74c.76.24,1.51.48,2.21.78l4.09,1.62,1.92.74.93.36.87.42c-1-.59-2.13-1-3.15-1.45l-3-1.32c-1-.41-1.9-.87-2.84-1.21l-2.75-1-5-1.82c-1.59-.51-3.11-.92-4.52-1.35-5.62-1.81-10-2.62-13.43-3.54-1.73-.47-3.32-.71-4.77-1L665,761c-1.33-.26-2.64-.55-4-.78l-4.49-.63c2,.2,3.85.32,5.62.56l5.05.71,4.63.65c1.47.22,2.86.54,4.23.79l4,.77c1.29.26,2.57.45,3.78.79l7.32,1.86A137.35,137.35,0,0,1,707,771.27a45.51,45.51,0,0,1,4.6,2.12c1.57.8,3.28,1.56,5,2.52l5.3,3.16a11.22,11.22,0,0,1,1.37.91l1.38,1,2.86,2a86.11,86.11,0,0,1,15.07,14.79,82.4,82.4,0,0,1,10.4,18l1,2.37a22.65,22.65,0,0,1,.88,2.38q.78,2.41,1.56,4.79.61,2.43,1.23,4.8c.22.79.38,1.59.52,2.39s.31,1.59.46,2.38a115.43,115.43,0,0,1,1.89,18.15l.07,2.12c0,.7,0,1.4,0,2.09l0,4c-.13,2.63-.2,5.13-.4,7.48-.35,4.7-.85,8.81-1.35,12.2-.26,1.69-.48,3.2-.71,4.52s-.47,2.43-.65,3.34a10.58,10.58,0,0,1-.72,2.76c2.64-15.66,4-32.15,2.29-47.9A101.55,101.55,0,0,0,754,821.11a80.64,80.64,0,0,0-9.72-19.3c-1.71-1.91,1,1.42,4.68,8.8a65.57,65.57,0,0,1,2.81,6.32c.45,1.19,1,2.39,1.42,3.7l1.29,4.06a111.3,111.3,0,0,1,3.72,19c1.47,13.88.43,29.51-1.89,43.55-.56,3.52-1.21,6.94-1.88,10.22l-.51,2.44-.25,1.2c-.09.33-.17.66-.26,1a16.42,16.42,0,0,1-.55,1.92c-.22.62-.39,1.25-.66,1.83a29.46,29.46,0,0,1-3.43,6.32,35.3,35.3,0,0,1-4,4.77,42.34,42.34,0,0,0,7.19-9.07c.43-.61.56-.8.6-.59a5.25,5.25,0,0,1-.45,1.6,29,29,0,0,1-3.93,6.92,47.4,47.4,0,0,1-6.71,7.07c-2.2,1.89-4,3.18-4.19,3.5-.12.15.16.09.89-.34a38.75,38.75,0,0,0,3.69-2.39,46.9,46.9,0,0,0,6.42-5.65,36,36,0,0,0,7.17-11.12,32.65,32.65,0,0,0,1.29-4l.28-1.06c.09-.39.17-.79.26-1.19.17-.8.35-1.61.53-2.44.7-3.33,1.41-6.93,2.05-10.82a188.15,188.15,0,0,0,2.64-27.06,189.4,189.4,0,0,1-1.66,22.54c-.23,1.88-.51,3.75-.81,5.62s-.6,3.74-.94,5.6-.69,3.73-1.07,5.58c-.19.92-.36,1.9-.57,2.75s-.38,1.75-.69,2.58a38.78,38.78,0,0,1-11.9,17.65A73.17,73.17,0,0,1,726,934.21c-3.9,1.79-6.36,2.77-7.45,3.25s-.82.48.6.06,4-1.28,7.39-2.68a83.82,83.82,0,0,0,12.24-6.25,63.89,63.89,0,0,0,7-5.09,45.38,45.38,0,0,0,6.56-6.88,37.15,37.15,0,0,0,5.09-8.88,37.61,37.61,0,0,0,1.6-5.12c.42-1.8.79-3.66,1.19-5.52,3.05-14.89,5-31.3,4.2-47s-4.42-30.5-10.1-41.59l-1-2.08c-.36-.66-.75-1.3-1.12-1.94-.73-1.27-1.45-2.51-2.15-3.7s-1.53-2.24-2.26-3.3L746.64,796a12.41,12.41,0,0,0-1.08-1.45c-1.5-1.82-2.82-3.5-4-4.93L738.13,786l-1.26-1.34-1-.94a11.38,11.38,0,0,1-1-1c-.16-.21.78.37,2.81,2.13l3.82,3.64a34,34,0,0,1,2.43,2.63l2.8,3.22a87.26,87.26,0,0,1,12.16,20.85c.41.94.78,1.73,1.07,2.43s.5,1.3.7,1.8c.4,1,.68,1.66.92,2.17a22.09,22.09,0,0,1,1.34,3.12A73.89,73.89,0,0,1,765.63,835c.35,1.45.53,3.12.84,5,.13.93.33,1.92.43,3s.22,2.16.34,3.33a139.65,139.65,0,0,1,.58,17.22,135.2,135.2,0,0,0-1.23-27.29,100.43,100.43,0,0,0-10.15-31.15,85.71,85.71,0,0,0-20.07-24.73,93.92,93.92,0,0,0-20.51-13.28L712.05,765l-4.7-2.09c-3.35-1.59-7.34-2.9-11.7-4.44-1.09-.42-2.23-.71-3.39-1l-3.55-1-3.7-1c-1.26-.31-2.56-.56-3.87-.86-2.63-.54-5.33-1.2-8.13-1.69l-8.63-1.36c-1.47-.26-3-.42-4.48-.57l-4.58-.48-4.65-.49c-1.57-.13-3.15-.2-4.74-.3-3.18-.17-6.41-.41-9.67-.53l-9.88-.15c-13.22-.05-26.73.21-40,.6-26.53.77-51.91,2.18-71,3s-31.84,1.07-33.21.66c-9.57.42-18.79.63-27.7.53a218.41,218.41,0,0,1-25.7-1.61,114.3,114.3,0,0,1-23.24-5.29,72.2,72.2,0,0,1-19.6-10.31,74,74,0,0,1-14.88-15.07c-1-1.44-2.08-2.81-3-4.28l-2.75-4.43q-1.44-2.36-2.85-4.7c-.93-1.59-1.95-3.12-3-4.64a146.39,146.39,0,0,0-13.18-17.28,124.41,124.41,0,0,0-15.57-14.88,87.94,87.94,0,0,0-18.48-11.45l-2.53-1.11c-.86-.34-1.75-.64-2.63-1s-1.74-.66-2.65-.9l-2.73-.74c-.46-.11-.91-.25-1.37-.35l-1.41-.26-2.83-.51c-1-.11-1.93-.18-2.9-.26l-1.45-.12c-.49,0-1,0-1.48,0l-3,.05c-1,.08-2,.22-3,.34l-1.49.19-1.49.35c-1,.25-2,.45-2.95.76a37.64,37.64,0,0,0-10.95,5.7,45.4,45.4,0,0,0-13.92,19.72A85.32,85.32,0,0,0,248.71,705c-.56,7.33-1.45,14.86-2.43,22.6-2,15.5-4.48,31.85-6.13,49.57a299.45,299.45,0,0,0-1.38,30.67,176.6,176.6,0,0,0,1.89,24.63c2.29,14.45,6,24.85,9.48,32a91.3,91.3,0,0,0,8.07,13.78c1.82,2.38,2.47,3.11,2.51,3s-2.31-3.94-2.56-4.89c-.11-.48.13-.16,1.55,1.52.69.85,1.65,2.07,2.94,3.74.63.84,1.48,1.69,2.36,2.72s1.87,2.16,3,3.38a102.6,102.6,0,0,0,12.84,11.75l3.46,2.63c1.17.83,2.4,1.59,3.6,2.39l3.61,2.35,3.62,2.14a271,271,0,0,0,29.68,15.38c10.1,4.53,20.49,7.92,30,11.75,1.19.47,2.37,1,3.53,1.48s2.33,1,3.46,1.56,2.29,1,3.39,1.65l1.66.86.76.38a2.23,2.23,0,0,1,.41.26,3.18,3.18,0,0,1,.7.62,5.17,5.17,0,0,1,.56.89l.31.58.28.69a13.09,13.09,0,0,1,.52,1.46,39.06,39.06,0,0,1,1.29,6.69c.28,2.33.42,4.71.48,7.09s.06,4.77,0,7.15c-.13,4.74-.48,9.44-1,14s-1.12,9.1-1.94,13.41c-.41,2.15-.87,4.27-1.43,6.18-.15.48-.27.9-.45,1.36l-.53,1.38c-.17.47-.4.89-.6,1.34s-.4.88-.64,1.3a31.22,31.22,0,0,1-7,8.82,50.93,50.93,0,0,1-9.25,6.28,133.59,133.59,0,0,1-19.6,8.19c-11.4,3.8-22,6.72-30.72,9.27s-15.74,4.52-20.35,6-6.7,2.19-5.76,1.71a125.13,125.13,0,0,1,12.81-4.57,174.26,174.26,0,0,0-25.24,9.43,81.52,81.52,0,0,0-12,7,52.41,52.41,0,0,0-5.58,4.53,40.45,40.45,0,0,0-4.91,5.63,29.71,29.71,0,0,0-3.61,6.89,26.26,26.26,0,0,0-1.52,7.78,35,35,0,0,0,3,14.76,60,60,0,0,0,3.18,6.43,24.78,24.78,0,0,0,4.92,6.35,18.81,18.81,0,0,0,3.54,2.51c.61.32,1.24.66,1.86.91s1.23.52,1.84.73a49.7,49.7,0,0,0,7,1.84c4.55.88,8.94,1.44,13.33,2l13.1,1.65c8.71,1.1,17.39,2.24,26.07,3.48l13,1.91,3.25.49c1.11.16,2.07.38,3.1.57l3.06.57c1,.24,2,.53,3,.78a64.86,64.86,0,0,1,11.44,4.2l2.64,1.44c.44.24.9.46,1.32.73l1.24.82c.82.57,1.69,1.06,2.47,1.68l2.32,1.84a44,44,0,0,1,15.24,31,53.16,53.16,0,0,1-.58,12,47,47,0,0,1-9.27,21.51,28.74,28.74,0,0,1-8.38,7.18l-1.17.64-1.19.48a11.53,11.53,0,0,1-1.3.46l-1.37.44c-1,.25-1.93.52-2.94.76s-2,.45-3,.66c-4.12.82-8.39,1.42-12.68,2s-8.61,1-12.95,1.36c-8.69.77-17.43,1.33-26.19,1.77s-17.53.77-26.32,1l-13.17.3-6.59.1-7.17.07-3.12.67-2.54.51-5.13,1c-3.43.63-6.86,1.24-10.3,1.79q-10.33,1.68-20.72,2.93a395.65,395.65,0,0,1-41.6,3,212.08,212.08,0,0,1-41-2.91,98.44,98.44,0,0,1-19.19-5.41l-1.14-.44-1.09-.52-2.19-1-1.1-.51-.33-.18-.62-.36c-.09-.07-.23-.11-.29-.19v-5.82q.12-84.7.24-169.32.14-169.23.26-337.55c1.19-148.37-.5-286.14,1.64-431.79l-.36,24.22c-.21,3.49-.3-15.18-.39-29.9-.41,24.12-.8,47.38-1.18,69.64.16-43.26.28-86.95.25-129.86-.4-13.29-.57-38.24-.65-68.66,0-28.67,0-62.49-.06-95.61l73.67-.13c23.93-.1,44.23-.28,57.76-.6,239.33.48,138.94,1.11,380.36,1.75l169-.67,177.57-.41c-.17,25.75-.35,51.67-.52,77.57-.41,55.45-1.41,106-1.67,96.87-.4,66.61-1,162-1.39,230.85C942.21,743.56,945.59,411.63,946.42,300.77Z"/><path class="cls-4" d="M309,1046.64c-2.54,1-.08.43,5.44-1.05s14.1-3.83,23.86-7.18a129.87,129.87,0,0,0,15.23-6.26,59.59,59.59,0,0,0,14.79-10.06,42.1,42.1,0,0,0,9.75-14.28c.25-.62.5-1.18.73-1.82s.46-1.31.61-1.87c.37-1.18.63-2.22.89-3.23.5-2,.86-3.78,1.19-5.36,1-5.63,1.67-11.19,2.15-16.79a167.58,167.58,0,0,0,.66-17,79.4,79.4,0,0,0-1.53-15.8,30.29,30.29,0,0,0-3-8.27l-.31-.55-.42-.62c-.29-.42-.59-.82-.89-1.22a18.68,18.68,0,0,0-2.06-2.11c-.8-.54-1.61-1.13-2.38-1.61l-1.55-.8a156.25,156.25,0,0,0-18.95-8.15L341,918.29c-2.95-1.07-4.92-1.76-5.93-2.1-2-.68-.41.27,4.73,2.44,2.58,1.1,6,2.48,10.43,4.2s9.72,3.79,15.79,6.71c1.13.51,2.53,1.07,4.11,1.88l2.61,1.3a5.56,5.56,0,0,1,1.05.65l1.1.74a6.64,6.64,0,0,1,1,.9c.32.33.66.65,1,1s.57.75.86,1.15a10.36,10.36,0,0,1,.74,1.15,22.55,22.55,0,0,1,1.1,2.2,21.28,21.28,0,0,1,.84,2.19c.24.73.49,1.48.66,2.2a57,57,0,0,1,1.5,9,130.37,130.37,0,0,1,.05,19.89,189.84,189.84,0,0,1-2.71,22c-.36,1.92-.78,3.87-1.28,5.89-.26,1-.53,2-.91,3.17l-.28.85-.31.78-.63,1.57a40.92,40.92,0,0,1-7.41,11.45,50.4,50.4,0,0,1-10.2,8.35,84.36,84.36,0,0,1-10.86,5.68,203.94,203.94,0,0,1-20.84,7.56C320.63,1043.25,314.48,1045,309,1046.64Z"/><path class="cls-4" d="M74.83,1172.61l.83,10.79-.26-99.86C74.86,1086.2,74.89,1134.77,74.83,1172.61Z"/><path class="cls-4" d="M553.49,1052.33a111.47,111.47,0,0,1-8.39-32.06,114.18,114.18,0,0,1,.43-29.19,75.57,75.57,0,0,1,8.09-25.37,39.74,39.74,0,0,1,7.89-10.16,28.72,28.72,0,0,1,5.22-3.74,23.76,23.76,0,0,1,6-2.26,24.51,24.51,0,0,1,6.39-.57c2.16.15,4.24.46,6.37.67,4.24.44,8.53.77,12.89,1.06,8.73.55,17.75.87,27.28.91s19.57-.21,30.32-.92a312.48,312.48,0,0,0,34.49-4.13c-6.26.61-12.53,1-18.79,1.16-12,1.25-24.18,1.86-36.45,2s-24.64-.21-37.09-1.05c-3.11-.22-6.22-.46-9.33-.76l-4.67-.48-2.32-.27c-.76-.1-1.7-.17-2.54-.24A25.77,25.77,0,0,0,569,948.52a28.08,28.08,0,0,0-8.87,5.5c-5.17,4.67-8.68,10.66-11.29,16.84a83.89,83.89,0,0,0-5.3,19.4,118.05,118.05,0,0,0,1,40.48,111.81,111.81,0,0,0,5.84,19.91,92,92,0,0,0,10,18.63A76,76,0,0,0,575,1085.09a100.63,100.63,0,0,0,18.49,11.35c13,6.31,27,10.64,41.19,14.13,9.66,2.14,14.8,2.89,16.4,3.09s-.32-.33-4.68-1.31-11.15-2.56-19.22-4.85a212.68,212.68,0,0,1-26.76-9.32,124.35,124.35,0,0,1-13.76-6.88,83.91,83.91,0,0,1-12.41-8.66,76.27,76.27,0,0,1-16.38-20,78.19,78.19,0,0,1-6.09-13.18C551.11,1047.34,551.46,1048,553.49,1052.33Z"/><path class="cls-4" d="M663.8,952.13a445.06,445.06,0,0,1-66.25,1c-5.61-.32-11.25-.76-16.88-1.4a21,21,0,0,0-14.47,3.63,34,34,0,0,0-10.18,12,65.9,65.9,0,0,0-5.75,15.36A105.79,105.79,0,0,0,547.9,1016a111,111,0,0,0,7.55,32.58,80.58,80.58,0,0,0,18,27.66c7.88,7.66,17.73,13.2,27.92,17.6a214.91,214.91,0,0,0,31.64,10.51c10.76,2.73,21.6,4.87,32.41,6.66,21.63,3.55,43.14,5.61,64.13,7a1170.5,1170.5,0,0,0,118.4,1c-10.08-.69-33.3-.56-64.14-1.3-15.42-.37-32.74-1-51.24-2.14s-38.2-2.89-58.24-5.74c-10-1.44-20.12-3.17-30.15-5.32a266.28,266.28,0,0,1-29.67-8c-4.85-1.59-9.55-3.47-14.17-5.45a125.66,125.66,0,0,1-13.21-6.84c-2-1.33-4.12-2.61-6-4.08a58.89,58.89,0,0,1-5.51-4.55,70.75,70.75,0,0,1-9.28-10.68,89.08,89.08,0,0,1-12.09-24.9,111.07,111.07,0,0,1-4.78-25.86c-1.08-16.85,1.59-32.61,7.32-44a38.62,38.62,0,0,1,6.68-9.91,21.29,21.29,0,0,1,8.86-5.81,18.65,18.65,0,0,1,5-.92,24.12,24.12,0,0,1,2.55.06l.64.05.76.07,1.54.17c4.09.41,8.1.71,12.07,1,15.88,1,31.11,1.09,46.94.51,7.91-.31,16-.82,24.31-1.65s17-2,26-3.66a186.52,186.52,0,0,0,28.21-7.45,109.6,109.6,0,0,0,14.75-6.47,76.42,76.42,0,0,0,7.32-4.41,61.83,61.83,0,0,0,7-5.51,47.75,47.75,0,0,0,7.38-8.59,39.75,39.75,0,0,0,3.5-6.43c1.35-3.35,1.47-4.47,1.17-3.67l-.36.94-.69,1.55-.43,1-.57,1.11c-.4.78-.85,1.65-1.42,2.55a43.68,43.68,0,0,1-4.3,6,52,52,0,0,1-6.47,6.31,77.9,77.9,0,0,1-18.43,11,139.9,139.9,0,0,1-22.48,7.52A269.26,269.26,0,0,1,663.8,952.13Z"/><path class="cls-4" d="M893.78,1119.05c18.79-.85,40.39-2.48,51.12-3.5,6.69-.76,1.29-.36-7.78.19s-21.86,1.25-29.91,1.57l-34,2c-3.88.25-5.49.44-2.75.45S880.29,1119.62,893.78,1119.05Z"/><path class="cls-5" d="M945.08,1109.5s-291.46,25.59-368-35c-48-38-38-138,4-133,34.81,4.14,167,9,179-47s16-151-137-150-219,26-257-39-118-79-111,0-31.71,181.15,41,225c39.37,23.75,53.31,3.17,75,15,11,6,2.87,38.51,0,50-6,24-36,28-85,43s-55,33.42-44,54c8,15,14.76,14.17,89.62,21.72,42.38,4.28,42.73,40.74,37.88,57.78-8.5,29.87-27.9,37-111.9,42s-129.6,29.5-175.6.5V30.5h870Z"/><polygon class="cls-6" points="69.39 521.6 948.75 530.22 951.95 0 70.56 0 69.39 521.6"/><circle class="cls-7" cx="388.51" cy="182.53" r="85.58"/><path class="cls-8" d="M788.53,195.46s-19.23-15.63-30-7c0,0-25.54,5.84-25.54,12.82,0,0-16.06-9.56-21.29,0,0,0-29.8.09-34.71,11.28,0,0-25.27-1.72-28.35,12.06,0,0-8.58-4.1-11.27-3.85-3.4.31-11.75,6.87-11.75,6.87s-14.45-2-17.07,5.25c0,0-6.7.84-7.94,6.32,0,0-3.45-4.73-6.74-5.06-1.88-.19-7.38,2.06-7.38,2.06s-7.37-7-11.25-6.19a52.69,52.69,0,0,0-9.37,3.38s-5.45-6.88-10.88-6.88c-3.7,0-9.75,2.25-9.75,2.25a17.46,17.46,0,0,0-12.34-6c-1.65-.06-6.53,6.27-6.53,6.27s-6.6-4.28-12.47.19c0,0-6-15.22-21-14.07-6.93.52-25.1,9.38-25.1,9.38s-15-6.33-24.82-7.11c-6-.48-17.59,5.61-30.09,6.86-16,1.6-50.25,0-61.75-13.08,0,0,79.31,2.82,73.5-.34-11.33-6.15-26-2.05-37.7-3-.19,0-.35,0-.3-.19,1-3.6-22.63-8.08-36.17-7.17-14.57,1-22.14,5.33-22.14,5.33,1.35-5.48-16.91-24.92-32.18-16.82-7.85,4.17-16.68-27.51-37.68-21.51,0,0-4.48-9.57-11.17-12.33-7.66-3.17-16.65,1.13-16.65,1.13s-6.54-5-13-5.42c-4.64-.29-9.11,3.4-9.11,3.4s-7.31-6.37-11.89-7.65c-3.13-.88-10.5.54-10.5.54a15.44,15.44,0,0,0-14-6.67c-3.7.33-8.42,1.33-8.42,1.33s-7-16.09-22.14-11.35a208.81,208.81,0,0,1-31.39,7.46V342.76h699l-4.42-141.5Z"/><path class="cls-8" d="M518.41,162.5s-21.67-7-40-4-31,4.33-36.33,4-21.67-2.9-28.34.05,41.67,3.28,41.67,3.28S527.74,167.83,518.41,162.5Z"/><path class="cls-8" d="M454,173.46s10.83-3.5,20-2,15.5,2.17,18.16,2,10.84-1.45,14.17,0-20.83,1.64-20.83,1.64S449.34,176.13,454,173.46Z"/><path class="cls-9" d="M949.08,1079.5s-287.13,19.68-368-35c-71-48-19-119,21-123,34.88-3.49,150-1,162-57s16-151-137-150-219,26-257-39-118-79-111,0-31.71,181.15,41,225c39.37,23.75,41.31,16.17,63,28,11,6,15.25,26.37,13,38-6,31-37,27-86,42s-53.19,32.09-47.34,54.67c3.92,15.11,8.35,35.95,35.11,39.71,74.51,10.49,85,19,90,36s0,44-84,49-101.4,9.56-101.4,9.56-50.37,16.06-96.37-12.94V332.33h870Z"/><path class="cls-4" d="M416.56,1033.61l.11.07c1.21.83,23.28,15.91,34.95,16.68,10.37.69,33.44,5.18,39.51,6.38a2.17,2.17,0,0,1,1.72,1.85c.45,3.41,1.19,11.7-1.23,17.45-4.41,10.52-18.43,18.12-56,19.7-71,3-97.24-13-99-29.7-2-19,1-30,9-30s25,3.18,32-2.39S402.57,1024.9,416.56,1033.61Z"/><path class="cls-4" d="M429.06,1037.94c-1.66-.93,4.34,3,.76,1.14,2.26,1.74,7.66,4.07,10.83,5.5.08.34-.65.32-.7.57s.13.32.64.67a17.4,17.4,0,0,0,2.82,1.52,18,18,0,0,0,2.34.86,11.21,11.21,0,0,0,1.32.33c.62,0,.76-.08.87-.22a.76.76,0,0,1,.71-.34,6.39,6.39,0,0,1,1.1.08c.49,0,1.14.07,2,.18-.77-.15-1.53-.22-2.31-.42s-1.57-.4-2.35-.67c1.25.11,2.87.37,4.6.47,2.1.09,4.54.32,7,.65,5,.67,10.31,1.65,14.81,2.32,2.8.78,5.46,1.68,8.25,2.57,1.4.44,2.84.88,4.34,1.31.76.21,1.53.42,2.32.62l1.21.29,1.38.31a3.52,3.52,0,0,1,2.06,1.06,3.2,3.2,0,0,1,.64,1,8,8,0,0,1,.26,1.22,4.22,4.22,0,0,0-.68-1.65c-.42-.53-.94-.7-.84-.44a3.13,3.13,0,0,1,.68,1.39l.21,1.74c.14,1.13.27,2.27.38,3.12.78,4.68.86-1.35,1.41.4a36.24,36.24,0,0,1,.32,6.17,18.21,18.21,0,0,1-1.85,7.51,21.09,21.09,0,0,1-5.05,5.37c-1,2.3-3.62,4.31-6.89,5.93a87.39,87.39,0,0,1-11.71,4.35,11.26,11.26,0,0,0-2.58.33c-1.16.24-2.53.65-3.93.92s-2.78.62-4,.79a8.21,8.21,0,0,1-2.58.07c-4.27.63-1.1-2-4.61-2.23-6,.15,4.09-.83-1.93-.68,3.22-.52,3.8,0,4.65.38a4.33,4.33,0,0,0,1.87.48,16.51,16.51,0,0,0,4.47-.5l-.47-.22a23.79,23.79,0,0,1,3-.7l3.41-.68a25.38,25.38,0,0,0,3.16-.82,7.21,7.21,0,0,0,2.24-1c2.21-.72,3.32-1,3.81-1.13s.41.14.19.43c-.45.58-1.47,1.47.82.85a71.46,71.46,0,0,0,6.46-4.45c2.33-2,3.85-4.25,3.53-4.72a21.68,21.68,0,0,1-5.22,4.53c.94-.64.09-.34.43-.67a6.49,6.49,0,0,0,1.78-1.13,11,11,0,0,0,1.77-1.83l.42-.52.35-.57.68-1.13c.19-.4.35-.8.52-1.18a6.23,6.23,0,0,0,.43-1.13c.51-1.48.67-2.67.92-3.34s.55-.74,1.07.28a10.17,10.17,0,0,1-.5,2,7.22,7.22,0,0,0-.6,1.85c.19,0,.44-.27.74-.74a7.5,7.5,0,0,0,.9-1.94,27.31,27.31,0,0,0,1-5.58c-.19-1.83-.61-3.74-1.05-5.85-.2-1-.42-2.07-.64-3.17a.9.9,0,0,0-.7-.76l-.13,0-.47-.12c-2-.58-.73-.75-2.77-1.33a78.88,78.88,0,0,1-12.08-2.36,77.49,77.49,0,0,0-12.54-2.48,64,64,0,0,0-6.31-1.25c-1.09-.16-2.2-.3-3.32-.41-.55,0-1.14-.14-1.73-.22a14.58,14.58,0,0,1-1.73-.31,42.58,42.58,0,0,1-12.27-5.17c.44.54-.84,0-2.37-.79s-3.32-1.91-4-2.34a59.05,59.05,0,0,0-7.43-5c1.64,1,.8.15,2,.72a27.12,27.12,0,0,1-5.88-4.07,5,5,0,0,1-.88-1.15c-.15-.31-.17-.52-.27-.76l.94.54.79.43c.51.26,1,.48,1.41.68l2.4,1.06A36.79,36.79,0,0,1,429.06,1037.94Z"/><path class="cls-4" d="M433.71,1097.55c.71-.65-2.42-.64-4.91-.68s-4.34-.17-1.08-.93a44.67,44.67,0,0,0-9.06.46c5.16.42-1.26.18,1.52.73-16.57.65-32.59-.31-47.73-3.74-5.54-1.72-10.75-3.25-15.85-5.12s-10.12-4.06-14.77-7.76c-2.5-2.68-2.5-3.51-2-3.33s1.91,1,2.67,1.34a23,23,0,0,1-4.9-7,22.51,22.51,0,0,0,5.54,6.51c.25-.06-.25-.8-.95-1.71-.34-.47-.69-1-1-1.54a16.58,16.58,0,0,1-.8-1.55c-.39-.63-.84-1.24-1.17-1.91a4.75,4.75,0,0,1,1.24,1c.4.47.93,1,1.43,1.68a48.17,48.17,0,0,0,4.15,4.43,34.24,34.24,0,0,0,11.82,7.21c-1.09-.46-1.89-.78-2.47-1a7.38,7.38,0,0,0-1.09-.41c-.37-.09-.09.16.33.49.85.68,2.38,1.58.42,1,.91.42,1.82.87,2.74,1.27-1.25-.51-3.15-1.15-5.51-2.15a35.23,35.23,0,0,1-7.88-4.71,44.88,44.88,0,0,0,12.6,7.38,80.21,80.21,0,0,0,13.66,4,116,116,0,0,0,13.39,1.91c2.17.22,4.31.32,6.4.45s4.14.17,6.14.17c-.48.11-1.74.19-.31.46a30.74,30.74,0,0,0,7-.16c1.89-.23,3.37-.58,4.62-.72l-2.51.27c3.52.66,9.34,0,13.6-.08,2.33.28,4.27.58,6.61.71a56.92,56.92,0,0,0,9-.22l-.24.49c2.13,0,4.25,0,6.39-.07-1.58.16-.92.33-.58.41a6.33,6.33,0,0,1-1.91.09c-.19.37.55.75,1.8,1.09a23.47,23.47,0,0,0,4.79.72c-1.13,0-2.26.08-3.06.15,1.47.07,4.76,0,7.06.08s3.62.17,1.12.82C441.48,1098.71,441.53,1097,433.71,1097.55Z"/><path class="cls-4" d="M469.53,1089.76a8.28,8.28,0,0,1-2.28.34c-.15,0,.18-.19.66-.37.94-.39,2.41-1,1.71-1,.85-.26,1.71-.48,2.53-.77l2.47-.9c.17.23-1,.79-2.24,1.38A13.14,13.14,0,0,0,469.53,1089.76Z"/><path class="cls-4" d="M335.25,1042.37a2.71,2.71,0,0,0,.56-.94l.9-1.81a11.16,11.16,0,0,1,3.13-3.75,10.09,10.09,0,0,1,6.23-2.51,35.89,35.89,0,0,1,6.85.3c-2.54.47-1.24,1,1.23,1.48s6.11,1,8.38,1.42a57.91,57.91,0,0,1-14-.53c.3-.16-.65-.4-2-.54-.34,0-.69-.09-1.07-.09l-1.2,0a6.05,6.05,0,0,0-1.14.22l-.53.13a3.19,3.19,0,0,0-.46.2,3.81,3.81,0,0,0-.75.69.72.72,0,0,0-.11.48,1.56,1.56,0,0,1,.07.8,2.85,2.85,0,0,1-.34.7c-.15.35-.42.73-.73,1.31a21.63,21.63,0,0,0-2.08,6.34c-.15.6-.33,1.43-.47,2.34s-.26,1.89-.3,2.81c-.16,1.8-.26,3.27-.62,3.06-.3,1.77.66,3.39.15,5.36l-.24,1a74.11,74.11,0,0,1-.53-8.69,5.6,5.6,0,0,0,.37-1.75c-.17.39-.25,0-.31-.73a24.12,24.12,0,0,1-.07-2.77,11.23,11.23,0,0,0-.09-2.07c-.11-.26-.47.06-.93,1.48a57.74,57.74,0,0,0-.66,12.28c-.11,1.48-.31,1.19-.51,0-.1-.61-.2-1.46-.28-2.43s-.1-2.08-.08-3.2c.2-1.62.36-2.81.54-3.77l.19-1.25.18-1C334.74,1045.63,334.76,1044.63,335.25,1042.37Z"/><path class="cls-4" d="M337.86,1072.88l.16.69a18.23,18.23,0,0,1-2.12-5.11,9.31,9.31,0,0,1-.3-1.37c-.07-.46-.16-.94-.2-1.37l-.29-2.63a46.83,46.83,0,0,0,.8,5A19.6,19.6,0,0,0,337.86,1072.88Z"/><path class="cls-4" d="M372.27,1033.17a25.82,25.82,0,0,1-5.22,1l-.3-.89A28.81,28.81,0,0,0,372.27,1033.17Z"/><path class="cls-4" d="M373.24,1089.51a17.18,17.18,0,0,1,2.72.13l3.41.47a24.59,24.59,0,0,0,5.8.4c-1.85-.28-1.24,0-1.71.08,1.18.26,2.36.55,3.56.77C382.48,1091.36,378.13,1090.44,373.24,1089.51Z"/><path class="cls-4" d="M391.89,1025.79c3.71-.48,5.94-.6,8.37-.7.6,0,1.22,0,1.87.08a13.52,13.52,0,0,1,2.09.22c.74.14,1.55.25,2.43.49s1.84.53,2.89.91c.88.44.28.36-.21.3s-.88-.06.4.49a26.6,26.6,0,0,0,4.57,1.44l-.86-.72c.43.36,1.14.82,1.87,1.33s1.45,1.15,2,1.66c1.12,1,1.5,1.73-.12,1.28a25.9,25.9,0,0,0-11.94-4c-3.51-.34-6.63-.29-10.62-.61-.48-.31-1-.58-1.47-.87-.81.11-1.62.22-2.42.4s-1.6.31-2.38.54c-.35,0-.27-.29-1.85.15-1.59.67-.95.61.06.44s2.4-.27,2.31,0a30.9,30.9,0,0,0-8.48,3.52c-1,.5.67-.71.35-.62a9.63,9.63,0,0,0-2.62,1.51c-.74.59-1.37,1.15-2.06,1.67a9.25,9.25,0,0,1-2.29,1.14,7.18,7.18,0,0,1-2.66.41,16.85,16.85,0,0,0,5.06-2.34,14.2,14.2,0,0,1-4.4,1.51l-1.07.19-1.07.11-1,.09-1,0a56.09,56.09,0,0,1-7.52-.4,35.92,35.92,0,0,0,9-.53,14.57,14.57,0,0,0,6.5-2.77l1.48-1.23a15.91,15.91,0,0,1,1.8-1.28,17.76,17.76,0,0,1,1.9-1.07,18.82,18.82,0,0,1,2-.9A27.88,27.88,0,0,1,391.89,1025.79Z"/><path class="cls-5" d="M416.56,1027.61l.11.07c1.21.83,23.28,15.91,34.95,16.68,10.37.69,33.44,5.18,39.51,6.38a2.17,2.17,0,0,1,1.72,1.85c.45,3.41,1.19,11.7-1.23,17.45-4.41,10.52-18.43,18.12-56,19.7-71,3-97.24-13-99-29.7-2-19,1-30,9-30s25,3.18,32-2.39S402.57,1018.9,416.56,1027.61Z"/><path class="cls-10" d="M416.62,1011.65s23,15.92,35,16.71,34,7.17,38,15.92,17,27.07-54,29.46-97-9.55-99-26.27,11-24.68,19-24.68,15-5.57,22-11.14S402.62,1002.89,416.62,1011.65Z"/><path class="cls-11" d="M792,311.47,616.57,251.22l-43.19,19.94-13.85-6.6-51.41,29S478.16,313.24,444,308s-39.62-3.94-46.29-2.41-17-4.85-17-4.85l-94-64.67-9.1,6.86-42.46-27.76L101.09,271.78v71H821.65V293.57Z"/><path class="cls-12" d="M693.63,309.15C706.22,273.86,718.28,240,731,204.38l16.44,44.25c23.31-49.28,46.22-97.7,69.9-147.74,16.56,34,32.65,67,49.95,102.45l27.35-60.46c28.15,74,53.86,141.65,80.41,211.48H647.71c10.85-24.86,21-48.11,32.73-75C685,289.7,689.1,298.9,693.63,309.15Zm118.84.94q2.31,7.86,8.11,27.56c4.5-11.35,8-20.09,12.34-31.16,4.06,24.64,11.64,29.16,21.8,23.86,1.47-.76,3.18-1.61,4.56-.91,10.21,5.18,13.85-6.78,16.69-21.41,2.58-13.31,5.33-26.51,8.13-40.41L895,278V171.65c-9.85,19.31-19.32,38.62-29.23,57.11-7.76,14.47-16.21,27.66-24.07,42-3.95,7.2-6.67,17.16-11,23C825.65,300.46,819.46,304,812.47,310.09Zm-54.63,12.54c1.42-.19,2.29.2,2.67-.43,16.7-27.15,34.14-52.94,49.78-82.07,13.19-24.58,13-26.38,25.62-2.61.32.59,1.09.32,2.16.58,1.34-10.68,2.69-21.45,4.77-38.06,4.49,10.56,7.22,17,10.27,24.13l7.37-14.4-43-87.49c-2.29,29.5-4.28,55.21-6.42,82.76l-14.25-17.8C783.78,232.57,771,276.88,757.84,322.63ZM698.4,326.4c15.51,8.77,29.91-1.94,31.57-24.62,1.46-19.86.31-40.39.31-65.56C718.76,268.81,708.82,296.91,698.4,326.4Z"/><path class="cls-13" d="M812.47,310.09c7-6.07,13.18-9.63,18.15-16.32,4.37-5.89,7.09-15.85,11-23,7.86-14.3,16.31-27.49,24.07-42,9.91-18.49,19.38-37.8,29.23-57.11V278l-10.86-10.4c-2.8,13.9-5.55,27.1-8.13,40.41-2.84,14.63-6.48,26.59-16.69,21.41-1.38-.7-3.09.15-4.56.91-10.16,5.3-17.74.78-21.8-23.86-4.38,11.07-7.84,19.81-12.34,31.16Q814.79,318,812.47,310.09Z"/><path class="cls-13" d="M757.84,322.63c13.18-45.75,25.94-90.06,39-135.39L811.08,205c2.14-27.55,4.13-53.26,6.42-82.76l43,87.49-7.37,14.4c-3.05-7.17-5.78-13.57-10.27-24.13-2.08,16.61-3.43,27.38-4.77,38.06-1.07-.26-1.84,0-2.16-.58-12.58-23.77-12.43-22-25.62,2.61-15.64,29.13-33.08,54.92-49.78,82.07C760.13,322.83,759.26,322.44,757.84,322.63Z"/><path class="cls-13" d="M698.4,326.4c10.42-29.49,20.36-57.59,31.88-90.18,0,25.17,1.15,45.7-.31,65.56C728.31,324.46,713.91,335.17,698.4,326.4Z"/><path class="cls-12" d="M60.53,282.84s61.77-56.31,158.34-30.31S342.51,320.12,404,318.82s172.46,7.86,212,0,100.85,14.36,131.17,8.47,110-47.21,160-34.21,44.28,37,44.28,37l4.65,51.36L880.6,361.63,780.08,387.5,652.45,373.08l-111.29,8.26L471.65,369.8l-144.32,8.07L50.68,351.24Z"/><path class="cls-12" d="M45.92,323l37.36-72.73C89,260.84,94.1,270.46,99.71,281l69.91-102.57,49.94,71.13,27.36-42c28.14,51.38,53.86,121.84,80.41,170.32C290.06,381.36,227,384.26,227,384.26l-26.27,22.38L128,416.5,86.08,466S21.85,380,0,354.36l32.73-52.07Zm118.84.66,8.11,19.13c4.49-7.88,7.95-13.95,12.34-21.63,4.06,17.1,11.63,20.24,21.8,16.56,1.46-.53,3.18-1.12,4.56-.63,10.2,3.59,13.85-4.71,16.68-14.86,2.59-9.24,5.33-18.41,8.14-28.06l10.85,7.22V227.51c-9.84,13.41-19.31,26.82-29.22,39.65-7.76,10-16.21,19.21-24.07,29.14-3.95,5-6.67,11.9-11,16C177.94,316.94,171.74,319.41,164.76,323.63Zm-54.63,8.7c1.42-.13,2.28.14,2.67-.3,16.7-18.85,34.13-36.75,49.77-57,13.2-17.06,13-18.32,25.63-1.82.31.41,1.09.23,2.16.41,1.34-7.42,2.68-14.89,4.77-26.43L205.39,264l7.38-10-43-60.74c-2.29,20.48-4.29,38.33-6.42,57.45l-14.25-12.35C136.07,269.81,123.31,300.57,110.13,332.33ZM50.68,335C66.2,341,80.59,333.6,82.26,317.86c1.46-13.79.3-28,.3-45.52Z"/><path class="cls-13" d="M164.76,323.63c7-4.22,13.18-6.69,18.15-11.34,4.37-4.09,7.09-11,11-16,7.86-9.93,16.31-19.09,24.07-29.14,9.91-12.83,19.38-26.24,29.22-39.65v73.85l-10.85-7.22c-2.81,9.65-5.55,18.82-8.14,28.06-2.83,10.15-6.48,18.45-16.68,14.86-1.38-.49-3.1.1-4.56.63-10.17,3.68-17.74.54-21.8-16.56-4.39,7.68-7.85,13.75-12.34,21.63Z"/><path class="cls-13" d="M110.13,332.33c13.18-31.76,25.94-62.52,39-94l14.25,12.35c2.13-19.12,4.13-37,6.42-57.45l43,60.74-7.38,10-10.26-16.76c-2.09,11.54-3.43,19-4.77,26.43-1.07-.18-1.85,0-2.16-.41-12.59-16.5-12.43-15.24-25.63,1.82-15.64,20.22-33.07,38.12-49.77,57C112.41,332.47,111.55,332.2,110.13,332.33Z"/><path class="cls-13" d="M50.68,335l31.88-62.61c0,17.48,1.16,31.73-.3,45.52C80.59,333.6,66.2,341,50.68,335Z"/><path class="cls-14" d="M279.27,224.81S235,215,197.58,219.18s-63.31,6.1-74.2,5.63-44.24-4.08-57.86.07,85.09,4.63,85.09,4.63S298.33,232.33,279.27,224.81Z"/><path class="cls-14" d="M147.75,240.26s22.12-4.93,40.84-2.82,31.66,3.06,37.1,2.82,22.13-2,28.93,0-42.54,2.31-42.54,2.31S138.22,244,147.75,240.26Z"/><path class="cls-14" d="M976.32,148.52s-44.25-9.86-81.69-5.64-63.31,6.11-74.2,5.64-44.25-4.09-57.86.07,85.09,4.63,85.09,4.63S995.38,156,976.32,148.52Z"/><path class="cls-14" d="M842.78,127.06s22.12-4.93,40.84-2.82,31.66,3.06,37.1,2.82,22.13-2,28.93,0-42.54,2.31-42.54,2.31S833.25,130.82,842.78,127.06Z"/><polygon class="cls-15" points="257.7 960.29 211.35 966.19 169.59 959.12 150.99 946.63 134.44 922.53 133.23 917.3 247.47 934.5 262.42 935.5 266.25 953.45 257.7 960.29"/><path class="cls-11" d="M260.92,940.2c-1.55-.25-25.18,4.07-25.18,4.07l-31-1.14s-36.68-5.6-37.88-6.26-33.68-19.57-33.68-19.57l11-4.76L186,914.66,251.65,930l10.77,5.55Z"/><polygon class="cls-16" points="133.23 917.3 182.94 919.49 185.95 914.66 144.25 912.54 133.23 917.3"/><polygon class="cls-15" points="182.94 919.49 234.61 944.37 260.92 940.2 262.42 935.5 251.65 929.95 185.95 914.66 182.94 919.49"/><polygon class="cls-17" points="211.35 966.19 203.24 942.88 235.74 944.27 260.92 940.2 262.42 935.5 266.25 953.45 257.7 960.29 211.35 966.19"/><polygon class="cls-17" points="169.4 959.13 166.91 936.87 133.23 917.3 133.55 921.08 149.86 946.72 169.4 959.13"/><polygon class="cls-15" points="179.06 962.87 167.27 949.79 159.06 947.45 151.7 950.38 145.66 955.47 147.3 956.85 149.43 963.9 158.26 964.67 171.1 967.75 179.06 962.87"/><polygon class="cls-11" points="163.81 954.95 147.3 956.85 145.66 955.47 151.7 950.38 154.74 949.16 168.31 950.85 163.81 954.95"/><polygon class="cls-17" points="149.43 963.9 147.07 962.97 145.66 955.47 147.3 956.85 149.43 963.9"/><polygon class="cls-17" points="163.81 954.95 171.1 967.75 179.06 962.87 168.31 950.85 163.81 954.95"/><path class="cls-17" d="M212.94,903.39h3.62l2-2,7.58,5.27L233.38,920l2.14,1.16,5.6,10.71,5.94,11.7-4.45,17.31S221.18,971,220.68,971.13s-20.25-2.5-20.25-2.5l-16.5-10.85,5.27-22.09,1.49-16,11.53-8.4,2.15-3.13Z"/><path class="cls-11" d="M215.41,912.78c-.49,0-13.19-1.48-13.19-1.48l-2.3,1.48,6.09,1.65,5.12,7.58,5.1,12Z"/><polygon class="cls-16" points="205.19 907.51 211.95 908.5 217.39 909.65 208.98 909.65 203.05 909.98 203.87 908.25 205.19 907.51"/><path class="cls-11" d="M193.08,920.53l-2.39-.83-1.49,16-5.52,22.09,16.75,10.85-.18-3.27-9.56-7.09-1.24-3.79,4-11.7s1.16,3.05,1.16,2.64.66-9,.66-9Z"/><polygon class="cls-11" points="183.68 957.78 189.45 954.48 190.69 958.27 183.68 957.78"/><polygon class="cls-17" points="200.52 968.72 200.78 965.19 190.69 958.27 183.68 957.78 200.52 968.72"/><polygon class="cls-18" points="220.68 971.13 225.74 963.21 240.54 956.32 247.06 943.6 242.61 960.91 220.68 971.13"/><polygon class="cls-15" points="225.74 963.21 200.78 965.19 200.52 968.72 220.68 971.13 225.74 963.21"/><path class="cls-15" d="M289.34,970.68c-1.43,0-60.28,1.42-60.28,1.42l21.36-18.51,67.39-28.47,1.9,8.07Z"/><polygon class="cls-17" points="218.62 947.42 210.55 972.58 229.06 972.1 250.42 953.59 218.62 947.42"/><polygon class="cls-15" points="208.66 936.51 205.81 956.91 210.55 972.58 218.62 947.42 208.66 936.51"/><polygon class="cls-11" points="317.81 925.12 250.42 953.59 220.05 949.8 208.66 936.51 220.81 926.02 234.28 917.52 247.57 906.13 258.01 905.18 311.17 920.37 317.81 925.12"/><polygon class="cls-15" points="239.82 912.49 269.66 917.52 236.37 917.52 234.28 917.52 239.82 912.49"/><polygon class="cls-16" points="247.57 906.13 265.4 911.88 269.66 917.52 239.82 912.49 247.57 906.13"/><path class="cls-15" d="M187.44,480.92h-3.33l-1.82-1.82-7,4.85-6.67,12.28-2,1.07-5.15,9.86-5.46,10.77,4.09,15.92s19.72,9.25,20.18,9.4S199,541,199,541l15.19-10-4.85-20.33-1.37-14.71L197.3,488.2l-2-2.88Z"/><path class="cls-11" d="M185.17,489.56c.45,0,12.13-1.36,12.13-1.36l2.13,1.36-5.62,1.52-4.7,7-4.7,11.07Z"/><polygon class="cls-15" points="194.57 484.71 188.35 485.62 183.35 486.68 191.09 486.68 196.54 486.99 195.79 485.39 194.57 484.71"/><path class="cls-15" d="M205.72,496.69l2.2-.76,1.37,14.71L214.37,531,199,541l.17-3,8.8-6.53,1.14-3.48-3.64-10.77a15.14,15.14,0,0,1-1.06,2.42c0-.37-.61-8.26-.61-8.26Z"/><polygon class="cls-15" points="214.37 530.97 209.06 527.94 207.92 531.42 214.37 530.97"/><polygon class="cls-15" points="198.87 541.04 198.63 537.79 207.92 531.42 214.37 530.97 198.87 541.04"/><polygon class="cls-15" points="180.32 543.25 175.66 535.97 162.04 529.63 156.05 517.93 160.14 533.85 180.32 543.25"/><polygon class="cls-15" points="175.66 535.97 198.63 537.79 198.87 541.04 180.32 543.25 175.66 535.97"/><path class="cls-15" d="M117.14,542.84c1.31,0,55.46,1.31,55.46,1.31l-19.65-17-62-26.21-1.75,7.43Z"/><polygon class="cls-15" points="182.21 521.44 189.64 544.59 172.6 544.15 152.95 527.12 182.21 521.44"/><polygon class="cls-15" points="191.38 511.4 194 530.18 189.64 544.59 182.21 521.44 191.38 511.4"/><polygon class="cls-11" points="90.93 500.91 152.95 527.12 180.9 523.63 191.38 511.4 180.2 501.75 167.8 493.93 155.57 483.44 145.96 482.57 97.05 496.55 90.93 500.91"/><polygon class="cls-15" points="162.7 489.3 135.24 493.93 165.88 493.93 167.8 493.93 162.7 489.3"/><polygon class="cls-15" points="155.57 483.44 139.17 488.74 135.24 493.93 162.7 489.3 155.57 483.44"/><path class="cls-15" d="M481.86,353H480l-1-1-4,2.77-3.81,7-1.13.61L467,368l-3.12,6.15,2.34,9.1s11.27,5.29,11.53,5.38,10.65-1.32,10.65-1.32l8.69-5.7L494.34,370l-.78-8.41-6.07-4.42-1.12-1.65Z"/><path class="cls-11" d="M480.56,358c.26,0,6.93-.78,6.93-.78l1.22.78-3.21.87-2.69,4-2.69,6.33Z"/><polygon class="cls-15" points="485.93 355.2 482.38 355.72 479.52 356.32 483.94 356.32 487.06 356.5 486.63 355.59 485.93 355.2"/><path class="cls-15" d="M492.3,362l1.26-.43.78,8.41,2.91,11.62-8.82,5.7.1-1.72,5-3.72.65-2-2.08-6.15a8.46,8.46,0,0,1-.61,1.38c0-.21-.34-4.72-.34-4.72Z"/><polygon class="cls-15" points="497.25 381.64 494.21 379.9 493.56 381.9 497.25 381.64"/><polygon class="cls-15" points="488.39 387.39 488.25 385.53 493.56 381.9 497.25 381.64 488.39 387.39"/><polygon class="cls-15" points="477.78 388.66 475.12 384.49 467.34 380.87 463.91 374.18 466.25 383.28 477.78 388.66"/><polygon class="cls-15" points="475.12 384.49 488.25 385.53 488.39 387.39 477.78 388.66 475.12 384.49"/><path class="cls-15" d="M441.67,388.42c.75,0,31.71.75,31.71.75l-11.24-9.74-35.44-15-1,4.24Z"/><polygon class="cls-15" points="478.87 376.19 483.11 389.42 473.38 389.17 462.14 379.43 478.87 376.19"/><polygon class="cls-15" points="484.11 370.45 485.61 381.18 483.11 389.42 478.87 376.19 484.11 370.45"/><polygon class="cls-11" points="426.7 364.46 462.14 379.43 478.12 377.44 484.11 370.45 477.72 364.94 470.63 360.46 463.64 354.47 458.15 353.97 430.19 361.96 426.7 364.46"/><polygon class="cls-15" points="467.72 357.82 452.02 360.46 469.53 360.46 470.63 360.46 467.72 357.82"/><polygon class="cls-15" points="463.64 354.47 454.26 357.5 452.02 360.46 467.72 357.82 463.64 354.47"/><polygon class="cls-19" points="947.38 698.11 934.26 659.9 935.22 671.11 947.38 698.11"/><polygon class="cls-15" points="826.73 717.32 875.62 726.14 905.49 724.47 938.77 724.32 947.38 698.11 935.22 671.11 912.42 687.71 878.13 696.2 830.33 676.95 789.61 653.76 791.8 669.21 826.73 717.32"/><path class="cls-16" d="M789.61,653.76c5.48,1.61,47.51,26.93,47.51,26.93l41,15.51,34.29-8.49,22.8-16.6-1-11.21-42.75-24.66-66.82,7.27Z"/><polygon class="cls-17" points="878.13 696.2 875.62 726.14 938.77 724.32 912.42 687.71 878.13 696.2"/><polygon class="cls-11" points="938.77 724.32 912.42 687.71 935.22 671.11 947.38 698.11 938.77 724.32"/><polygon class="cls-11" points="909.07 733.89 888.79 718.08 841.65 698.47 803.27 690.9 833.37 706.52 839.82 714.57 854.94 720.71 881.08 727.26 909.07 733.89"/><path class="cls-15" d="M794.22,725.62c.08-2.22,8.36-16.4,8.36-16.4l23.87-2.45,14.5,0,5.78,8Z"/><polygon class="cls-17" points="794.22 725.62 801.31 728.12 909.07 733.89 860.33 720.91 846.73 714.83 794.22 725.62"/><polygon class="cls-17" points="814.87 691.29 802.58 709.22 840.95 706.81 814.87 691.29"/><path class="cls-20" d="M222.64,1034.32s23.55,43.79,24.11,59.62S236.58,1121,210,1112.4c-27.69-9,12.69-78.08,12.69-78.08"/><path class="cls-21" d="M213,1049.5s28.24,32.48,31.81,45.59-3.19,24.38-27.11,21.8c-24.87-2.69-4.7-67.39-4.7-67.39"/><polygon class="cls-22" points="214.3 1098.25 222.81 1103.96 222.81 1091.01 220.08 1088.94 213.85 1091.34 213.33 1089.98 218.72 1087.91 214.43 1084.65 215.31 1083.5 222.81 1089.19 222.81 1074.59 224.83 1074.59 224.83 1081.69 229.43 1078.09 230.32 1079.23 224.83 1083.54 224.83 1098.03 229.25 1095.7 229.9 1089.26 231.35 1089.4 230.79 1094.89 235.47 1092.43 236.15 1093.71 224.83 1099.67 224.83 1110.11 232.38 1106.14 233.05 1107.42 224.83 1111.75 224.83 1128.9 222.81 1128.9 222.81 1105.71 213.49 1099.45 214.3 1098.25"/><path class="cls-20" d="M299.85,1028.49s-26.92,50.07-27.57,68.16,11.63,31,42.08,21.11c31.66-10.25-14.51-89.27-14.51-89.27"/><path class="cls-21" d="M310.89,1045.84S278.6,1083,274.52,1098s3.64,27.87,31,24.92c28.44-3.07,5.38-77.06,5.38-77.06"/><polygon class="cls-22" points="309.38 1101.58 299.66 1108.12 299.66 1093.3 302.78 1090.94 309.9 1093.68 310.49 1092.13 304.33 1089.76 309.24 1086.04 308.24 1084.71 299.66 1091.22 299.66 1074.53 297.35 1074.53 297.35 1082.65 292.09 1078.53 291.06 1079.84 297.35 1084.76 297.35 1101.33 292.29 1098.67 291.55 1091.3 289.9 1091.47 290.53 1097.74 285.18 1094.93 284.4 1096.39 297.35 1103.21 297.35 1115.14 288.72 1110.6 287.95 1112.07 297.35 1117.02 297.35 1136.63 299.66 1136.63 299.66 1110.11 310.31 1102.96 309.38 1101.58"/><path class="cls-20" d="M259.92,998.07s-38.2,71-39.1,96.68,16.49,43.93,59.67,29.94c44.9-14.54-20.57-126.62-20.57-126.62"/><path class="cls-21" d="M275.57,1022.69s-45.8,52.66-51.59,73.94,5.16,39.53,44,35.34c40.34-4.36,7.63-109.28,7.63-109.28"/><polygon class="cls-22" points="273.44 1101.74 259.64 1111 259.64 1090 264.07 1086.64 274.16 1090.53 275.01 1088.33 266.27 1084.97 273.23 1079.69 271.81 1077.82 259.64 1087.04 259.64 1063.37 256.36 1063.37 256.36 1074.89 248.9 1069.05 247.45 1070.9 256.36 1077.88 256.36 1101.38 249.19 1097.61 248.13 1087.16 245.79 1087.39 246.69 1096.3 239.1 1092.3 238 1094.38 256.36 1104.04 256.36 1120.97 244.12 1114.53 243.03 1116.62 256.36 1123.63 256.36 1151.44 259.64 1151.44 259.64 1113.84 274.75 1103.69 273.44 1101.74"/><path class="cls-20" d="M829.83,805.23S857.68,857,858.34,875.7s-12,32-43.5,21.82c-32.73-10.6,15-92.29,15-92.29"/><path class="cls-21" d="M818.43,823.17s33.38,38.39,37.6,53.9-3.76,28.82-32,25.76c-29.41-3.18-5.56-79.66-5.56-79.66"/><polygon class="cls-22" points="819.98 880.79 830.03 887.55 830.03 872.23 826.81 869.79 819.45 872.62 818.84 871.02 825.21 868.57 820.13 864.72 821.17 863.36 830.03 870.08 830.03 852.82 832.43 852.82 832.43 861.23 837.86 856.96 838.92 858.31 832.43 863.4 832.43 880.53 837.66 877.78 838.42 870.16 840.13 870.34 839.48 876.83 845.01 873.91 845.81 875.43 832.43 882.47 832.43 894.81 841.35 890.12 842.15 891.64 832.43 896.75 832.43 917.02 830.03 917.02 830.03 889.61 819.03 882.22 819.98 880.79"/><path class="cls-20" d="M921.12,798.33s-31.84,59.18-32.59,80.58,13.74,36.61,49.73,25c37.43-12.13-17.14-105.54-17.14-105.54"/><path class="cls-21" d="M934.16,818.85s-38.17,43.89-43,61.62,4.31,33,36.64,29.46c33.62-3.63,6.36-91.08,6.36-91.08"/><polygon class="cls-22" points="932.38 884.73 920.89 892.46 920.89 874.95 924.58 872.15 932.99 875.39 933.7 873.56 926.41 870.76 932.21 866.36 931.03 864.8 920.89 872.49 920.89 852.75 918.15 852.75 918.15 862.36 911.94 857.49 910.73 859.03 918.15 864.85 918.15 884.44 912.17 881.29 911.3 872.58 909.35 872.78 910.09 880.2 903.76 876.87 902.85 878.6 918.15 886.65 918.15 900.77 907.95 895.4 907.04 897.14 918.15 902.98 918.15 926.16 920.89 926.16 920.89 894.82 933.48 886.36 932.38 884.73"/><path class="cls-20" d="M873.91,762.37s-45.15,83.94-46.23,114.29,19.5,51.93,70.54,35.39c53.09-17.19-24.31-149.68-24.31-149.68"/><path class="cls-21" d="M892.41,791.47s-54.14,62.26-61,87.41,6.11,46.73,52,41.78c47.69-5.15,9-129.19,9-129.19"/><polygon class="cls-22" points="889.89 884.92 873.58 895.87 873.58 871.04 878.81 867.07 890.75 871.67 891.75 869.08 881.42 865.1 889.64 858.86 887.96 856.64 873.58 867.55 873.58 839.56 869.7 839.56 869.7 853.19 860.89 846.27 859.17 848.46 869.7 856.72 869.7 884.5 861.22 880.04 859.98 867.68 857.21 867.96 858.27 878.49 849.29 873.76 848 876.23 869.7 887.64 869.7 907.66 855.24 900.05 853.94 902.51 869.7 910.8 869.7 943.68 873.58 943.68 873.58 899.22 891.44 887.23 889.89 884.92"/><polygon class="cls-12" points="347.04 312.33 341.02 301.63 343.84 301.41 339.32 294.42 342.15 294.2 336.13 286.34 338.76 286.13 332.93 276.08 332.87 276.33 332.86 276.01 327.03 286.05 329.67 286.27 323.65 294.13 326.47 294.35 321.95 301.33 324.78 301.55 318.76 312.25 323.7 312.19 323.7 312.21 347.04 312.33"/><rect class="cls-12" x="331.82" y="309.79" width="2.16" height="10.78"/><polygon class="cls-12" points="356.55 315.23 350.53 304.53 353.35 304.31 348.84 297.32 351.66 297.11 345.64 289.25 348.27 289.03 342.44 278.98 342.38 279.23 342.38 278.91 336.55 288.95 339.18 289.17 333.16 297.03 335.98 297.25 331.47 304.24 334.29 304.45 328.27 315.15 333.21 315.09 333.21 315.11 356.55 315.23"/><rect class="cls-12" x="341.33" y="312.59" width="2.16" height="7.91"/><polygon class="cls-12" points="297.4 278.04 293.9 271.82 295.55 271.69 292.92 267.63 294.56 267.51 291.06 262.94 292.59 262.81 289.2 256.98 289.17 257.12 289.17 256.93 285.78 262.77 287.31 262.9 283.81 267.46 285.45 267.59 282.83 271.65 284.47 271.78 280.97 278 283.84 277.96 283.84 277.97 297.4 278.04"/><rect class="cls-12" x="288.56" y="276.57" width="1.25" height="6.27"/><polygon class="cls-12" points="302.93 279.73 299.43 273.51 301.07 273.38 298.45 269.32 300.09 269.19 296.59 264.63 298.12 264.5 294.73 258.66 294.7 258.81 294.69 258.62 291.31 264.45 292.84 264.58 289.34 269.15 290.98 269.28 288.36 273.34 290 273.46 286.5 279.68 289.37 279.65 289.37 279.66 302.93 279.73"/><rect class="cls-12" x="294.09" y="278.19" width="1.25" height="4.6"/><rect class="cls-15" x="148.66" y="402.62" width="3.42" height="17.09"/><polygon class="cls-15" points="187.84 411.23 178.31 394.28 182.78 393.94 175.63 382.87 180.09 382.52 170.56 370.07 174.73 369.72 165.49 353.81 165.39 354.21 165.39 353.69 156.15 369.61 160.32 369.95 150.79 382.4 155.26 382.75 148.11 393.82 152.58 394.17 143.04 411.12 150.88 411.01 150.87 411.04 187.84 411.23"/><rect class="cls-15" x="163.73" y="407.06" width="3.42" height="12.53"/><polygon class="cls-15" points="172.77 406.64 163.24 389.69 167.71 389.34 160.56 378.27 165.03 377.93 155.49 365.47 159.66 365.13 150.42 349.21 150.32 349.61 150.32 349.1 141.08 365.01 145.25 365.36 135.72 377.81 140.19 378.15 133.04 389.22 137.51 389.57 127.97 406.52 135.81 406.42 135.8 406.45 172.77 406.64"/><polygon class="cls-15" points="843.47 370.05 835.16 355.27 839.06 354.97 832.82 345.32 836.72 345.02 828.41 334.17 832.04 333.87 823.99 319.99 823.9 320.34 823.9 319.89 815.85 333.76 819.48 334.06 811.17 344.92 815.07 345.22 808.83 354.87 812.73 355.17 804.42 369.95 811.25 369.86 811.24 369.89 843.47 370.05"/><rect class="cls-15" x="822.45" y="366.55" width="2.98" height="14.89"/><polygon class="cls-15" points="856.61 374.06 848.3 359.28 852.19 358.98 845.96 349.33 849.86 349.03 841.54 338.17 845.18 337.87 837.13 324 837.04 324.35 837.03 323.9 828.98 337.77 832.62 338.07 824.31 348.93 828.2 349.23 821.97 358.88 825.87 359.18 817.55 373.95 824.38 373.87 824.38 373.89 856.61 374.06"/><rect class="cls-15" x="835.59" y="370.42" width="2.98" height="10.92"/><polygon class="cls-15" points="889.97 402.94 880.07 385.35 884.71 384.99 877.29 373.5 881.93 373.14 872.03 360.22 876.36 359.86 866.77 343.34 866.67 343.75 866.66 343.22 857.08 359.73 861.41 360.09 851.51 373.02 856.15 373.38 848.73 384.86 853.37 385.22 843.47 402.81 851.6 402.71 851.59 402.74 889.97 402.94"/><rect class="cls-15" x="864.95" y="398.77" width="3.55" height="17.73"/><polygon class="cls-15" points="905.61 407.71 895.71 390.12 900.35 389.76 892.93 378.27 897.57 377.91 887.67 364.99 892 364.63 882.41 348.11 882.31 348.53 882.3 347.99 872.72 364.5 877.05 364.86 867.15 377.79 871.79 378.15 864.37 389.63 869.01 389.99 859.11 407.58 867.24 407.48 867.23 407.51 905.61 407.71"/><rect class="cls-15" x="880.59" y="403.37" width="3.55" height="13"/><polygon class="cls-15" points="319.53 369.8 308.88 350.87 313.87 350.49 305.89 338.13 310.88 337.74 300.23 323.84 304.89 323.45 294.58 305.68 294.46 306.13 294.46 305.55 284.15 323.32 288.8 323.7 278.16 337.61 283.15 338 275.16 350.36 280.15 350.74 269.51 369.67 278.25 369.55 278.25 369.59 319.53 369.8"/><rect class="cls-15" x="292.61" y="365.31" width="3.82" height="19.08"/><polygon class="cls-15" points="336.36 374.93 325.71 356.01 330.7 355.62 322.72 343.26 327.71 342.87 317.06 328.97 321.72 328.58 311.4 310.82 311.29 311.26 311.29 310.69 300.97 328.45 305.63 328.84 294.99 342.74 299.98 343.13 291.99 355.49 296.98 355.87 286.33 374.8 295.08 374.68 295.07 374.72 336.36 374.93"/><rect class="cls-15" x="309.44" y="370.27" width="3.82" height="13.99"/><polygon class="cls-15" points="268.44 418.59 256.28 401.5 261.83 401.04 252.74 389.9 258.29 389.44 246.21 376.94 251.39 376.49 239.62 360.45 239.5 360.86 239.49 360.33 228.3 376.79 233.49 377.05 221.87 389.98 227.43 390.23 218.74 401.7 224.31 401.95 212.77 419.47 222.5 419.19 222.49 419.23 268.44 418.59"/><rect class="cls-15" x="238.52" y="414.83" width="4.25" height="12.8" transform="translate(-7.53 4.39) rotate(-1.03)"/><polygon class="cls-12" points="657.11 315.81 654.33 310.48 655.59 310.35 653.51 306.87 654.77 306.74 652.02 302.84 653.19 302.71 650.5 297.7 650.48 297.83 650.47 297.67 647.97 302.76 649.14 302.85 646.53 306.85 647.79 306.94 645.85 310.49 647.11 310.57 644.52 316 646.72 315.93 646.72 315.94 657.11 315.81"/><rect class="cls-12" x="650.35" y="314.6" width="0.96" height="3.98" transform="translate(-5.58 11.74) rotate(-1.03)"/><polygon class="cls-12" points="281.03 270.48 278.25 265.14 279.51 265.01 277.44 261.54 278.69 261.4 275.94 257.5 277.11 257.37 274.42 252.36 274.4 252.49 274.39 252.33 271.89 257.42 273.06 257.51 270.46 261.51 271.71 261.6 269.77 265.15 271.03 265.24 268.44 270.66 270.64 270.59 270.64 270.6 281.03 270.48"/><rect class="cls-12" x="274.27" y="269.26" width="0.96" height="3.98" transform="translate(-4.83 4.98) rotate(-1.03)"/><polygon class="cls-12" points="666.88 316.38 664.11 311.05 665.36 310.92 663.29 307.44 664.54 307.31 661.79 303.4 662.97 303.27 660.28 298.27 660.25 298.39 660.25 298.23 657.75 303.33 658.92 303.42 656.31 307.42 657.57 307.5 655.62 311.05 656.88 311.14 654.3 316.57 656.5 316.5 656.5 316.5 666.88 316.38"/><rect class="cls-12" x="660.12" y="315.17" width="0.96" height="3.98" transform="matrix(1, -0.02, 0.02, 1, -5.59, 11.92)"/><polygon class="cls-11" points="661.79 266.7 659.37 262.05 660.46 261.94 658.66 258.91 659.75 258.79 657.36 255.39 658.37 255.28 656.03 250.91 656.01 251.03 656.01 250.88 653.83 255.32 654.85 255.4 652.58 258.89 653.67 258.96 651.98 262.06 653.07 262.13 650.82 266.87 652.74 266.8 652.74 266.81 661.79 266.7"/><rect class="cls-11" x="655.9" y="265.64" width="0.84" height="3.47" transform="translate(-4.7 11.83) rotate(-1.03)"/><polygon class="cls-11" points="672.37 270.47 669.95 265.82 671.04 265.7 669.24 262.67 670.33 262.56 667.93 259.16 668.95 259.04 666.61 254.68 666.59 254.79 666.59 254.65 664.4 259.09 665.43 259.17 663.15 262.65 664.25 262.73 662.55 265.82 663.65 265.9 661.4 270.63 663.32 270.57 663.32 270.58 672.37 270.47"/><rect class="cls-11" x="666.48" y="269.41" width="0.84" height="3.47" transform="translate(-4.76 12.02) rotate(-1.03)"/><polygon class="cls-11" points="678.66 275.93 676.24 271.29 677.34 271.17 675.53 268.14 676.62 268.03 674.23 264.62 675.25 264.51 672.9 260.15 672.88 260.26 672.88 260.12 670.7 264.56 671.72 264.63 669.45 268.12 670.54 268.2 668.85 271.29 669.94 271.37 667.69 276.1 669.61 276.04 669.61 276.04 678.66 275.93"/><rect class="cls-11" x="672.77" y="274.88" width="0.84" height="3.47" transform="translate(-4.86 12.14) rotate(-1.03)"/><polygon class="cls-11" points="412.1 309.89 409.69 305.27 410.78 305.16 408.99 302.15 410.07 302.03 407.69 298.65 408.7 298.53 406.38 294.2 406.35 294.31 406.35 294.17 404.18 298.58 405.2 298.66 402.94 302.13 404.03 302.2 402.34 305.28 403.43 305.35 401.19 310.06 403.1 310 403.1 310 412.1 309.89"/><rect class="cls-11" x="406.24" y="308.84" width="0.83" height="3.45" transform="translate(-5.51 7.35) rotate(-1.03)"/><polygon class="cls-11" points="420.15 304.9 417.74 300.28 418.83 300.17 417.03 297.15 418.12 297.04 415.74 293.66 416.75 293.54 414.42 289.21 414.4 289.32 414.4 289.18 412.23 293.59 413.25 293.67 410.99 297.14 412.08 297.21 410.39 300.29 411.48 300.36 409.24 305.07 411.15 305 411.15 305.01 420.15 304.9"/><rect class="cls-11" x="414.29" y="303.85" width="0.83" height="3.45" transform="translate(-5.42 7.5) rotate(-1.03)"/><polygon class="cls-12" points="676.73 305.26 674.56 301.09 675.54 300.99 673.92 298.27 674.9 298.17 672.75 295.12 673.66 295.02 671.57 291.11 671.55 291.21 671.54 291.08 669.59 295.06 670.5 295.13 668.47 298.25 669.45 298.32 667.93 301.1 668.91 301.16 666.89 305.4 668.61 305.35 668.61 305.36 676.73 305.26"/><rect class="cls-12" x="671.45" y="304.31" width="0.75" height="3.11" transform="translate(-5.39 12.12) rotate(-1.03)"/><polygon class="cls-15" points="286.27 411.09 273.99 387.09 279.53 386.49 270.36 370.84 275.91 370.24 263.74 352.66 268.92 352.07 257.03 329.55 256.91 330.12 256.89 329.38 245.82 352.32 251.02 352.72 239.49 370.73 245.05 371.12 236.45 387.1 242.01 387.49 230.59 411.93 240.33 411.6 240.32 411.65 286.27 411.09"/><rect class="cls-15" x="256.37" y="405.62" width="4.25" height="17.91" transform="translate(-7.4 4.71) rotate(-1.03)"/><path class="cls-20" d="M189.82,466.69s18.62,34.62,19.06,47.14-8,21.41-29.09,14.59c-21.89-7.09,10-61.73,10-61.73"/><path class="cls-21" d="M182.19,478.7s22.33,25.67,25.15,36S204.82,534,185.91,532c-19.67-2.12-3.72-53.27-3.72-53.27"/><polygon class="cls-22" points="183.23 517.23 189.96 521.75 189.96 511.51 187.8 509.87 182.88 511.77 182.46 510.7 186.72 509.06 183.33 506.49 184.02 505.57 189.96 510.07 189.96 498.53 191.55 498.53 191.55 504.15 195.19 501.3 195.9 502.2 191.55 505.6 191.55 517.06 195.05 515.22 195.56 510.13 196.71 510.24 196.27 514.58 199.97 512.63 200.5 513.65 191.55 518.36 191.55 526.61 197.52 523.47 198.06 524.49 191.55 527.91 191.55 541.47 189.96 541.47 189.96 523.13 182.59 518.18 183.23 517.23"/><path class="cls-20" d="M250.87,462.08s-21.29,39.59-21.8,53.89,9.2,24.49,33.27,16.7c25-8.11-11.47-70.59-11.47-70.59"/><path class="cls-21" d="M259.59,475.8S234.06,505.16,230.84,517s2.88,22,24.5,19.7c22.49-2.43,4.25-60.92,4.25-60.92"/><polygon class="cls-22" points="258.41 519.87 250.72 525.04 250.72 513.33 253.18 511.45 258.81 513.62 259.28 512.4 254.41 510.52 258.29 507.58 257.5 506.54 250.72 511.68 250.72 498.48 248.89 498.48 248.89 504.91 244.73 501.65 243.92 502.68 248.89 506.57 248.89 519.67 244.89 517.57 244.3 511.74 243 511.87 243.5 516.84 239.26 514.61 238.65 515.77 248.89 521.15 248.89 530.59 242.07 527 241.46 528.16 248.89 532.07 248.89 547.58 250.72 547.58 250.72 526.62 259.14 520.96 258.41 519.87"/><path class="cls-20" d="M219.3,438s-30.2,56.14-30.92,76.44,13,34.73,47.18,23.67C271.06,526.64,219.3,438,219.3,438"/><path class="cls-21" d="M231.67,457.49S195.46,499.13,190.88,516s4.09,31.26,34.76,27.95c31.89-3.45,6-86.41,6-86.41"/><polygon class="cls-22" points="229.98 519.99 219.08 527.32 219.08 510.71 222.58 508.06 230.56 511.13 231.23 509.4 224.32 506.74 229.82 502.56 228.7 501.08 219.08 508.38 219.08 489.66 216.49 489.66 216.49 498.77 210.59 494.15 209.44 495.61 216.49 501.13 216.49 519.72 210.81 516.73 209.98 508.47 208.13 508.65 208.84 515.69 202.84 512.53 201.97 514.18 216.49 521.82 216.49 535.2 206.81 530.11 205.94 531.76 216.49 537.3 216.49 559.29 219.08 559.29 219.08 529.56 231.02 521.54 229.98 519.99"/></g></g></g></svg>