<svg xmlns="http://www.w3.org/2000/svg" xmlns:xlink="http://www.w3.org/1999/xlink" viewBox="0 0 978.02 1388.07"><defs><style>.cls-1{fill:none;}.cls-2{clip-path:url(#clip-path);}.cls-3{fill:url(#未命名漸層_233);}.cls-4{fill:url(#未命名漸層_226);}.cls-13,.cls-5{fill:#9dacff;}.cls-5{opacity:0.82;}.cls-6{fill:url(#未命名漸層_262);}.cls-7{fill:#fff;}.cls-8{fill:#002f48;}.cls-9{fill:url(#未命名漸層_170);}.cls-10{fill:#3570ff;}.cls-11{fill:#004a82;}.cls-12{fill:#5aa9ff;}.cls-14{fill:#d700da;}.cls-15{fill:#ff6bf5;}.cls-16{fill:#60004c;}.cls-17{fill:#00306b;}.cls-18{fill:#8acaff;}.cls-19{fill:#003678;}.cls-20{fill:#3c3544;}.cls-21{fill:#8d8e7c;}</style><clipPath id="clip-path"><rect class="cls-1" x="143.04" y="45.97" width="749.94" height="1334"/></clipPath><linearGradient id="未命名漸層_233" x1="510.67" x2="510.67" y2="530.22" gradientUnits="userSpaceOnUse"><stop offset="0" stop-color="#003b95"/><stop offset="0.06" stop-color="#0747a0"/><stop offset="0.24" stop-color="#1d6bc2"/><stop offset="0.43" stop-color="#2e86dd"/><stop offset="0.62" stop-color="#3a9af0"/><stop offset="0.81" stop-color="#42a6fb"/><stop offset="1" stop-color="#4af"/></linearGradient><linearGradient id="未命名漸層_226" x1="302.93" y1="182.53" x2="474.09" y2="182.53" gradientUnits="userSpaceOnUse"><stop offset="0" stop-color="#ff64f0"/><stop offset="0" stop-color="#ff65f0"/><stop offset="0.32" stop-color="#ff92f0"/><stop offset="0.61" stop-color="#ffb3f0"/><stop offset="0.84" stop-color="#ffc7f0"/><stop offset="1" stop-color="#ffcef0"/></linearGradient><linearGradient id="未命名漸層_262" x1="519.08" y1="498.74" x2="519.08" y2="1388.07" gradientUnits="userSpaceOnUse"><stop offset="0" stop-color="#ffcef0"/><stop offset="1" stop-color="#ff64f0"/></linearGradient><linearGradient id="未命名漸層_170" x1="519.08" y1="332.33" x2="519.08" y2="1121.68" gradientUnits="userSpaceOnUse"><stop offset="0" stop-color="#003b95"/><stop offset="0.05" stop-color="#0f54ad"/><stop offset="0.12" stop-color="#206fc6"/><stop offset="0.2" stop-color="#2d85db"/><stop offset="0.29" stop-color="#3796eb"/><stop offset="0.4" stop-color="#3fa1f7"/><stop offset="0.56" stop-color="#43a8fd"/><stop offset="1" stop-color="#4af"/></linearGradient></defs><title>4資產 13</title><g id="圖層_2" data-name="圖層 2"><g id="圖層_25" data-name="圖層 25"><g class="cls-2"><polygon class="cls-3" points="69.39 521.6 948.75 530.22 951.95 0 70.56 0 69.39 521.6"/><circle class="cls-4" cx="388.51" cy="182.53" r="85.58"/><path class="cls-5" d="M788.53,195.46s-19.23-15.63-30-7c0,0-25.54,5.84-25.54,12.82,0,0-16.06-9.56-21.29,0,0,0-29.8.09-34.71,11.28,0,0-25.27-1.72-28.35,12.06,0,0-8.58-4.1-11.27-3.85-3.4.31-11.75,6.87-11.75,6.87s-14.45-2-17.07,5.25c0,0-6.7.84-7.94,6.32,0,0-3.45-4.73-6.74-5.06-1.88-.19-7.38,2.06-7.38,2.06s-7.37-7-11.25-6.19a52.69,52.69,0,0,0-9.37,3.38s-5.45-6.88-10.88-6.88c-3.7,0-9.75,2.25-9.75,2.25a17.46,17.46,0,0,0-12.34-6c-1.65-.06-6.53,6.27-6.53,6.27s-6.6-4.28-12.47.19c0,0-6-15.22-21-14.07-6.93.52-25.1,9.38-25.1,9.38s-15-6.33-24.82-7.11c-6-.48-17.59,5.61-30.09,6.86-16,1.6-50.25,0-61.75-13.08,0,0,79.31,2.82,73.5-.34-11.33-6.15-26-2.05-37.7-3-.19,0-.35,0-.3-.19,1-3.6-22.63-8.08-36.17-7.17-14.57,1-22.14,5.33-22.14,5.33,1.35-5.48-16.91-24.92-32.18-16.82-7.85,4.17-16.68-27.51-37.68-21.51,0,0-4.48-9.57-11.17-12.33-7.66-3.17-16.65,1.13-16.65,1.13s-6.54-5-13-5.42c-4.64-.29-9.11,3.4-9.11,3.4s-7.31-6.37-11.89-7.65c-3.13-.88-10.5.54-10.5.54a15.44,15.44,0,0,0-14-6.67c-3.7.33-8.42,1.33-8.42,1.33s-7-16.09-22.14-11.35a208.81,208.81,0,0,1-31.39,7.46V342.76h699l-4.42-141.5Z"/><path class="cls-5" d="M518.41,162.5s-21.67-7-40-4-31,4.33-36.33,4-21.67-2.9-28.34.05,41.67,3.28,41.67,3.28S527.74,167.83,518.41,162.5Z"/><path class="cls-5" d="M454,173.46s10.83-3.5,20-2,15.5,2.17,18.16,2,10.84-1.45,14.17,0-20.83,1.64-20.83,1.64S449.34,176.13,454,173.46Z"/><rect class="cls-6" x="86.08" y="498.74" width="866" height="889.33"/><path class="cls-7" d="M328.08,717.5a218.88,218.88,0,0,0,23.43,26.79c4.26,4.1,8.63,8.06,13.25,11.72a157.48,157.48,0,0,0,14.31,10.34q3.71,2.39,7.57,4.54l1.93,1.09a16.73,16.73,0,0,0,1.88.86,28,28,0,0,0,4.08,1.22,139.56,139.56,0,0,0,17.55,2.29c5.94.5,11.92,1,17.85,1.94s11.92,2.22,17.15,5.21a37.71,37.71,0,0,0-8.49-2.67,81.74,81.74,0,0,0-8.82-1.25c-5.91-.59-11.87-.73-17.84-1s-12-.47-18-1.65a31.59,31.59,0,0,1-4.53-1.2c-.74-.25-1.52-.6-2.22-.92l-2.05-1c-2.73-1.32-5.36-2.8-8-4.32A130.72,130.72,0,0,1,349,746.78c-2.08-2.19-4.09-4.44-6-6.78s-3.78-4.68-5.53-7.13A102,102,0,0,1,328.08,717.5Z"/><path class="cls-7" d="M651.52,1176.67c14.72,4.56,29.72,7.16,44.81,9.35q11.31,1.62,22.75,2.65c7.63.51,15.29.73,22.95.82,15.33.23,30.68-.23,46-.58,7.68-.18,15.37-.37,23.06-.32,3.84,0,7.69.08,11.53.33a57.75,57.75,0,0,1,11.42,1.59,57.85,57.85,0,0,0-11.44-1.12c-3.83-.07-7.67,0-11.5.09-7.67.23-15.34.65-23,1-15.34.82-30.71,1.55-46.11,1.69-7.7,0-15.41-.06-23.12-.46-1.93-.11-3.85-.19-5.79-.26s-3.86-.19-5.78-.33c-3.86-.27-7.7-.71-11.54-1.2-1.93-.2-3.83-.57-5.74-.88s-3.82-.65-5.72-1l-2.84-.6-2.83-.67-2.82-.68-2.8-.78c-1.87-.5-3.72-1.11-5.57-1.68s-3.66-1.26-5.47-2A68.94,68.94,0,0,1,651.52,1176.67Z"/><path class="cls-7" d="M249.73,916.63c-6-2.22-11.95-4.6-17.82-7.08-2.95-1.22-5.85-2.52-8.79-3.76l-8.72-3.89c-2.88-1.36-5.81-2.61-8.67-4l-4.32-2c-.72-.34-1.43-.72-2.15-1l-2.17-.91a124,124,0,0,0-18-5.6c-12.33-2.93-25-4.52-37.65-5.9-6.34-.68-12.69-1.28-19-2-3.17-.37-6.34-.76-9.5-1.3a39.64,39.64,0,0,1-9.24-2.46,39.43,39.43,0,0,0,9.31,2c3.17.37,6.34.65,9.52.89l19.1,1.3a285.64,285.64,0,0,1,38.09,4.86A126.75,126.75,0,0,1,198.23,891c6.05,2.31,11.94,4.64,17.8,7.25,2.93,1.28,5.81,2.67,8.7,4,1.44.7,2.86,1.43,4.29,2.15s2.86,1.44,4.26,2.21A148.46,148.46,0,0,1,249.73,916.63Z"/><path class="cls-7" d="M925.89,1148.5s-118,49.85-275.52,5.81c-82.54-23.08-91.35-26.35-124.29-70.46-48.5-64.95-85.6-75.56-144.5-103.35-51.8-24.43-78.59-78.33-165.49-105.8C154.54,855.24,115.58,859.45,56.74,818L63.1,379.23h870Z"/><path class="cls-7" d="M920.81,1054.6c1.36-77,2.48-52.86,3.62-81.16v39c-.93,51.68-2.47,131-3.27,115.66C921.05,1123.16,920.33,1087.14,920.81,1054.6Z"/><path class="cls-7" d="M924.13,1143.14c0-7.25.21-8.45.25-15.67l.93,21Z"/><path class="cls-7" d="M924.49,916l.22-36.38c.21-8.43.23,12.23.39,11.07l.85-40.93C925,905.27,926.07,904.52,924.49,916Z"/><path class="cls-7" d="M935,436.44c.93-27.54.93,21.07,1.31,32.24-.29,23-1.17,43.27-1.51,24.87C935.12,463.27,934.89,451,935,436.44Z"/><path class="cls-7" d="M926.11,702.64c1,13.81-.43,93.44.68,85.45a142.65,142.65,0,0,0,1.3-16.53l-.2-40.16c1.37-100.39,1,41.76,2.57-25.67.09-14.56.13-21.84,0-28-.25-33-.61-23.38-1.33-4.22.74-95.77,3.38-59.31,3.85-111.47.29-71.56-1.94-27.55-2.43-44.82.31.14.65-3.76,1-10.84s.72-17.35,1.08-30,.74-27.59,1.09-44.06c.16-8.24.34-16.86.52-25.75.16-9.43.33-19.15.5-29.05l-50.14-.28-48.27-.14c-98.51.77-209.21-1-327.18.14L326.9,376.5c0-.09-.13-.18,0-.28a10.19,10.19,0,0,0-2.62.26c-48.62-1.31-162.13.6-173.82-1.46l-11.83.18c-59,.15,0-.74-33.91-1.16l-20.37,0L57.91,374c-.5,24.33-1,49.1-1.44,70.64-.33,20-.41,37,.09,47.6-.18,4.43-.19-1.43-.37,3l-.34,44.18c.37,2.94.75,11.83,1.3,4.5-.18,10.26.2,19.19-.16,33.86-.54,36.86-.93,4.41-1.48,17.64-.44,46.43-1,96.18-1.74,145.37-.42,24.62-.83,49.11-1.24,73l-.05,3.39,0,1.7,0,.85c0,.27-.11.62.23.72l5.5,3.72c2.49,1.68,5,3.39,7.44,5,5.11,3.09,10.08,6.33,15.31,9,5.11,2.93,10.42,5.37,15.62,7.86l7.93,3.39c2.63,1.11,5.31,2,7.94,3-.15.37,5.87,2.86,15.8,5.89,5,1.53,10.91,3.12,17.48,4.75s13.78,3.25,21.26,5c15,3.37,31,7.23,45.63,11.81a265.33,265.33,0,0,1,37,14.44,269.87,269.87,0,0,1,27.46,16c9,5.9,17.69,12.47,26.26,19.35s17,14.15,25.49,21.35,17.24,14.28,26.43,20.65c4.61,3.17,9.34,6.14,14.16,8.87s9.92,5.1,14.63,7.21l27.82,12.59c8.93,4.07,17.42,8.16,25.32,12.32a221.08,221.08,0,0,1,21.62,13.05c-3.92-2.55-8.39-5-13-7.71l-7.27-3.91c-2.48-1.31-5.06-2.56-7.63-3.87-10.35-5.13-21.31-10.13-31.45-14.76l-14.4-6.63-6.44-3c-2.08-1.05-4.1-2-5.89-3-7.25-3.82-12.06-6.93-13.8-7.76a164,164,0,0,0,15.63,9.77l3.56,1.81c1.21.6,2.37,1.13,3.59,1.72l7.42,3.53,15.75,7.37c10.76,5,21.85,10.26,32.1,15.71a266.88,266.88,0,0,1,27.38,16.73l5.59,4,4.92,3.82c1.53,1.22,3,2.28,4.35,3.4l3.63,3-2.74-2.61c-.86-.82-1.66-1.6-2.47-2.27l-4.18-3.66c-1.23-1.06-2.26-2.05-3.24-2.84l-2.57-2.12c-3-2.52-4.58-4-7.48-6.15,1.83,1.15,3.47,2.18,4.9,3.23l4,2.79c2.54,1.67,4.61,3.34,6.83,5l3.46,2.64c1.21,1,2.41,2,3.78,3.21l4.48,3.89c1.63,1.46,3.32,3.19,5.28,5.07a300.83,300.83,0,0,1,29.45,34.45l5.29,7.17,4.18,5.57c2.28,3.14,3.72,4.93,3.55,5.06-.74-.86-1.51-1.72-2.24-2.59l-2.15-2.67c-1.42-1.79-2.91-3.57-4.28-5.4s-2.78-3.65-4.16-5.48l-4.11-5.34c-2.74-3.5-5.33-7.07-8.14-10.3l-4.06-4.84-2-2.36-2.05-2.21c-2.29-1.86,6.22,7.47,15.63,20.14l3.66,4.81c1.25,1.69,2.52,3.39,3.79,5.09s2.56,3.39,3.87,5.06,2.57,3.32,3.87,4.91c2.64,3.16,5.09,6.19,7.56,8.78l1.74,1.91.83.91.85.83,3,3c-1.54-1.63-2.71-2.91-3.57-3.89a22.13,22.13,0,0,1-1.56-2.14c-.54-.88-.13-.72.8,0,.47.36,1,.88,1.73,1.45l2.32,1.87a60.89,60.89,0,0,0,4.85,3.8c2.94,2.07,4.4,2.91.62-.58l-1.66-1.53-2.05-2.1-2.58-2.62c-1-1-1.89-2.11-3-3.31-2.22-2.39-4.57-5.36-7.38-8.79s-5.8-7.47-9.17-12.11c5.08,6.67,10.38,13.25,16.12,19.5A100,100,0,0,0,561.77,1125c4.27,2.45,5.32,2.78,4,1.8-.34-.25-.82-.59-1.44-1s-1.39-.87-2.2-1.53l-2.81-2.12c-1-.78-2.2-1.61-3.33-2.64l-3.69-3.2c-1.25-1.17-2.51-2.47-3.86-3.78s-2.64-2.76-4-4.25-2.74-3-4-4.64c-5.44-6.39-10.7-13.71-15.85-20.6L517,1073l-7-8.64c-2.1-2.69-4.21-4.9-5.88-6.86s-3.07-3.53-4-4.68c-4.09-4.32-.7-2.35,13.86,13.92a25.76,25.76,0,0,0,4.19,3.76,47.06,47.06,0,0,1,3.83,4.26c2,2.45,5.18,6.2,9.66,12-1.15-1.65-2.44-3.5-3.9-5.49l-4.75-6.36c-3.26-4.51-7.23-9.09-11-13.66-.94-1.16-1.95-2.25-2.95-3.33l-3-3.19c-2-2.09-3.79-4.18-5.72-6-3.77-3.62-7-6.86-9.62-9-1-1-2.22-2.2-3.66-3.58-.73-.68-1.49-1.44-2.34-2.19l-2.73-2.31c-1.94-1.59-4-3.42-6.32-5.19l-7.46-5.56-8.43-5.64c-3-1.82-6-3.68-9.17-5.54s-6.38-3.58-9.63-5.29-6.54-3.42-9.81-5c-13.06-6.44-25.72-12.11-35.1-16.62-4.7-2.25-8.58-4.2-11.36-5.65a20.81,20.81,0,0,1-4.54-2.82,136.06,136.06,0,0,1-12.91-7.2c-2-1.23-4-2.6-5.94-3.88s-3.81-2.64-5.63-4c-7.33-5.42-14-11-20.3-16.41-12.63-10.89-24.09-21.15-36.11-30.48a274.23,274.23,0,0,0-38.74-25.55,240.55,240.55,0,0,0-22.77-10.8,255.71,255.71,0,0,0-26.12-9.23c-5.89-1.87-11.25-3.21-16-4.55-4.79-1.18-9-2.29-12.77-3.14-7.5-1.75-13-2.93-17-3.78-8-1.68-10-2-10-1.73.08.45,8.51,3-5.18.38-11.75-2.87-23.33-6-34.33-9.82-2.73-1-5.47-1.94-8.14-3L100.26,838c-2.58-1.13-5.08-2.36-7.59-3.51s-4.92-2.42-7.3-3.67l-3.55-1.87L80.06,828l-1.7-1-6.66-3.91c-2.22-1.24-4.26-2.67-6.32-4l-2.93-1.91-1.66-1.05c-.4-.11-.23-.52-.28-.81V805.11c0-4.25,0-8.23,0-11.92.35-26.51,1.27-42.7,1.28-25q2.2-96.68,4.07-194.1,1.73-94.25,3.43-188.62l204.64.32c81,1.19,156.2-.51,235.71,1.64l-13.23-.36c-1.9-.21,8.29-.3,16.33-.39l-38-1.18c23.62.15,47.47.28,70.9.25,26.06-1.44,134.46,0,167.77-1.44,130.65.49,75.84,1.12,207.64,1.75l3,0h1.22l1.11,0c0,.37,0,.75,0,1.12V392q0,6.48,0,13.08,0,13.21,0,26.86c-.06,18.18-.12,36.89-.17,55.95-.16,38.12-.42,77.62-.87,117.05-.34,30.26-1.27,57.88-1.54,52.87-.31,36.36-.75,88.42-1.08,126C922.51,944.35,925.43,763.15,926.11,702.64Z"/><path class="cls-7" d="M50.61,779.48c-.38-3-.79,5.5-1.18,16.36-.18,5.43-.37,11.46-.55,17l-.18,7.32,0,1.9c0,.07,0,.18,0,.22l.19.13.38.26.76.52,2.94,2,4.17,2.89,2.33,1.64,3.82,2.48,3.94,2.3,3.94,2.3c1.33.76,2.61,1.58,4,2.25,5.06,2.66,9.45,5.11,13.47,6.84l5.51,2.52c1.7.74,3.29,1.33,4.71,1.89,2.86,1.1,5.11,2,6.84,2.56s2.89.88,3.5,1c2.47.47-4-1.84-17-8.06-5-1.82-18.35-8.31-32.22-17.47l-6.67-4.46-2.36-1.58-.59-.4-.3-.2-.15-.1a.48.48,0,0,1,0-.17l0-1.42c0-1.91,0-3.81.08-5.71.06-4.3.13-8.59.19-12.77C50.34,793.4,50.49,785.75,50.61,779.48Z"/><path class="cls-7" d="M55.22,422.91l.74,5.9.58-56.23,8.76,0c-.67-.12-3.84-.22-9.08-.29-.09,4-.21,9.17-.35,15.16-.07,3.27-.15,7-.23,10.93C55.5,406.23,55.35,415,55.22,422.91Z"/><path class="cls-7" d="M703.29,1166.9c-25.48-4.32-42.95-9.21-60.62-14.34l-13.45-4-7-2.06-7.29-2.2-3.79-1.14-3.88-1.23c-2.63-.85-5.35-1.65-8.14-2.61s-5.67-1.9-8.64-3l-4.52-1.72-2.32-.88c-.78-.31-1.55-.66-2.33-1,.73.45,1.46.93,2.22,1.37l2.26,1.28,4.57,2.56c12.48,4.72,25.38,8.62,38.49,12.6l19.9,5.91q5.06,1.42,10.19,2.84l5.14,1.43,5.21,1.28c13.9,3.55,28.34,6.35,43.25,8.64a444,444,0,0,0,46.28,4.62c10.77,0,11.34-.27,6.47-.62l-4.6-.29c-1.82-.1-3.9-.3-6.17-.45l-7.33-.54-8-.78c-5.48-.46-11.1-1.27-16.31-1.9s-10-1.52-13.74-2.11C701.61,1167.28,698.13,1166.36,703.29,1166.9Z"/><path class="cls-7" d="M595.83,1136.09c11.13,3.67,22.7,6.93,34.44,10.2l17.73,4.92c3,.84,6,1.59,8.94,2.37l9,2.34L675,1158l4.53,1c1.51.33,3,.62,4.56.93l9.13,1.84c3.05.57,6.12,1.07,9.18,1.6,6.11,1.14,12.27,1.88,18.39,2.8l9.2,1.07,4.59.53,4.59.41a450.74,450.74,0,0,0,71.52,1c2.85-.22,5.69-.37,8.51-.65l8.37-.81,8.23-1c2.72-.31,5.4-.75,8.07-1.13,10.64-1.6,20.83-3.57,30.45-5.87-5.53.23-17.94,2.29-34.55,4.22-2.07.27-4.22.48-6.42.7s-4.46.49-6.78.7c-4.63.38-9.48.86-14.5,1.14s-10.22.58-15.54.84c-2.65.11-5.35.13-8.06.21l-4.09.1h-4.12c-11,.13-22.38-.35-33.62-1-5.61-.47-11.23-.77-16.74-1.42l-8.23-.87-8.06-1.08a401.57,401.57,0,0,1-55-11.33l-7-1.76-6.73-1.81L632.09,1145c-4.13-1.14-8.2-2.22-12.22-3.39s-8.07-2.27-12.13-3.53l-6.18-1.88-6.27-2.08c-2.14-.67-4.26-1.48-6.43-2.29s-4.41-1.6-6.61-2.59a97,97,0,0,1-27.41-16.62l-4.16-3.8c-1.15-1-1.95-1.92-2.6-2.53-1.28-1.25-1.71-1.6-1.47-1.24s1.15,1.44,2.57,3.06c.7.81,1.61,1.65,2.6,2.65l1.56,1.56c.55.54,1.11,1.13,1.75,1.65a87.61,87.61,0,0,0,19.46,13.26A171.79,171.79,0,0,0,595.83,1136.09Z"/><path class="cls-7" d="M898.82,1155.57c4.93-1.36,10.2-3,14.88-4.56s8.81-3.19,11.43-4.31c1.66-.78,1.8-.92.94-.64l-5,1.74c-4.65,1.6-11.28,3.63-15.51,4.74l-17.73,5.21c-2,.62-2.86.91-1.38.7S891.72,1157.43,898.82,1155.57Z"/><path class="cls-8" d="M935,1118.29s-118.1,60.06-275.62,16c-82.54-23.08-81.24-29-114.18-73.09-48.5-64.94-107-82-165.88-109.8-51.79-24.43-45.95-66.5-164.13-98.28-80.76-21.72-100.84-16.29-149.94-63L72.1,359.23h870Z"/><path class="cls-9" d="M949.08,1079.5s-118.21,71.94-275.73,27.91c-82.54-23.08-81.24-29-114.19-73.09C510.67,969.38,473.7,961.83,414.8,934c-51.8-24.43-55.21-79.4-158.59-104-66.9-15.89-125-30.44-174.13-77.16l4-420.59h870Z"/><path class="cls-10" d="M792,311.47,616.57,251.22l-43.19,19.94-13.85-6.6-51.41,29S478.16,313.24,444,308s-39.62-3.94-46.29-2.41-17-4.85-17-4.85l-94-64.67-9.1,6.86-42.46-27.76L101.09,271.78v71H821.65V293.57Z"/><path class="cls-11" d="M693.63,309.15C706.22,273.86,718.28,240,731,204.38l16.44,44.25c23.31-49.28,46.22-97.7,69.9-147.74,16.56,34,32.65,67,49.95,102.45l27.35-60.46c28.15,74,53.86,141.65,80.41,211.48H647.71c10.85-24.86,21-48.11,32.73-75C685,289.7,689.1,298.9,693.63,309.15Zm118.84.94q2.31,7.86,8.11,27.56c4.5-11.35,8-20.09,12.34-31.16,4.06,24.64,11.64,29.16,21.8,23.86,1.47-.76,3.18-1.61,4.56-.91,10.21,5.18,13.85-6.78,16.69-21.41,2.58-13.31,5.33-26.51,8.13-40.41L895,278V171.65c-9.85,19.31-19.32,38.62-29.23,57.11-7.76,14.47-16.21,27.66-24.07,42-3.95,7.2-6.67,17.16-11,23C825.65,300.46,819.46,304,812.47,310.09Zm-54.63,12.54c1.42-.19,2.29.2,2.67-.43,16.7-27.15,34.14-52.94,49.78-82.07,13.19-24.58,13-26.38,25.62-2.61.32.59,1.09.32,2.16.58,1.34-10.68,2.69-21.45,4.77-38.06,4.49,10.56,7.22,17,10.27,24.13l7.37-14.4-43-87.49c-2.29,29.5-4.28,55.21-6.42,82.76l-14.25-17.8C783.78,232.57,771,276.88,757.84,322.63ZM698.4,326.4c15.51,8.77,29.91-1.94,31.57-24.62,1.46-19.86.31-40.39.31-65.56C718.76,268.81,708.82,296.91,698.4,326.4Z"/><path class="cls-12" d="M812.47,310.09c7-6.07,13.18-9.63,18.15-16.32,4.37-5.89,7.09-15.85,11-23,7.86-14.3,16.31-27.49,24.07-42,9.91-18.49,19.38-37.8,29.23-57.11V278l-10.86-10.4c-2.8,13.9-5.55,27.1-8.13,40.41-2.84,14.63-6.48,26.59-16.69,21.41-1.38-.7-3.09.15-4.56.91-10.16,5.3-17.74.78-21.8-23.86-4.38,11.07-7.84,19.81-12.34,31.16Q814.79,318,812.47,310.09Z"/><path class="cls-12" d="M757.84,322.63c13.18-45.75,25.94-90.06,39-135.39L811.08,205c2.14-27.55,4.13-53.26,6.42-82.76l43,87.49-7.37,14.4c-3.05-7.17-5.78-13.57-10.27-24.13-2.08,16.61-3.43,27.38-4.77,38.06-1.07-.26-1.84,0-2.16-.58-12.58-23.77-12.43-22-25.62,2.61-15.64,29.13-33.08,54.92-49.78,82.07C760.13,322.83,759.26,322.44,757.84,322.63Z"/><path class="cls-12" d="M698.4,326.4c10.42-29.49,20.36-57.59,31.88-90.18,0,25.17,1.15,45.7-.31,65.56C728.31,324.46,713.91,335.17,698.4,326.4Z"/><path class="cls-11" d="M60.53,282.84s61.77-56.31,158.34-30.31S342.51,320.12,404,318.82s172.46,7.86,212,0,100.85,14.36,131.17,8.47,110-47.21,160-34.21,44.28,37,44.28,37l4.65,51.36L880.6,361.63,780.08,387.5,652.45,373.08l-111.29,8.26L471.65,369.8l-144.32,8.07L50.68,351.24Z"/><path class="cls-11" d="M45.92,323l37.36-72.73C89,260.84,94.1,270.46,99.71,281l69.91-102.57,49.94,71.13,27.36-42c28.14,51.38,53.86,121.84,80.41,170.32C290.06,381.36,227,384.26,227,384.26l-26.27,22.38L128,416.5,86.08,466S21.85,380,0,354.36l32.73-52.07Zm118.84.66,8.11,19.13c4.49-7.88,7.95-13.95,12.34-21.63,4.06,17.1,11.63,20.24,21.8,16.56,1.46-.53,3.18-1.12,4.56-.63,10.2,3.59,13.85-4.71,16.68-14.86,2.59-9.24,5.33-18.41,8.14-28.06l10.85,7.22V227.51c-9.84,13.41-19.31,26.82-29.22,39.65-7.76,10-16.21,19.21-24.07,29.14-3.95,5-6.67,11.9-11,16C177.94,316.94,171.74,319.41,164.76,323.63Zm-54.63,8.7c1.42-.13,2.28.14,2.67-.3,16.7-18.85,34.13-36.75,49.77-57,13.2-17.06,13-18.32,25.63-1.82.31.41,1.09.23,2.16.41,1.34-7.42,2.68-14.89,4.77-26.43L205.39,264l7.38-10-43-60.74c-2.29,20.48-4.29,38.33-6.42,57.45l-14.25-12.35C136.07,269.81,123.31,300.57,110.13,332.33ZM50.68,335C66.2,341,80.59,333.6,82.26,317.86c1.46-13.79.3-28,.3-45.52Z"/><path class="cls-12" d="M164.76,323.63c7-4.22,13.18-6.69,18.15-11.34,4.37-4.09,7.09-11,11-16,7.86-9.93,16.31-19.09,24.07-29.14,9.91-12.83,19.38-26.24,29.22-39.65v73.85l-10.85-7.22c-2.81,9.65-5.55,18.82-8.14,28.06-2.83,10.15-6.48,18.45-16.68,14.86-1.38-.49-3.1.1-4.56.63-10.17,3.68-17.74.54-21.8-16.56-4.39,7.68-7.85,13.75-12.34,21.63Z"/><path class="cls-12" d="M110.13,332.33c13.18-31.76,25.94-62.52,39-94l14.25,12.35c2.13-19.12,4.13-37,6.42-57.45l43,60.74-7.38,10-10.26-16.76c-2.09,11.54-3.43,19-4.77,26.43-1.07-.18-1.85,0-2.16-.41-12.59-16.5-12.43-15.24-25.63,1.82-15.64,20.22-33.07,38.12-49.77,57C112.41,332.47,111.55,332.2,110.13,332.33Z"/><path class="cls-12" d="M50.68,335l31.88-62.61c0,17.48,1.16,31.73-.3,45.52C80.59,333.6,66.2,341,50.68,335Z"/><path class="cls-13" d="M279.27,224.81S235,215,197.58,219.18s-63.31,6.1-74.2,5.63-44.24-4.08-57.86.07,85.09,4.63,85.09,4.63S298.33,232.33,279.27,224.81Z"/><path class="cls-13" d="M147.75,240.26s22.12-4.93,40.84-2.82,31.66,3.06,37.1,2.82,22.13-2,28.93,0-42.54,2.31-42.54,2.31S138.22,244,147.75,240.26Z"/><path class="cls-13" d="M976.32,148.52s-44.25-9.86-81.69-5.64-63.31,6.11-74.2,5.64-44.25-4.09-57.86.07,85.09,4.63,85.09,4.63S995.38,156,976.32,148.52Z"/><path class="cls-13" d="M842.78,127.06s22.12-4.93,40.84-2.82,31.66,3.06,37.1,2.82,22.13-2,28.93,0-42.54,2.31-42.54,2.31S833.25,130.82,842.78,127.06Z"/><path class="cls-14" d="M395.76,657.92s23.12,43,23.67,58.52-10,26.59-36.12,18.12c-27.18-8.8,12.45-76.64,12.45-76.64"/><path class="cls-15" d="M386.29,672.82S414,704.7,417.51,717.57,414.39,741.5,390.9,739c-24.41-2.64-4.61-66.15-4.61-66.15"/><polygon class="cls-16" points="387.58 720.67 395.92 726.28 395.92 713.56 393.25 711.53 387.13 713.88 386.62 712.55 391.91 710.52 387.7 707.32 388.56 706.19 395.92 711.77 395.92 697.44 397.91 697.44 397.91 704.42 402.43 700.88 403.3 702 397.91 706.23 397.91 720.45 402.25 718.17 402.89 711.84 404.31 711.99 403.76 717.37 408.36 714.96 409.02 716.22 397.91 722.06 397.91 732.31 405.32 728.41 405.98 729.67 397.91 733.92 397.91 750.75 395.92 750.75 395.92 727.99 386.78 721.85 387.58 720.67"/><path class="cls-14" d="M471.56,652.19s-26.44,49.15-27.07,66.91,11.42,30.41,41.31,20.73c31.08-10.07-14.24-87.64-14.24-87.64"/><path class="cls-15" d="M482.39,669.23s-31.7,36.45-35.7,51.17,3.57,27.37,30.42,24.47c27.92-3,5.28-75.64,5.28-75.64"/><polygon class="cls-16" points="480.92 723.94 471.37 730.36 471.37 715.81 474.43 713.49 481.42 716.18 482 714.66 475.95 712.34 480.77 708.68 479.79 707.38 471.37 713.77 471.37 697.38 469.1 697.38 469.1 705.36 463.94 701.31 462.93 702.6 469.1 707.43 469.1 723.7 464.13 721.08 463.4 713.85 461.78 714.01 462.4 720.17 457.15 717.41 456.39 718.85 469.1 725.54 469.1 737.25 460.63 732.8 459.87 734.24 469.1 739.09 469.1 758.35 471.37 758.35 471.37 732.32 481.82 725.29 480.92 723.94"/><path class="cls-14" d="M432.36,622.33S394.86,692,394,717.23s16.19,43.13,58.58,29.4c44.08-14.28-20.19-124.3-20.19-124.3"/><path class="cls-15" d="M447.72,646.49s-45,51.7-50.64,72.59,5.07,38.81,43.15,34.7c39.6-4.28,7.49-107.29,7.49-107.29"/><polygon class="cls-16" points="445.63 724.1 432.09 733.19 432.09 712.57 436.43 709.27 446.34 713.09 447.17 710.94 438.59 707.63 445.42 702.45 444.03 700.61 432.09 709.67 432.09 686.43 428.87 686.43 428.87 697.74 421.54 692 420.12 693.82 428.87 700.68 428.87 723.75 421.82 720.04 420.79 709.78 418.49 710.01 419.37 718.75 411.92 714.83 410.84 716.88 428.87 726.36 428.87 742.98 416.85 736.66 415.78 738.7 428.87 745.59 428.87 772.89 432.09 772.89 432.09 735.97 446.91 726.01 445.63 724.1"/><path class="cls-14" d="M829.83,805.23S857.68,857,858.34,875.7s-12,32-43.5,21.82c-32.73-10.6,15-92.29,15-92.29"/><path class="cls-15" d="M818.43,823.17s33.38,38.39,37.6,53.9-3.76,28.82-32,25.76c-29.41-3.18-5.56-79.66-5.56-79.66"/><polygon class="cls-16" points="819.98 880.79 830.03 887.55 830.03 872.23 826.81 869.79 819.45 872.62 818.84 871.02 825.21 868.57 820.13 864.72 821.17 863.36 830.03 870.08 830.03 852.82 832.43 852.82 832.43 861.23 837.86 856.96 838.92 858.31 832.43 863.4 832.43 880.53 837.66 877.78 838.42 870.16 840.13 870.34 839.48 876.83 845.01 873.91 845.81 875.43 832.43 882.47 832.43 894.81 841.35 890.12 842.15 891.64 832.43 896.75 832.43 917.02 830.03 917.02 830.03 889.61 819.03 882.22 819.98 880.79"/><path class="cls-14" d="M921.12,798.33s-31.84,59.18-32.59,80.58,13.74,36.61,49.73,25c37.43-12.13-17.14-105.54-17.14-105.54"/><path class="cls-15" d="M934.16,818.85s-38.17,43.89-43,61.62,4.31,33,36.64,29.46c33.62-3.63,6.36-91.08,6.36-91.08"/><polygon class="cls-16" points="932.38 884.73 920.89 892.46 920.89 874.95 924.58 872.15 932.99 875.39 933.7 873.56 926.41 870.76 932.21 866.36 931.03 864.8 920.89 872.49 920.89 852.75 918.15 852.75 918.15 862.36 911.94 857.49 910.73 859.03 918.15 864.85 918.15 884.44 912.17 881.29 911.3 872.58 909.35 872.78 910.09 880.2 903.76 876.87 902.85 878.6 918.15 886.65 918.15 900.77 907.95 895.4 907.04 897.14 918.15 902.98 918.15 926.16 920.89 926.16 920.89 894.82 933.48 886.36 932.38 884.73"/><path class="cls-14" d="M873.91,762.37s-45.15,83.94-46.23,114.29,19.5,51.93,70.54,35.39c53.09-17.19-24.31-149.68-24.31-149.68"/><path class="cls-15" d="M892.41,791.47s-54.14,62.26-61,87.41,6.11,46.73,52,41.78c47.69-5.15,9-129.19,9-129.19"/><polygon class="cls-16" points="889.89 884.92 873.58 895.87 873.58 871.04 878.81 867.07 890.75 871.67 891.75 869.08 881.42 865.1 889.64 858.86 887.96 856.64 873.58 867.55 873.58 839.56 869.7 839.56 869.7 853.19 860.89 846.27 859.17 848.46 869.7 856.72 869.7 884.5 861.22 880.04 859.98 867.68 857.21 867.96 858.27 878.49 849.29 873.76 848 876.23 869.7 887.64 869.7 907.66 855.24 900.05 853.94 902.51 869.7 910.8 869.7 943.68 873.58 943.68 873.58 899.22 891.44 887.23 889.89 884.92"/><polygon class="cls-11" points="347.04 312.33 341.02 301.63 343.84 301.41 339.32 294.42 342.15 294.2 336.13 286.34 338.76 286.13 332.93 276.08 332.87 276.33 332.86 276.01 327.03 286.05 329.67 286.27 323.65 294.13 326.47 294.35 321.95 301.33 324.78 301.55 318.76 312.25 323.7 312.19 323.7 312.21 347.04 312.33"/><rect class="cls-11" x="331.82" y="309.79" width="2.16" height="10.78"/><polygon class="cls-11" points="356.55 315.23 350.53 304.53 353.35 304.31 348.84 297.32 351.66 297.11 345.64 289.25 348.27 289.03 342.44 278.98 342.38 279.23 342.38 278.91 336.55 288.95 339.18 289.17 333.16 297.03 335.98 297.25 331.47 304.24 334.29 304.45 328.27 315.15 333.21 315.09 333.21 315.11 356.55 315.23"/><rect class="cls-11" x="341.33" y="312.59" width="2.16" height="7.91"/><polygon class="cls-11" points="297.4 278.04 293.9 271.82 295.55 271.69 292.92 267.63 294.56 267.51 291.06 262.94 292.59 262.81 289.2 256.98 289.17 257.12 289.17 256.93 285.78 262.77 287.31 262.9 283.81 267.46 285.45 267.59 282.83 271.65 284.47 271.78 280.97 278 283.84 277.96 283.84 277.97 297.4 278.04"/><rect class="cls-11" x="288.56" y="276.57" width="1.25" height="6.27"/><polygon class="cls-11" points="302.93 279.73 299.43 273.51 301.07 273.38 298.45 269.32 300.09 269.19 296.59 264.63 298.12 264.5 294.73 258.66 294.7 258.81 294.69 258.62 291.31 264.45 292.84 264.58 289.34 269.15 290.98 269.28 288.36 273.34 290 273.46 286.5 279.68 289.37 279.65 289.37 279.66 302.93 279.73"/><rect class="cls-11" x="294.09" y="278.19" width="1.25" height="4.6"/><rect class="cls-17" x="148.66" y="402.62" width="3.42" height="17.09"/><polygon class="cls-17" points="187.84 411.23 178.31 394.28 182.78 393.94 175.63 382.87 180.09 382.52 170.56 370.07 174.73 369.72 165.49 353.81 165.39 354.21 165.39 353.69 156.15 369.61 160.32 369.95 150.79 382.4 155.26 382.75 148.11 393.82 152.58 394.17 143.04 411.12 150.88 411.01 150.87 411.04 187.84 411.23"/><rect class="cls-17" x="163.73" y="407.06" width="3.42" height="12.53"/><polygon class="cls-17" points="172.77 406.64 163.24 389.69 167.71 389.34 160.56 378.27 165.03 377.93 155.49 365.47 159.66 365.13 150.42 349.21 150.32 349.61 150.32 349.1 141.08 365.01 145.25 365.36 135.72 377.81 140.19 378.15 133.04 389.22 137.51 389.57 127.97 406.52 135.81 406.42 135.8 406.45 172.77 406.64"/><polygon class="cls-17" points="843.47 370.05 835.16 355.27 839.06 354.97 832.82 345.32 836.72 345.02 828.41 334.17 832.04 333.87 823.99 319.99 823.9 320.34 823.9 319.89 815.85 333.76 819.48 334.06 811.17 344.92 815.07 345.22 808.83 354.87 812.73 355.17 804.42 369.95 811.25 369.86 811.24 369.89 843.47 370.05"/><rect class="cls-17" x="822.45" y="366.55" width="2.98" height="14.89"/><polygon class="cls-17" points="856.61 374.06 848.3 359.28 852.19 358.98 845.96 349.33 849.86 349.03 841.54 338.17 845.18 337.87 837.13 324 837.04 324.35 837.03 323.9 828.98 337.77 832.62 338.07 824.31 348.93 828.2 349.23 821.97 358.88 825.87 359.18 817.55 373.95 824.38 373.87 824.38 373.89 856.61 374.06"/><rect class="cls-17" x="835.59" y="370.42" width="2.98" height="10.92"/><polygon class="cls-17" points="889.97 402.94 880.07 385.35 884.71 384.99 877.29 373.5 881.93 373.14 872.03 360.22 876.36 359.86 866.77 343.34 866.67 343.75 866.66 343.22 857.08 359.73 861.41 360.09 851.51 373.02 856.15 373.38 848.73 384.86 853.37 385.22 843.47 402.81 851.6 402.71 851.59 402.74 889.97 402.94"/><rect class="cls-17" x="864.95" y="398.77" width="3.55" height="17.73"/><polygon class="cls-17" points="905.61 407.71 895.71 390.12 900.35 389.76 892.93 378.27 897.57 377.91 887.67 364.99 892 364.63 882.41 348.11 882.31 348.53 882.3 347.99 872.72 364.5 877.05 364.86 867.15 377.79 871.79 378.15 864.37 389.63 869.01 389.99 859.11 407.58 867.24 407.48 867.23 407.51 905.61 407.71"/><rect class="cls-17" x="880.59" y="403.37" width="3.55" height="13"/><polygon class="cls-17" points="319.53 369.8 308.88 350.87 313.87 350.49 305.89 338.13 310.88 337.74 300.23 323.84 304.89 323.45 294.58 305.68 294.46 306.13 294.46 305.55 284.15 323.32 288.8 323.7 278.16 337.61 283.15 338 275.16 350.36 280.15 350.74 269.51 369.67 278.25 369.55 278.25 369.59 319.53 369.8"/><rect class="cls-17" x="292.61" y="365.31" width="3.82" height="19.08"/><polygon class="cls-17" points="336.36 374.93 325.71 356.01 330.7 355.62 322.72 343.26 327.71 342.87 317.06 328.97 321.72 328.58 311.4 310.82 311.29 311.26 311.29 310.69 300.97 328.45 305.63 328.84 294.99 342.74 299.98 343.13 291.99 355.49 296.98 355.87 286.33 374.8 295.08 374.68 295.07 374.72 336.36 374.93"/><rect class="cls-17" x="309.44" y="370.27" width="3.82" height="13.99"/><polygon class="cls-17" points="268.44 418.59 256.28 401.5 261.83 401.04 252.74 389.9 258.29 389.44 246.21 376.94 251.39 376.49 239.62 360.45 239.5 360.86 239.49 360.33 228.3 376.79 233.49 377.05 221.87 389.98 227.43 390.23 218.74 401.7 224.31 401.95 212.77 419.47 222.5 419.19 222.49 419.23 268.44 418.59"/><rect class="cls-17" x="238.52" y="414.83" width="4.25" height="12.8" transform="translate(-7.53 4.39) rotate(-1.03)"/><polygon class="cls-11" points="657.11 315.81 654.33 310.48 655.59 310.35 653.51 306.87 654.77 306.74 652.02 302.84 653.19 302.71 650.5 297.7 650.48 297.83 650.47 297.67 647.97 302.76 649.14 302.85 646.53 306.85 647.79 306.94 645.85 310.49 647.11 310.57 644.52 316 646.72 315.93 646.72 315.94 657.11 315.81"/><rect class="cls-11" x="650.35" y="314.6" width="0.96" height="3.98" transform="translate(-5.58 11.74) rotate(-1.03)"/><polygon class="cls-11" points="281.03 270.48 278.25 265.14 279.51 265.01 277.44 261.54 278.69 261.4 275.94 257.5 277.11 257.37 274.42 252.36 274.4 252.49 274.39 252.33 271.89 257.42 273.06 257.51 270.46 261.51 271.71 261.6 269.77 265.15 271.03 265.24 268.44 270.66 270.64 270.59 270.64 270.6 281.03 270.48"/><rect class="cls-11" x="274.27" y="269.26" width="0.96" height="3.98" transform="translate(-4.83 4.98) rotate(-1.03)"/><polygon class="cls-11" points="666.88 316.38 664.11 311.05 665.36 310.92 663.29 307.44 664.54 307.31 661.79 303.4 662.97 303.27 660.28 298.27 660.25 298.39 660.25 298.23 657.75 303.33 658.92 303.42 656.31 307.42 657.57 307.5 655.62 311.05 656.88 311.14 654.3 316.57 656.5 316.5 656.5 316.5 666.88 316.38"/><rect class="cls-11" x="660.12" y="315.17" width="0.96" height="3.98" transform="translate(-5.59 11.92) rotate(-1.03)"/><polygon class="cls-10" points="661.79 266.7 659.37 262.05 660.46 261.94 658.66 258.91 659.75 258.79 657.36 255.39 658.37 255.28 656.03 250.91 656.01 251.03 656.01 250.88 653.83 255.32 654.85 255.4 652.58 258.89 653.67 258.96 651.98 262.06 653.07 262.13 650.82 266.87 652.74 266.8 652.74 266.81 661.79 266.7"/><rect class="cls-10" x="655.9" y="265.64" width="0.84" height="3.47" transform="translate(-4.7 11.83) rotate(-1.03)"/><polygon class="cls-10" points="672.37 270.47 669.95 265.82 671.04 265.7 669.24 262.67 670.33 262.56 667.93 259.16 668.95 259.04 666.61 254.68 666.59 254.79 666.59 254.65 664.4 259.09 665.43 259.17 663.15 262.65 664.25 262.73 662.55 265.82 663.65 265.9 661.4 270.63 663.32 270.57 663.32 270.58 672.37 270.47"/><rect class="cls-10" x="666.48" y="269.41" width="0.84" height="3.47" transform="translate(-4.76 12.02) rotate(-1.03)"/><polygon class="cls-10" points="678.66 275.93 676.24 271.29 677.34 271.17 675.53 268.14 676.62 268.03 674.23 264.62 675.25 264.51 672.9 260.15 672.88 260.26 672.88 260.12 670.7 264.56 671.72 264.63 669.45 268.12 670.54 268.2 668.85 271.29 669.94 271.37 667.69 276.1 669.61 276.04 669.61 276.04 678.66 275.93"/><rect class="cls-10" x="672.77" y="274.88" width="0.84" height="3.47" transform="translate(-4.86 12.14) rotate(-1.03)"/><polygon class="cls-10" points="412.1 309.89 409.69 305.27 410.78 305.16 408.99 302.15 410.07 302.03 407.69 298.65 408.7 298.53 406.38 294.2 406.35 294.31 406.35 294.17 404.18 298.58 405.2 298.66 402.94 302.13 404.03 302.2 402.34 305.28 403.43 305.35 401.19 310.06 403.1 310 403.1 310 412.1 309.89"/><rect class="cls-10" x="406.24" y="308.84" width="0.83" height="3.45" transform="translate(-5.51 7.35) rotate(-1.03)"/><polygon class="cls-10" points="420.15 304.9 417.74 300.28 418.83 300.17 417.03 297.15 418.12 297.04 415.74 293.66 416.75 293.54 414.42 289.21 414.4 289.32 414.4 289.18 412.23 293.59 413.25 293.67 410.99 297.14 412.08 297.21 410.39 300.29 411.48 300.36 409.24 305.07 411.15 305 411.15 305.01 420.15 304.9"/><rect class="cls-10" x="414.29" y="303.85" width="0.83" height="3.45" transform="translate(-5.42 7.5) rotate(-1.03)"/><polygon class="cls-11" points="676.73 305.26 674.56 301.09 675.54 300.99 673.92 298.27 674.9 298.17 672.75 295.12 673.66 295.02 671.57 291.11 671.55 291.21 671.54 291.08 669.59 295.06 670.5 295.13 668.47 298.25 669.45 298.32 667.93 301.1 668.91 301.16 666.89 305.4 668.61 305.35 668.61 305.36 676.73 305.26"/><rect class="cls-11" x="671.45" y="304.31" width="0.75" height="3.11" transform="translate(-5.39 12.12) rotate(-1.03)"/><polygon class="cls-17" points="286.27 411.09 273.99 387.09 279.53 386.49 270.36 370.84 275.91 370.24 263.74 352.66 268.92 352.07 257.03 329.55 256.91 330.12 256.89 329.38 245.82 352.32 251.02 352.72 239.49 370.73 245.05 371.12 236.45 387.1 242.01 387.49 230.59 411.93 240.33 411.6 240.32 411.65 286.27 411.09"/><rect class="cls-17" x="256.37" y="405.62" width="4.25" height="17.91" transform="translate(-7.4 4.71) rotate(-1.03)"/><path class="cls-17" d="M186,517.36H182.7l-1.82-1.82-7,4.85-6.68,12.29-2,1.06-5.16,9.86-5.46,10.77,4.1,15.92s19.72,9.26,20.17,9.41,18.64-2.3,18.64-2.3l15.18-10-4.85-20.32-1.36-14.72-10.62-7.73-2-2.88Z"/><path class="cls-10" d="M183.76,526c.46,0,12.14-1.37,12.14-1.37L198,526l-5.61,1.51-4.7,7L183,545.57Z"/><polygon class="cls-17" points="193.17 521.15 186.95 522.06 181.94 523.12 189.68 523.12 195.14 523.43 194.38 521.84 193.17 521.15"/><path class="cls-17" d="M204.32,533.13l2.2-.76,1.36,14.72L213,567.41l-15.41,10,.17-3,8.8-6.52,1.13-3.49L204,553.61A15.3,15.3,0,0,1,203,556c0-.38-.6-8.27-.6-8.27Z"/><polygon class="cls-17" points="212.96 567.41 207.65 564.38 206.51 567.87 212.96 567.41"/><polygon class="cls-17" points="197.47 577.48 197.23 574.23 206.52 567.87 212.96 567.41 197.47 577.48"/><polygon class="cls-17" points="178.91 579.7 174.26 572.41 160.63 566.07 154.64 554.37 158.74 570.29 178.91 579.7"/><polygon class="cls-17" points="174.26 572.41 197.23 574.23 197.47 577.48 178.91 579.7 174.26 572.41"/><path class="cls-17" d="M115.73,579.28c1.31,0,55.47,1.31,55.47,1.31l-19.65-17-62-26.2-1.75,7.42Z"/><polygon class="cls-17" points="180.81 557.88 188.23 581.03 171.2 580.59 151.54 563.56 180.81 557.88"/><polygon class="cls-17" points="189.98 547.84 192.6 566.62 188.23 581.03 180.81 557.88 189.98 547.84"/><polygon class="cls-10" points="89.53 537.36 151.54 563.56 179.5 560.07 189.98 547.84 178.8 538.19 166.4 530.37 154.17 519.89 144.56 519.01 95.64 532.99 89.53 537.36"/><polygon class="cls-17" points="161.3 525.74 133.84 530.37 164.47 530.37 166.4 530.37 161.3 525.74"/><polygon class="cls-17" points="154.17 519.89 137.76 525.18 133.84 530.37 161.3 525.74 154.17 519.89"/><path class="cls-14" d="M189.82,509.5s18.62,34.62,19.06,47.13-8,21.42-29.09,14.6c-21.89-7.09,10-61.73,10-61.73"/><path class="cls-15" d="M182.19,521.5s22.33,25.67,25.15,36-2.52,19.27-21.43,17.23c-19.67-2.13-3.72-53.28-3.72-53.28"/><polygon class="cls-16" points="183.23 560.04 189.96 564.55 189.96 554.31 187.8 552.68 182.88 554.57 182.46 553.5 186.72 551.86 183.33 549.29 184.02 548.38 189.96 552.87 189.96 541.33 191.55 541.33 191.55 546.95 195.19 544.1 195.9 545 191.55 548.41 191.55 559.87 195.05 558.02 195.56 552.93 196.71 553.04 196.27 557.38 199.97 555.44 200.5 556.45 191.55 561.16 191.55 569.41 197.52 566.28 198.06 567.29 191.55 570.71 191.55 584.27 189.96 584.27 189.96 565.94 182.59 560.99 183.23 560.04"/><path class="cls-14" d="M250.87,504.88s-21.29,39.59-21.8,53.9,9.2,24.49,33.27,16.69c25-8.11-11.47-70.59-11.47-70.59"/><path class="cls-15" d="M259.59,518.61S234.06,548,230.84,559.82s2.88,22,24.5,19.71c22.49-2.43,4.25-60.92,4.25-60.92"/><polygon class="cls-16" points="258.41 562.67 250.72 567.84 250.72 556.13 253.18 554.26 258.81 556.43 259.28 555.2 254.41 553.33 258.29 550.38 257.5 549.34 250.72 554.48 250.72 541.28 248.89 541.28 248.89 547.71 244.73 544.45 243.92 545.48 248.89 549.38 248.89 562.48 244.89 560.37 244.3 554.55 243 554.68 243.5 559.64 239.26 557.41 238.65 558.57 248.89 563.96 248.89 573.4 242.07 569.81 241.46 570.97 248.89 574.88 248.89 590.38 250.72 590.38 250.72 569.42 259.14 563.76 258.41 562.67"/><path class="cls-14" d="M219.3,480.83S189.1,537,188.38,557.27s13,34.73,47.18,23.68c35.5-11.5-16.26-100.12-16.26-100.12"/><path class="cls-15" d="M231.67,500.3s-36.21,41.64-40.79,58.46S195,590,225.64,586.7c31.89-3.44,6-86.4,6-86.4"/><polygon class="cls-16" points="229.98 562.8 219.08 570.12 219.08 553.51 222.58 550.86 230.56 553.94 231.23 552.2 224.32 549.54 229.82 545.37 228.7 543.88 219.08 551.18 219.08 532.46 216.49 532.46 216.49 541.57 210.59 536.95 209.44 538.41 216.49 543.94 216.49 562.52 210.81 559.53 209.98 551.27 208.13 551.46 208.84 558.5 202.84 555.34 201.97 556.98 216.49 564.62 216.49 578.01 206.81 572.91 205.94 574.56 216.49 580.11 216.49 602.1 219.08 602.1 219.08 572.36 231.02 564.34 229.98 562.8"/><polygon class="cls-17" points="517.71 800.98 478.75 805.94 443.64 800 428.01 789.5 414.09 769.24 413.07 764.84 509.11 779.3 521.68 780.14 524.9 795.23 517.71 800.98"/><path class="cls-10" d="M520.42,784.09c-1.3-.21-21.17,3.43-21.17,3.43l-26-1s-30.83-4.71-31.84-5.27-28.32-16.45-28.32-16.45l9.26-4,35.07,1.78,55.23,12.85,9,4.67Z"/><polygon class="cls-18" points="413.07 764.84 454.86 766.68 457.4 762.62 422.33 760.84 413.07 764.84"/><polygon class="cls-17" points="454.86 766.68 498.3 787.6 520.42 784.09 521.68 780.14 512.63 775.47 457.4 762.62 454.86 766.68"/><polygon class="cls-19" points="478.75 805.94 471.93 786.35 499.25 787.52 520.42 784.09 521.68 780.14 524.9 795.23 517.71 800.98 478.75 805.94"/><polygon class="cls-19" points="443.49 800.01 441.39 781.29 413.07 764.84 413.35 768.02 427.05 789.58 443.49 800.01"/><polygon class="cls-17" points="451.6 803.15 441.69 792.16 434.79 790.19 428.6 792.65 423.52 796.93 424.91 798.09 426.7 804.02 434.12 804.66 444.91 807.25 451.6 803.15"/><polygon class="cls-10" points="438.78 796.49 424.91 798.09 423.52 796.93 428.6 792.65 431.15 791.63 442.56 793.04 438.78 796.49"/><polygon class="cls-19" points="426.7 804.02 424.71 803.23 423.52 796.93 424.91 798.09 426.7 804.02"/><polygon class="cls-19" points="438.78 796.49 444.91 807.25 451.6 803.15 442.56 793.04 438.78 796.49"/><path class="cls-19" d="M480.08,753.15h3.05l1.66-1.67,6.38,4.44,6.09,11.22,1.8,1,4.72,9,5,9.84L505,801.5s-18,8.45-18.43,8.59-17-2.1-17-2.1l-13.87-9.12,4.43-18.57,1.25-13.44,9.7-7.06,1.8-2.64Z"/><path class="cls-10" d="M482.16,761c-.42,0-11.08-1.24-11.08-1.24L469.14,761l5.12,1.39,4.3,6.37,4.29,10.11Z"/><polygon class="cls-18" points="473.57 756.61 479.25 757.44 483.82 758.41 476.76 758.41 471.77 758.69 472.46 757.23 473.57 756.61"/><path class="cls-10" d="M463.39,767.56l-2-.7-1.25,13.44-4.64,18.57L469.57,808l-.16-2.75-8-6-1-3.18,3.32-9.84a14.26,14.26,0,0,0,1,2.22c0-.35.56-7.56.56-7.56Z"/><polygon class="cls-10" points="455.49 798.87 460.34 796.1 461.38 799.28 455.49 798.87"/><polygon class="cls-19" points="469.64 808.07 469.86 805.1 461.38 799.28 455.49 798.87 469.64 808.07"/><polygon class="cls-20" points="486.59 810.09 490.85 803.43 503.29 797.64 508.76 786.95 505.02 801.5 486.59 810.09"/><polygon class="cls-17" points="490.85 803.43 469.86 805.1 469.64 808.07 486.59 810.09 490.85 803.43"/><path class="cls-17" d="M544.31,809.71c-1.2,0-50.67,1.2-50.67,1.2l17.95-15.56,56.66-23.94,1.59,6.79Z"/><polygon class="cls-19" points="484.86 790.16 478.08 811.31 493.64 810.91 511.59 795.35 484.86 790.16"/><polygon class="cls-17" points="476.48 780.99 474.09 798.14 478.08 811.31 484.86 790.16 476.48 780.99"/><polygon class="cls-10" points="568.25 771.41 511.59 795.35 486.06 792.16 476.48 780.99 486.7 772.18 498.03 765.03 509.2 755.45 517.98 754.65 562.66 767.42 568.25 771.41"/><polygon class="cls-17" points="502.68 760.8 527.77 765.03 499.78 765.03 498.03 765.03 502.68 760.8"/><polygon class="cls-18" points="509.2 755.45 524.18 760.29 527.77 765.03 502.68 760.8 509.2 755.45"/><path class="cls-17" d="M481.86,353H480l-1-1-4,2.77-3.81,7-1.13.61L467,368l-3.12,6.15,2.34,9.1s11.27,5.29,11.53,5.38,10.65-1.32,10.65-1.32l8.69-5.7L494.34,370l-.78-8.41-6.07-4.42-1.12-1.65Z"/><path class="cls-10" d="M480.56,358c.26,0,6.93-.78,6.93-.78l1.22.78-3.21.87-2.69,4-2.69,6.33Z"/><polygon class="cls-17" points="485.93 355.2 482.38 355.72 479.52 356.32 483.94 356.32 487.06 356.5 486.63 355.59 485.93 355.2"/><path class="cls-17" d="M492.3,362l1.26-.43.78,8.41,2.91,11.62-8.82,5.7.1-1.72,5-3.72.65-2-2.08-6.15a8.46,8.46,0,0,1-.61,1.38c0-.21-.34-4.72-.34-4.72Z"/><polygon class="cls-17" points="497.25 381.64 494.21 379.9 493.56 381.9 497.25 381.64"/><polygon class="cls-17" points="488.39 387.39 488.25 385.53 493.56 381.9 497.25 381.64 488.39 387.39"/><polygon class="cls-17" points="477.78 388.66 475.12 384.49 467.34 380.87 463.91 374.18 466.25 383.28 477.78 388.66"/><polygon class="cls-17" points="475.12 384.49 488.25 385.53 488.39 387.39 477.78 388.66 475.12 384.49"/><path class="cls-17" d="M441.67,388.42c.75,0,31.71.75,31.71.75l-11.24-9.74-35.44-15-1,4.24Z"/><polygon class="cls-17" points="478.87 376.19 483.11 389.42 473.38 389.17 462.14 379.43 478.87 376.19"/><polygon class="cls-17" points="484.11 370.45 485.61 381.18 483.11 389.42 478.87 376.19 484.11 370.45"/><polygon class="cls-10" points="426.7 364.46 462.14 379.43 478.12 377.44 484.11 370.45 477.72 364.94 470.63 360.46 463.64 354.47 458.15 353.97 430.19 361.96 426.7 364.46"/><polygon class="cls-17" points="467.72 357.82 452.02 360.46 469.53 360.46 470.63 360.46 467.72 357.82"/><polygon class="cls-17" points="463.64 354.47 454.26 357.5 452.02 360.46 467.72 357.82 463.64 354.47"/><polygon class="cls-21" points="947.38 698.11 934.26 659.9 935.22 671.11 947.38 698.11"/><polygon class="cls-17" points="826.73 717.32 875.62 726.14 905.49 724.47 938.77 724.32 947.38 698.11 935.22 671.11 912.42 687.71 878.13 696.2 830.33 676.95 789.61 653.76 791.8 669.21 826.73 717.32"/><path class="cls-18" d="M789.61,653.76c5.48,1.61,47.51,26.93,47.51,26.93l41,15.51,34.29-8.49,22.8-16.6-1-11.21-42.75-24.66-66.82,7.27Z"/><polygon class="cls-19" points="878.13 696.2 875.62 726.14 938.77 724.32 912.42 687.71 878.13 696.2"/><polygon class="cls-10" points="938.77 724.32 912.42 687.71 935.22 671.11 947.38 698.11 938.77 724.32"/><polygon class="cls-10" points="909.07 733.89 888.79 718.08 841.65 698.47 803.27 690.9 833.37 706.52 839.82 714.57 854.94 720.71 881.08 727.26 909.07 733.89"/><path class="cls-17" d="M794.22,725.62c.08-2.22,8.36-16.4,8.36-16.4l23.87-2.45,14.5,0,5.78,8Z"/><polygon class="cls-19" points="794.22 725.62 801.31 728.12 909.07 733.89 860.33 720.91 846.73 714.83 794.22 725.62"/><polygon class="cls-19" points="814.87 691.29 802.58 709.22 840.95 706.81 814.87 691.29"/></g></g></g></svg>