<svg xmlns="http://www.w3.org/2000/svg" xmlns:xlink="http://www.w3.org/1999/xlink" viewBox="0 0 375 667">
  <defs>
    <style>
      .cls-1 {
        fill: none;
      }

      .cls-2 {
        opacity: 0.6;
      }

      .cls-3 {
        clip-path: url(#clip-path);
      }

      .cls-4 {
        fill: url(#linear-gradient);
      }

      .cls-5 {
        fill: url(#linear-gradient-2);
      }

      .cls-14, .cls-6 {
        fill: #9dacff;
      }

      .cls-6 {
        opacity: 0.82;
      }

      .cls-7 {
        fill: url(#linear-gradient-3);
      }

      .cls-8 {
        fill: #fff;
      }

      .cls-9 {
        fill: #002f48;
      }

      .cls-10 {
        fill: url(#linear-gradient-4);
      }

      .cls-11 {
        fill: #3570ff;
      }

      .cls-12 {
        fill: #004a82;
      }

      .cls-13 {
        fill: #5aa9ff;
      }

      .cls-15 {
        fill: #00286d;
      }

      .cls-16 {
        fill: #137fff;
      }

      .cls-17 {
        fill: #007ab0;
      }

      .cls-18 {
        fill: #8acaff;
      }

      .cls-19 {
        fill: #002353;
      }

      .cls-20 {
        fill: #d700da;
      }

      .cls-21 {
        fill: #ff6bf5;
      }

      .cls-22 {
        fill: #60004c;
      }

      .cls-23 {
        fill: #00306b;
      }

      .cls-24 {
        fill: #003678;
      }

      .cls-25 {
        fill: #3c3544;
      }

      .cls-26 {
        fill: #8d8e7c;
      }

      .cls-27 {
        fill: url(#linear-gradient-5);
      }

      .cls-28 {
        fill: url(#linear-gradient-6);
      }

      .cls-29 {
        fill: #000f63;
      }

      .cls-30 {
        fill: url(#linear-gradient-7);
      }

      .cls-31 {
        fill: url(#linear-gradient-8);
      }

      .cls-32 {
        fill: url(#linear-gradient-9);
      }

      .cls-33 {
        fill: #fff8f8;
      }
    </style>
    <clipPath id="clip-path">
      <rect id="Rectangle_293" data-name="Rectangle 293" class="cls-1" width="375" height="667"/>
    </clipPath>
    <linearGradient id="linear-gradient" x1="0.5" x2="0.5" y2="1" gradientUnits="objectBoundingBox">
      <stop offset="0" stop-color="#003b95"/>
      <stop offset="0.06" stop-color="#0747a0"/>
      <stop offset="0.24" stop-color="#1d6bc2"/>
      <stop offset="0.43" stop-color="#2e86dd"/>
      <stop offset="0.62" stop-color="#3a9af0"/>
      <stop offset="0.81" stop-color="#42a6fb"/>
      <stop offset="1" stop-color="#4af"/>
    </linearGradient>
    <linearGradient id="linear-gradient-2" y1="0.5" x2="1" y2="0.5" gradientUnits="objectBoundingBox">
      <stop offset="0" stop-color="#ff64f0"/>
      <stop offset="0" stop-color="#ff65f0"/>
      <stop offset="0.32" stop-color="#ff92f0"/>
      <stop offset="0.61" stop-color="#ffb3f0"/>
      <stop offset="0.84" stop-color="#ffc7f0"/>
      <stop offset="1" stop-color="#ffcef0"/>
    </linearGradient>
    <linearGradient id="linear-gradient-3" x1="0.5" x2="0.5" y2="1" gradientUnits="objectBoundingBox">
      <stop offset="0" stop-color="#ffcef0"/>
      <stop offset="1" stop-color="#ff64f0"/>
    </linearGradient>
    <linearGradient id="linear-gradient-4" x1="0.5" x2="0.5" y2="1" gradientUnits="objectBoundingBox">
      <stop offset="0" stop-color="#003b95"/>
      <stop offset="0.05" stop-color="#0f54ad"/>
      <stop offset="0.12" stop-color="#206fc6"/>
      <stop offset="0.2" stop-color="#2d85db"/>
      <stop offset="0.29" stop-color="#3796eb"/>
      <stop offset="0.4" stop-color="#3fa1f7"/>
      <stop offset="0.56" stop-color="#43a8fd"/>
      <stop offset="1" stop-color="#4af"/>
    </linearGradient>
    <linearGradient id="linear-gradient-5" y1="0.5" x2="1" y2="0.5" gradientUnits="objectBoundingBox">
      <stop offset="0" stop-color="#8acaff"/>
      <stop offset="0.24" stop-color="#63a5db"/>
      <stop offset="0.59" stop-color="#2d74ab"/>
      <stop offset="0.86" stop-color="#0c568d"/>
      <stop offset="1" stop-color="#004a82"/>
    </linearGradient>
    <linearGradient id="linear-gradient-6" x1="0.201" y1="0.127" x2="0.856" y2="0.99" gradientUnits="objectBoundingBox">
      <stop offset="0" stop-color="#8acaff"/>
      <stop offset="0.18" stop-color="#86c7fc"/>
      <stop offset="0.35" stop-color="#7bbcf2"/>
      <stop offset="0.52" stop-color="#68abe1"/>
      <stop offset="0.68" stop-color="#4e93c9"/>
      <stop offset="0.83" stop-color="#2c73aa"/>
      <stop offset="0.99" stop-color="#034d85"/>
      <stop offset="1" stop-color="#004a82"/>
    </linearGradient>
    <linearGradient id="linear-gradient-7" y1="0.5" x2="1" y2="0.5" gradientUnits="objectBoundingBox">
      <stop offset="0" stop-color="#8acaff"/>
      <stop offset="0.21" stop-color="#87c7fc"/>
      <stop offset="0.38" stop-color="#7dbef3"/>
      <stop offset="0.53" stop-color="#6caee4"/>
      <stop offset="0.68" stop-color="#5498ce"/>
      <stop offset="0.82" stop-color="#357bb2"/>
      <stop offset="0.95" stop-color="#0f5890"/>
      <stop offset="1" stop-color="#004a82"/>
    </linearGradient>
    <linearGradient id="linear-gradient-8" y1="0.5" x2="1" y2="0.5" gradientUnits="objectBoundingBox">
      <stop offset="0" stop-color="#0078d4"/>
      <stop offset="0.2" stop-color="#0075cf"/>
      <stop offset="0.44" stop-color="#006ec2"/>
      <stop offset="0.68" stop-color="#0061ab"/>
      <stop offset="0.94" stop-color="#004f8b"/>
      <stop offset="1" stop-color="#004a82"/>
    </linearGradient>
    <linearGradient id="linear-gradient-9" x1="0" y1="0.499" x2="1" y2="0.499" xlink:href="#linear-gradient-8"/>
  </defs>
  <g id="_4資產_22" data-name="4資產 22" class="cls-2" transform="translate(-925.13 -1661.65)">
    <g id="圖層_29" data-name="圖層 29" transform="translate(925.13 1661.65)">
      <g id="Group_138" data-name="Group 138" class="cls-3">
        <path id="Path_1422" data-name="Path 1422" class="cls-4" d="M159.43,599.225l1010.225,9.9L1173.33,0H160.78Z" transform="translate(-542.28 -830.825)"/>
        <circle id="Ellipse_32" data-name="Ellipse 32" class="cls-5" cx="98.315" cy="98.315" r="98.315" transform="translate(-114.555 -719.45)"/>
        <path id="Path_1423" data-name="Path 1423" class="cls-6" d="M1032.375,373.425s-22.095-17.945-34.5-8.055c0,0-29.345,6.71-29.345,14.725,0,0-18.45-11-24.46,0,0,0-34.23.11-39.87,12.965,0,0-29.03-2-32.575,13.845,0,0-9.855-4.7-12.945-4.42-3.905.36-13.5,7.9-13.5,7.9s-16.6-2.26-19.61,6.035c0,0-7.7.955-9.115,7.26,0,0-3.97-5.44-7.75-5.825-2.155-.215-8.47,2.37-8.47,2.37s-8.465-8.04-12.925-7.11a60.819,60.819,0,0,0-10.77,3.88s-6.255-7.9-12.5-7.9c-4.25,0-11.2,2.585-11.2,2.585a20.066,20.066,0,0,0-14.18-6.915c-1.9-.065-7.5,7.205-7.5,7.205s-7.58-4.92-14.315.215c0,0-6.845-17.5-24.155-16.165-7.965.6-28.83,10.78-28.83,10.78s-17.235-7.275-28.5-8.17c-6.91-.55-20.21,6.445-34.57,7.88-18.415,1.845-57.73,0-70.94-15.03,0,0,91.115,3.245,84.44-.38-13-7.075-29.87-2.365-43.3-3.42-.215,0-.41,0-.35-.22,1.155-4.125-26-9.28-41.55-8.235-16.73,1.125-25.435,6.13-25.435,6.13,1.55-6.3-19.43-28.635-36.97-19.325-9,4.785-19.16-31.605-43.285-24.715,0,0-5.145-11-12.825-14.165-8.81-3.64-19.135,1.3-19.135,1.3s-7.5-5.78-14.95-6.235c-5.36-.325-10.485,3.915-10.485,3.915s-8.39-7.32-13.66-8.795c-3.59-1-12.065.62-12.065.62s-5.36-8.625-16.08-7.655c-4.245.385-9.665,1.53-9.665,1.53s-8.05-18.5-25.445-13.05A236.561,236.561,0,0,1,253,307.35v235.3h803.075L1051,380.1Z" transform="translate(-589.065 -979.71)"/>
        <path id="Path_1424" data-name="Path 1424" class="cls-6" d="M1070.145,367.907s-24.89-8.04-45.95-4.6-35.615,5-41.74,4.6-24.895-3.33-32.55.06,47.865,3.77,47.865,3.77S1080.87,374.037,1070.145,367.907Z" transform="translate(-937.155 -1012.052)"/>
        <path id="Path_1425" data-name="Path 1425" class="cls-6" d="M1042.663,395.832s12.445-4,22.975-2.295,17.81,2.5,20.87,2.295,12.445-1.665,16.275.03-23.93,1.885-23.93,1.885S1037.3,398.9,1042.663,395.832Z" transform="translate(-983.658 -1027.382)"/>
        <rect id="Rectangle_269" data-name="Rectangle 269" class="cls-7" width="994.875" height="1021.675" transform="translate(-363.68 -257.865)"/>
        <path id="Path_1426" data-name="Path 1426" class="cls-8" d="M753.8,1648.55c1.865,2.875,3.86,5.665,5.91,8.41s4.2,5.405,6.375,8.045,4.435,5.2,6.735,7.73,4.675,5,7.085,7.4a192.115,192.115,0,0,0,15.22,13.645,169.534,169.534,0,0,0,16.625,11.9c2.89,1.805,5.83,3.54,8.835,5.15l2.25,1.215a21.41,21.41,0,0,0,2.27,1,37.053,37.053,0,0,0,4.835,1.4,96.564,96.564,0,0,0,10.085,1.53c3.4.36,6.815.625,10.23.885,6.84.5,13.695,1,20.5,1.935a92.729,92.729,0,0,1,10.13,1.92,40.741,40.741,0,0,1,9.615,3.635,42.03,42.03,0,0,0-9.7-3.3,92.175,92.175,0,0,0-10.125-1.64c-6.8-.77-13.65-1.045-20.5-1.44-3.425-.19-6.855-.4-10.285-.695a90.938,90.938,0,0,1-10.27-1.4,38.155,38.155,0,0,1-5.06-1.385,23.427,23.427,0,0,1-2.44-1.05l-2.31-1.16c-3.085-1.55-6.08-3.265-9.04-5.035-1.5-.885-2.925-1.825-4.385-2.755s-2.86-1.925-4.27-2.92-2.815-2-4.175-3.06l-2.055-1.565c-.685-.53-1.345-1.08-2-1.62-2.69-2.16-5.28-4.44-7.84-6.75-1.255-1.18-2.535-2.335-3.75-3.56l-1.845-1.81-1.8-1.85c-.605-.61-1.2-1.24-1.785-1.87s-1.185-1.245-1.76-1.885c-1.15-1.285-2.3-2.565-3.42-3.875-2.245-2.61-4.43-5.27-6.5-8s-4.09-5.53-6-8.39S755.425,1651.575,753.8,1648.55Z" transform="translate(-839.465 -1655.1)"/>
        <path id="Path_1427" data-name="Path 1427" class="cls-8" d="M1497,2703.55a121.013,121.013,0,0,0,12.535,4.17c4.23,1.21,8.5,2.265,12.8,3.235s8.6,1.835,12.935,2.58,8.675,1.44,13.03,2.05q13.065,1.81,26.255,2.755c8.79.535,17.6.77,26.42.825,17.635.14,35.27-.5,52.915-1.025,8.82-.27,17.645-.555,26.5-.6,4.415,0,8.83,0,13.245.23,2.205.115,4.405.27,6.6.5a44.166,44.166,0,0,1,6.5,1.17,43.719,43.719,0,0,0-6.525-1.055c-2.195-.205-4.4-.325-6.6-.4-4.41-.14-8.82-.12-13.23-.035-8.82.17-17.635.57-26.45.96-17.63.81-35.28,1.55-52.95,1.6-8.835,0-17.675-.165-26.5-.645s-17.665-1.125-26.435-2.33c-4.39-.59-8.76-1.315-13.11-2.13s-8.675-1.8-12.96-2.92q-3.215-.84-6.4-1.78c-2.12-.645-4.23-1.315-6.32-2.04s-4.16-1.5-6.21-2.36A61.938,61.938,0,0,1,1497,2703.55Z" transform="translate(-1211.065 -2182.6)"/>
        <path id="Path_1428" data-name="Path 1428" class="cls-8" d="M405.965,2060.145l-40.055-18.1c-3.33-1.5-6.685-3-10-4.5l-5-2.255c-.835-.38-1.665-.775-2.5-1.14s-1.675-.71-2.5-1.04A142.06,142.06,0,0,0,325,2026.75c-14.245-3.28-28.825-5-43.4-6.455-7.29-.725-14.6-1.335-21.89-2.08-3.645-.38-7.3-.78-10.92-1.35-1.81-.285-3.615-.61-5.4-1a29,29,0,0,1-5.24-1.655,28.745,28.745,0,0,0,5.265,1.54c1.795.37,3.6.655,5.415.9,3.63.5,7.275.84,10.925,1.155,7.3.63,14.615,1.12,21.92,1.725,14.61,1.19,29.24,2.8,43.62,5.915a142.62,142.62,0,0,1,21.18,6.245c6.85,2.74,13.58,5.585,20.285,8.58,1.685.73,3.345,1.5,5,2.27l5,2.315c1.66.78,3.31,1.58,4.96,2.38s3.3,1.6,4.94,2.43C393.19,2052.9,399.67,2056.36,405.965,2060.145Z" transform="translate(-581.64 -1837.93)"/>
        <path id="Path_1429" data-name="Path 1429" class="cls-8" d="M1128.88,1755.09s-135.56,57.26-316.5,6.67c-94.82-26.5-104.95-30.27-142.79-80.95-55.715-74.61-98.335-86.805-166-118.725-59.5-28.075-90.285-90-190.11-121.55-70.71-22.35-115.47-17.5-183.07-65.155l7.295-504.04H1137.16Z" transform="translate(-527.77 -1266.495)"/>
        <path id="Path_1430" data-name="Path 1430" class="cls-8" d="M2123.1,2329.9c1.15-88.46,1.56-60.745,2.3-93.265l-.235,44.86c-.785,59.375-2.035,150.5-2.34,132.89C2122.8,2408.65,2122.655,2367.27,2123.1,2329.9Z" transform="translate(-1523.955 -1949.14)"/>
        <path id="Path_1431" data-name="Path 1431" class="cls-8" d="M2125.66,2608.53c.1-8.33.12-9.7.22-18l.335,24.15Z" transform="translate(-1525.395 -2126.09)"/>
        <path id="Path_1432" data-name="Path 1432" class="cls-8" d="M2128.78,2028.585l.33-41.79c.155-9.69.04,14.04.125,12.705l.675-47C2129.1,2016.25,2129.635,2015.385,2128.78,2028.585Z" transform="translate(-1526.955 -1807.075)"/>
        <path id="Path_1433" data-name="Path 1433" class="cls-8" d="M2144.65,993.164c.63-31.645.335,24.2.46,37.03-.285,26.4-.85,49.705-.91,28.58C2144.555,1023.979,2144.515,1009.914,2144.65,993.164Z" transform="translate(-1534.665 -1322.619)"/>
        <path id="Path_1434" data-name="Path 1434" class="cls-8" d="M1129.53,1240.225c.4,15.86-.78,107.345-.18,98.155.255-4,.5-7.93.755-19l.14-46.125c1.3-115.335.22,47.965,1.44-29.5.135-16.73.2-25.085.18-32.13.08-37.855-.16-26.86-.64-4.84.955-110,2.055-68.155,2.6-128.07.58-82.215-.8-31.635-.945-51.5a14.347,14.347,0,0,0,.265-3.12c.1-2.12.2-5.27.305-9.34.22-8.14.47-19.94.725-34.44s.5-31.7.815-50.63c.255-19.19.54-40.14.835-61.86l-112-.21c-113.17.38-240.35-.5-375.875.07l-209.415-.4c0-.05-.145-.095,0-.14-.925,0-1.675.035-2.2.06a3.36,3.36,0,0,0-.8.07c-55.86-.655-186.26.3-199.7-.73l-13.59.09c-67.775.075,0-.375-38.96-.58H159.9l-27-.05c-.46,26.8-.925,54.075-1.335,77.8-.35,22.94-.55,42.455-.4,54.68-.135,5.085-.08-1.645-.215,3.455l-.585,50.755c.16,3.375.26,13.585.61,5.155-.185,11.785-.085,22.045-.4,38.9-.615,42.355-.5,5.075-.9,20.285-.655,53.33-1.41,110.5-2.24,167-.44,28.255-.875,56.35-1.3,83.725l-.045,2.565-.03,1.88v1.6c0,.035.065.05.09.075l.2.14,5.055,3.5,2.115,1.45,2.135,1.41c1.43.93,2.84,1.88,4.275,2.795q8.6,5.47,17.41,10.285t17.815,8.79c6,2.68,12,5.06,18.045,7.235a4.9,4.9,0,0,0,1.205.56c.81.325,2,.8,3.575,1.34s3.475,1.235,5.715,1.935l3.585,1.14,4.035,1.2c5.665,1.655,12.44,3.455,19.965,5.26s15.785,3.645,24.4,5.575,17.565,4,26.5,6.245,17.785,4.73,26.255,7.37a310.538,310.538,0,0,1,43,16.845,298.843,298.843,0,0,1,32.08,18.435c10.5,6.845,20.6,14.5,30.5,22.46s19.555,16.4,29.285,24.675c4.88,4.13,9.765,8.235,14.75,12.2s10.045,7.81,15.225,11.435,10.5,7,15.925,10.075,11.07,5.75,16.5,8.235c10.92,5.05,21.635,9.825,31.9,14.545q7.71,3.5,15.045,7.065c4.875,2.37,9.625,4.745,14.2,7.165a284.732,284.732,0,0,1,25.27,14.95c-4.59-2.93-9.675-6-15.125-9.085s-11.265-6.125-17.25-9.12c-11.965-6-24.615-11.7-36.26-17l-16.53-7.595c-2.565-1.2-5-2.33-7.355-3.445l-3.415-1.685-1.63-.805-1.54-.835c-8.12-4.315-13.5-7.89-15.36-8.955a185.208,185.208,0,0,0,17.67,10.695l4,2c1.35.67,2.7,1.29,4.09,1.95l8.53,4,18.09,8.335c12.4,5.725,25.245,11.715,37.18,18.04a290.767,290.767,0,0,1,32.025,19.555c9.14,6.425,16.395,12.555,21.465,16.9-4.615-4.2-8.245-7.335-11.19-9.745-1.5-1.195-2.735-2.27-3.89-3.17l-3.055-2.415c-3.63-2.81-5.61-4.355-9-6.77l3,2c.95.625,1.82,1.26,2.67,1.845l2.435,1.695,2.22,1.615c2.875,2.06,5.3,3.97,7.88,5.955l3.935,3.195c1.38,1.125,2.8,2.38,4.385,3.735.8.67,1.6,1.405,2.455,2.175l2.68,2.435c.95.845,1.9,1.8,2.925,2.765s2.11,2,3.215,3.11c6.555,6.5,12.93,13.5,18.72,20.375s11,13.64,15.41,19.545,8.22,10.965,10.935,14.46l3.1,4.04a9.693,9.693,0,0,1,1.08,1.5c-3.345-3.92-6.58-8.03-9.785-12.185q-2.4-3.12-4.755-6.27l-4.7-6.2c-6.27-8.185-12.685-15.975-18.875-22.825-2.455-2.355,7.5,8.435,18.55,23,2.765,3.675,5.67,7.53,8.565,11.385s5.925,7.7,8.845,11.3,5.845,6.945,8.5,9.885,5.185,5.425,7.27,7.345l-1.27-1.235-1.08-1.125-1.74-1.84c-.96-1.07-1.575-1.805-1.93-2.245-.7-.885-.325-.63.65.26l1.85,1.73,2.445,2.24c1.765,1.565,3.67,3.225,5.255,4.46a26.211,26.211,0,0,0,3,2.21c.12.05,0-.09-.425-.475s-1.165-1-2.225-2l-1.88-1.7-2.35-2.215c-.9-.855-1.845-1.855-2.93-2.94s-2.205-2.335-3.46-3.685c-2.46-2.74-5.295-6-8.46-9.93s-6.685-8.5-10.615-13.76c2.915,3.82,5.855,7.635,8.9,11.375,1.5,1.88,3.06,3.72,4.6,5.57s3.16,3.655,4.8,5.425a139.148,139.148,0,0,0,10.325,10.21,101.724,101.724,0,0,0,11.555,8.85c4.73,2.95,5.895,3.39,4.285,2.39a130.384,130.384,0,0,1-11.265-8.115c-1.365-1.075-2.75-2.32-4.225-3.61-.73-.655-1.455-1.355-2.205-2.055-.375-.355-.76-.7-1.135-1.075l-1.125-1.125c-1.535-1.5-3.045-3.135-4.615-4.805s-3.11-3.455-4.65-5.3c-6.23-7.31-12.42-15.595-18.315-23.53a406.3,406.3,0,0,0-28.5-34.33c-2.335-2.5-2.73-3-.3-.665,2.345,2.4,7.6,7.54,15.725,17.06,3.335,3.845,2.905,3.11,4.36,4.675s4.825,5.455,15.075,18.94c-2.725-3.74-6.155-8.455-10.045-13.5-1.965-2.5-4-5.14-6.145-7.73-1.075-1.305-2.145-2.625-3.24-3.93l-3.33-3.88a271.8,271.8,0,0,0-24.1-24.615l-1.925-1.845c-.72-.655-1.5-1.365-2.355-2.125s-1.745-1.585-2.72-2.425l-3.115-2.635c-4.4-3.655-9.725-7.84-15.8-12.085s-12.89-8.57-20.09-12.68-14.75-8.045-22.225-11.72-14.865-7.115-21.725-10.285l-18.61-8.62c-5.425-2.53-9.93-4.69-13.165-6.29-1.635-.79-2.885-1.5-3.8-2a13.894,13.894,0,0,1-1.645-1,162.8,162.8,0,0,1-15.025-8.545l-1.77-1.115-1.72-1.155-3.4-2.3-3.3-2.35-1.625-1.165-1.6-1.195c-8.5-6.33-16.15-12.76-23.44-19s-14.2-12.3-21.045-18.08-13.6-11.31-20.5-16.575-13.89-10.3-21.23-15.04-14.97-9.27-23.075-13.56a277.4,277.4,0,0,0-25.92-12.05c-2.31-.94-4.635-1.91-7.04-2.765l-3.6-1.315c-1.215-.44-2.43-.925-3.675-1.325l-7.56-2.54c-2.565-.82-5.17-1.62-7.815-2.43-6.735-2-12.82-3.67-18.275-5.1s-10.31-2.595-14.6-3.595c-8.565-2-14.875-3.375-19.47-4.37s-7.47-1.6-9.19-1.945a8.587,8.587,0,0,0-2.25-.355c.15.245,9.955,2.795-5.75-.53a396.869,396.869,0,0,1-39.76-11.245c-6.38-2.235-12.61-4.64-18.6-7.285s-11.765-5.44-17.29-8.36c-1.38-.73-2.735-1.5-4.085-2.23l-2-1.1-2-1.145-3.9-2.27-3.79-2.32c-2.5-1.5-4.92-3.115-7.3-4.635-1.2-.755-2.34-1.555-3.5-2.33l-2.835-1.92c-.445-.135-.265-.59-.3-.935v-1.62q0-2,.03-3.93.03-3.88.055-7.54c.04-4.885.075-9.46.11-13.695.425-30.46,1.035-49.06.875-28.72q1.925-111.08,3.86-223,1.78-110.275,3.55-220.7l239.065.155c93.05.595,179.455-.25,270.79.82l-15.19-.18c-2.185-.1,9.5-.145,18.755-.2l-43.675-.59c27.13.08,54.53.14,81.445.13,29.94-.72,154.5,0,192.745-.72,150.095.24,87.13.555,238.54.87h10.495c-.24,37.86-.5,78.905-.765,121.5-.31,43.79-.68,89.17-1.15,134.46-.35,34.775-1,66.5-1.085,60.75-.38,41.775-.915,101.585-1.305,144.775C1126.255,1517.915,1128.82,1309.75,1129.53,1240.225Z" transform="translate(-525.595 -1263.83)"/>
        <path id="Path_1435" data-name="Path 1435" class="cls-8" d="M123.652,1790.435c-.16-3.4-.445,6.325-.74,18.805-.14,6.24-.295,13.17-.44,19.5-.04,1.915-.075,3.78-.115,5.58,0,.735,0,1.46-.04,2.18-.07.215.16.275.29.385l.44.3.87.6q1.365.96,2.67,1.86c2.23,1.565,4.2,2.955,5.815,4l4.325,2.79,4.39,2.685c1.455.91,2.95,1.76,4.435,2.62s2.96,1.74,4.5,2.55a242.468,242.468,0,0,0,26.6,12.9c1.59.675,3.045,1.205,4.32,1.71s2.39.93,3.355,1.26c1.93.685,3.215,1.125,3.88,1.33,1.34.415.215-.1-3.14-1.455-1.685-.655-3.89-1.62-6.635-2.755s-5.97-2.595-9.645-4.36c-.685-.3-1.535-.645-2.5-1.095L163,1860.28l-1.92-.915c-.665-.325-1.35-.685-2.065-1.045-1.425-.74-2.965-1.5-4.57-2.365-6.435-3.41-14.1-7.93-21.945-13.115-2-1.26-3.925-2.645-5.91-4l-2.41-1.655-.67-.465-.34-.23-.17-.115a.036.036,0,0,1-.035-.03v-1.79c0-1.53.04-3.065.065-4.595.07-4.785.14-9.575.21-14.23C123.367,1806.42,123.507,1797.635,123.652,1790.435Z" transform="translate(-523.717 -1725.7)"/>
        <path id="Path_1436" data-name="Path 1436" class="cls-8" d="M136.27,918.16l.315,6.775.755-60.36h8.83q-.15,0-.585-.045h-1.32l-7.08-.06c-.1,5.77-.28,15.05-.475,25.5C136.57,898.99,136.41,909.065,136.27,918.16Z" transform="translate(-530.7 -1263.06)"/>
        <path id="Path_1437" data-name="Path 1437" class="cls-8" d="M1475.91,2641.27l-10.565-1.82c-3.385-.64-6.64-1.335-9.8-1.97l-4.665-.95-2.28-.465c-.75-.16-1.5-.345-2.23-.5l-8.64-2.035-4.165-1c-.685-.165-1.37-.315-2.045-.5l-2-.54-7.905-2.125c-2.595-.705-5.175-1.37-7.725-2.09l-7.63-2.175c-10.175-2.91-20.455-5.835-31.905-9.28-5.725-1.715-11.74-3.59-18.16-5.71s-13.23-4.53-20.455-7.57c.885.44,1.76.89,2.655,1.32l2.68,1.265c1.78.86,3.6,1.63,5.4,2.445,7.16,2.66,14.46,5.055,21.845,7.37s14.86,4.535,22.41,6.75l22.9,6.6c3.865,1.08,7.775,2.1,11.7,3.17l5.9,1.585c2,.5,4,.95,6,1.43l6,1.42,3,.715c1,.24,2,.5,3.04.685l12.29,2.5c1.03.2,2.06.43,3.095.625l3.125.545,6.275,1.095,6.32,1.1,6.385.925a527.791,527.791,0,0,0,53,5.19c12.32.26,12.965.11,7.385-.16l-5.265-.24c-2.09-.09-4.5-.29-7.085-.45l-8.4-.545-9.185-.83-4.735-.43c-1.585-.125-3.16-.355-4.73-.53l-9.245-1.1-2.215-.265-2.16-.31-4.125-.615-7.27-1.09c-2.17-.305-4.035-.67-5.535-.95s-2.625-.5-3.3-.655C1472.505,2640.84,1472.965,2640.84,1475.91,2641.27Z" transform="translate(-1130.435 -2132.095)"/>
        <path id="Path_1438" data-name="Path 1438" class="cls-8" d="M1310.495,2576.867c12.805,4.315,26.095,8.13,39.575,11.955l20.345,5.705c3.41.975,6.845,1.845,10.28,2.75l10.325,2.7,10.43,2.415,5.22,1.205c1.745.385,3.5.715,5.255,1.075q5.255,1.05,10.5,2.115c3.5.655,7.05,1.22,10.575,1.835l5.285.905c1.76.31,3.535.5,5.305.785l10.595,1.5c3.535.44,7.075.815,10.6,1.225l5.29.6,5.29.455c3.5.295,7.04.635,10.55.885l10.5.625,2.615.155c.87.045,1.745.065,2.615.095l5.215.175c3.5.11,6.93.255,10.375.245l10.29.065,10.19-.185,2.53-.045,2.5-.1,5-.215,5-.215,4.955-.32,4.92-.33,2.45-.165c.815-.06,1.625-.145,2.44-.215l9.655-.875,9.5-1.085c1.57-.165,3.13-.38,4.68-.595l4.63-.635c12.285-1.74,24.06-3.875,35.2-6.335-6.26.835-20.555,3.5-39.74,5.835-1.2.145-2.415.32-3.65.45l-3.765.4c-2.545.26-5.155.57-7.835.815-5.36.45-10.955,1-16.765,1.325l-4.39.29-2.22.14-2.24.095-9.1.4c-3.07.115-6.18.135-9.32.21l-4.725.095h-4.765l-9.62-.05-9.7-.285c-1.625-.06-3.25-.07-4.875-.165l-4.875-.27c-3.25-.19-6.5-.325-9.75-.565l-9.7-.795c-1.615-.14-3.225-.24-4.825-.415L1464.5,2612l-9.5-1.045-9.31-1.285c-6.16-.775-12.14-1.87-17.955-2.835l-4.325-.735-4.225-.845-8.22-1.65c-1.34-.275-2.67-.53-4-.81l-3.865-.9-7.435-1.745c-4.83-1.07-9.31-2.355-13.5-3.475l-8.08-2.09-7.725-2.12-14.65-4.06c-9.5-2.66-18.61-5.255-28-8.135-2.35-.725-4.7-1.475-7.1-2.235s-4.805-1.565-7.245-2.43c-4.9-1.68-9.925-3.54-15.1-5.735a136.191,136.191,0,0,1-15.885-7.9,103.069,103.069,0,0,1-16.07-11.76l-2.665-2.415-2.145-2.07c-.65-.615-1.21-1.18-1.7-1.685l-1.29-1.3c-1.465-1.47-1.9-1.955-1.595-1.55s1.405,1.62,3.1,3.435c.845.915,1.89,1.925,3.03,3.085.575.575,1.215,1.15,1.86,1.765s1.33,1.265,2.065,1.89a96.273,96.273,0,0,0,10.22,8,111.537,111.537,0,0,0,12.5,7.345c4.37,2.235,8.86,4.165,13.08,5.86S1307.115,2575.667,1310.495,2576.867Z" transform="translate(-1088.98 -2101.352)"/>
        <path id="Path_1439" data-name="Path 1439" class="cls-8" d="M2050.739,2646.326c5.675-1.575,11.745-3.4,17.155-5.21s10.175-3.6,13.26-4.885c1.925-.855,2.1-.97,1.135-.6-.5.185-1.245.5-2.22.865s-2.17.815-3.5,1.285c-5.35,1.93-13,4.35-17.845,5.705-1.405.435-3.1.915-4.92,1.445l-2.8.82-2.885.8c-3.83,1.095-7.57,2.045-9.915,2.7s-3.325.9-1.64.58c.84-.165,2.34-.5,4.655-1.07,1.155-.285,2.5-.59,4.1-1Z" transform="translate(-1480.424 -2148.541)"/>
        <path id="Path_1440" data-name="Path 1440" class="cls-9" d="M1149.075,1697.39s-135.67,69-316.63,18.41c-94.82-26.5-93.335-33.28-131.18-83.96-55.71-74.61-122.88-94.215-190.555-126.14-59.5-28.07-52.795-76.4-188.56-112.91-92.77-24.955-115.845-18.71-172.25-72.38l7.875-495.03h999.47Z" transform="translate(-537.515 -1243.515)"/>
        <path id="Path_1441" data-name="Path 1441" class="cls-10" d="M1184.6,1621.93s-135.8,82.65-316.755,32.06c-94.82-26.5-93.335-33.28-131.18-83.96-55.71-74.61-98.175-83.28-165.85-115.2-59.5-28.07-63.425-91.215-182.19-119.425-76.86-18.26-143.64-35-200.045-88.65l4.6-483.18h999.47Z" transform="translate(-556.855 -1212.61)"/>
        <path id="Path_1442" data-name="Path 1442" class="cls-11" d="M1026.025,604.935,824.47,535.71l-49.615,22.9-15.91-7.58-59.06,33.33s-34.42,22.605-73.655,16.5-45.5-4.5-53.175-2.77-19.5-5.565-19.5-5.565l-108-74.3L435.07,526.11l-48.78-31.89-154,65.1v81.555h827.78v-56.5Z" transform="translate(-578.71 -1077.935)"/>
        <path id="Path_1443" data-name="Path 1443" class="cls-12" d="M1540.955,471.06c14.46-40.545,28.315-79.41,42.92-120.36,6.5,17.54,12.425,33.46,18.88,50.835L1683.06,231.81l57.38,117.7,31.425-69.455,92.38,242.945H1488.2l37.595-86.165C1531.065,448.72,1535.745,459.29,1540.955,471.06Zm136.5,1.085q2.66,9,9.325,31.655l14.17-35.8c4.665,28.3,13.37,33.5,25.045,27.415,1.685-.875,3.655-1.855,5.24-1.05,11.725,5.945,15.91-7.79,19.17-24.59,2.965-15.3,6.12-30.455,9.345-46.425l12.47,11.945V313.1c-11.31,22.185-22.19,44.365-33.575,65.605-8.915,16.63-18.62,31.78-27.65,48.21-4.54,8.27-7.665,19.7-12.685,26.5-5.71,7.67-12.8,11.75-20.835,18.73Zm-62.75,14.4c1.62-.215,2.62.23,3.065-.5,19.18-31.19,39.21-60.81,57.175-94.275,15.16-28.24,15-30.315,29.445-3,.36.675,1.25.375,2.5.67,1.54-12.275,3.09-24.645,5.5-43.73l11.8,27.725,8.445-16.53c-16.435-33.46-32.245-65.64-49.37-100.5-2.63,33.885-4.925,63.425-7.38,95.07l-16.365-20.445c-15,52.055-29.66,102.965-44.79,155.515Zm-68.275,4.36c17.82,10.075,34.36-2.225,36.275-28.285,1.675-22.82.35-46.4.35-75.32C1569.82,424.715,1558.405,457,1546.43,490.9Z" transform="translate(-1206.665 -946.73)"/>
        <path id="Path_1444" data-name="Path 1444" class="cls-13" d="M1866.75,553.41c8.03-7,15.145-11.06,20.855-18.755,5-6.77,8.145-18.205,12.685-26.5,9.03-16.43,18.735-31.58,27.65-48.21,11.385-21.24,22.265-43.42,33.575-65.605v122.2l-12.47-11.945c-3.225,15.97-6.38,31.13-9.345,46.425-3.26,16.8-7.445,30.535-19.17,24.59-1.585-.805-3.555.175-5.24,1.05-11.675,6.09-20.38.89-25.045-27.415l-14.17,35.795Q1869.41,562.445,1866.75,553.41Z" transform="translate(-1395.94 -1027.995)"/>
        <path id="Path_1445" data-name="Path 1445" class="cls-13" d="M1741.25,511.12c15.13-52.55,29.79-103.46,44.79-155.535l16.365,20.445c2.455-31.645,4.75-61.185,7.38-95.07,17.125,34.87,32.935,67.05,49.37,100.5l-8.47,16.54-11.8-27.725c-2.39,19.085-3.94,31.455-5.5,43.73-1.225-.3-2.115,0-2.5-.67-14.46-27.31-14.285-25.235-29.445,3-17.965,33.465-38,63.085-57.175,94.275C1743.87,511.35,1742.87,510.9,1741.25,511.12Z" transform="translate(-1333.19 -971.305)"/>
        <path id="Path_1446" data-name="Path 1446" class="cls-13" d="M1604.66,646.4c11.975-33.88,23.39-66.165,36.625-103.605,0,28.92,1.325,52.5-.35,75.32C1639.02,644.145,1622.48,656.445,1604.66,646.4Z" transform="translate(-1264.895 -1102.22)"/>
        <path id="Path_1447" data-name="Path 1447" class="cls-12" d="M127.765,607.158s70.96-64.68,181.9-34.815S451.725,649.988,522.315,648.5s198.125,9.025,243.5.03,115.85,16.5,150.7,9.73,126.415-54.225,183.86-39.3,50.855,42.475,50.855,42.475l5.335,59-86.71-22.765-115.5,29.72-146.575-16.56-127.85,9.5-79.865-13.26-165.795,9.26-317.815-30.6Z" transform="translate(-520.79 -1113.058)"/>
        <path id="Path_1448" data-name="Path 1448" class="cls-12" d="M52.755,576,95.67,492.465l18.885,35.295c26.78-39.3,53.105-77.92,80.305-117.83,19,27.09,37.5,53.415,57.38,81.71l31.425-48.22C316,502.43,345.535,583.375,376.04,639.065c-42.815,4-115.245,7.34-115.245,7.34l-30.18,25.71L147,683.465,98.87,740.35S25.1,641.53,0,612.055L37.6,552.24Zm136.5.75q2.655,6.27,9.32,22c5.16-9.05,9.14-16,14.17-24.85,4.665,19.65,13.37,23.26,25.05,19.03,1.68-.61,3.655-1.285,5.235-.73,11.725,4.13,15.915-5.4,19.17-17.07,2.97-10.615,6.125-21.145,9.345-32.23l12.5,8.295v-84.86c-11.31,15.405-22.19,30.8-33.575,45.55-8.915,11.545-18.625,22.06-27.65,33.47-4.545,5.74-7.665,13.68-12.69,18.375-5.715,5.345-12.825,8.175-20.855,13.02Zm-62.755,10c1.625-.15,2.62.16,3.065-.345,19.185-21.65,39.215-42.215,57.18-65.45,15.16-19.6,15-21.04,29.44-2.085.36.47,1.255.26,2.5.465,1.54-8.5,3.085-17.1,5.5-30.355l11.795,19.245,8.47-11.5-49.4-69.76c-2.63,23.525-4.92,44.03-7.38,66l-16.365-14.2Zm-68.295,3c17.825,7,34.365-1.545,36.275-19.64,1.68-15.84.35-32.21.35-52.29-13.215,26-24.625,48.42-36.605,71.94Z" transform="translate(-462.565 -1035.79)"/>
        <path id="Path_1449" data-name="Path 1449" class="cls-13" d="M378.55,633.175c8.03-4.845,15.14-7.675,20.85-13,5.025-4.7,8.145-12.635,12.69-18.375,9.025-11.41,18.735-21.925,27.65-33.47,11.385-14.745,22.265-30.145,33.575-45.55V607.6l-12.5-8.295c-3.22,11.085-6.375,21.615-9.345,32.23-3.255,11.665-7.445,21.2-19.17,17.07-1.58-.555-3.555.12-5.235.73-11.68,4.23-20.385.62-25.05-19.03-5.03,8.83-9,15.8-14.17,24.85Q381.21,639.45,378.55,633.175Z" transform="translate(-651.84 -1092.215)"/>
        <path id="Path_1450" data-name="Path 1450" class="cls-13" d="M253,603.785l44.79-108L314.175,510c2.46-21.97,4.75-42.475,7.38-66l49.375,69.775-8.47,11.5L350.665,506c-2.395,13.25-3.94,21.835-5.5,30.355-1.225-.2-2.12,0-2.5-.465-14.455-18.955-14.28-17.5-29.44,2.085-17.965,23.235-38,43.8-57.18,65.45C255.64,603.945,254.645,603.635,253,603.785Z" transform="translate(-589.065 -1052.825)"/>
        <path id="Path_1451" data-name="Path 1451" class="cls-13" d="M116.45,697.66c12-23.5,23.39-45.935,36.625-71.93,0,20.08,1.33,36.45-.35,52.29C150.815,696.115,134.275,704.655,116.45,697.66Z" transform="translate(-520.79 -1143.69)"/>
        <path id="Path_1452" data-name="Path 1452" class="cls-14" d="M394.6,508.851s-50.83-11.335-93.83-6.48-72.73,7-85.24,6.5-50.835-4.7-66.5.08,97.755,5.315,97.755,5.315S416.5,517.486,394.6,508.851Z" transform="translate(-536.34 -1081.406)"/>
        <path id="Path_1453" data-name="Path 1453" class="cls-14" d="M338.5,548.159s25.42-5.665,46.925-3.235,36.365,3.5,42.62,3.235,25.415-2.345,33.235.045-48.875,2.655-48.875,2.655S327.55,552.494,338.5,548.159Z" transform="translate(-631.325 -1102.984)"/>
        <path id="Path_1454" data-name="Path 1454" class="cls-14" d="M1996.15,333.55s-50.835-11.335-93.845-6.5-72.73,7-85.24,6.5-50.835-4.7-66.5.08,97.78,5.295,97.78,5.295S2018.04,342.185,1996.15,333.55Z" transform="translate(-1337.105 -993.75)"/>
        <path id="Path_1455" data-name="Path 1455" class="cls-14" d="M1935.415,288.1s25.42-5.665,46.925-3.235,36.365,3.5,42.62,3.235,25.415-2.345,33.235.04-48.875,2.66-48.875,2.66S1924.47,292.419,1935.415,288.1Z" transform="translate(-1429.785 -972.954)"/>
        <path id="Path_1456" data-name="Path 1456" class="cls-15" d="M1647.575,2241.555l89.095-12.485,28.65-23.82-39.945-34.3L1608.37,2150.6Z" transform="translate(-1266.75 -1906.125)"/>
        <g id="圖層_2" data-name="圖層 2" transform="translate(255.16 18.65)">
          <g id="圖層_17" data-name="圖層 17">
            <path id="Path_1457" data-name="Path 1457" class="cls-12" d="M1716.27,2176.42l21.42,41.32-61.21,36.725-9.95-57.385Z" transform="translate(-1550.99 -1937.685)"/>
            <path id="Path_1458" data-name="Path 1458" class="cls-16" d="M1584.35,2161.77l.765,7.655-33.355,12.68-46.675-6.125.765-13.77-36.73,16.835,99.235,13.48,49.27-23.54Z" transform="translate(-1452.285 -1930.36)"/>
            <path id="Path_1459" data-name="Path 1459" class="cls-17" d="M1552.52,2209.325l8.65,55-125.72-18.275,16.835-49.735Z" transform="translate(-1435.45 -1947.635)"/>
            <path id="Path_1460" data-name="Path 1460" class="cls-12" d="M1660.91,1872.33l-28.04,6.99,4.93,159.07,32.56-12.92Z" transform="translate(-1534.16 -1785.64)"/>
            <path id="Path_1461" data-name="Path 1461" class="cls-18" d="M1586.505,1882.16l-43.925-3.5-3.06,157.625,51.6,5.27Z" transform="translate(-1487.485 -1788.805)"/>
            <path id="Path_1462" data-name="Path 1462" class="cls-19" d="M1587.7,2166.172l-1.46-32a1.96,1.96,0,0,0-1.745-1.87l-22.655-2.385a1.525,1.525,0,0,0-1.71,1.325,1.4,1.4,0,0,0,0,.205l-.725,31.66Z" transform="translate(-1497.43 -1914.427)"/>
            <path id="Path_1463" data-name="Path 1463" class="cls-12" d="M1545.325,1851.99l-.315,31.32,45.49,8.425,27.295-16.41-1.31-18.745Z" transform="translate(-1490.23 -1775.47)"/>
            <path id="Path_1464" data-name="Path 1464" class="cls-18" d="M1575.37,1802.55l-2.04,43.54-54.1-4.055-12.82-45.635Z" transform="translate(-1470.93 -1747.675)"/>
            <path id="Path_1465" data-name="Path 1465" class="cls-12" d="M1684.47,1785.47l-10.265,42.86-33.965,12.265,2.045-43.71Z" transform="translate(-1537.845 -1742.21)"/>
            <path id="Path_1466" data-name="Path 1466" class="cls-12" d="M1617.58,1698.95l16.73,55.16,43.675-13.6Z" transform="translate(-1526.515 -1698.95)"/>
            <path id="Path_1467" data-name="Path 1467" class="cls-17" d="M1556.665,1698.95l-60.915,48.725,77.645,6.435Z" transform="translate(-1465.6 -1698.95)"/>
            <path id="Path_1468" data-name="Path 1468" class="cls-19" d="M1535,1813.983l5.17,22.86a3.5,3.5,0,0,0,2.945,2.55l30.92,2.885a3.554,3.554,0,0,0,3.67-3.5l1.73-22.9a3.707,3.707,0,0,0-3.1-4.11h-.07l-37.81-2.795a3.565,3.565,0,0,0-3.615,3.565A4.3,4.3,0,0,0,1535,1813.983Z" transform="translate(-1485.138 -1753.958)"/>
            <path id="Path_1469" data-name="Path 1469" class="cls-19" d="M1683.982,1803.606l-5.28,23.2a2.44,2.44,0,0,1-1.5,1.785l-20,7a2.245,2.245,0,0,1-2.87-1.655c-.085-.29-.12,1.095-.1.79l1.26-24.645a2.54,2.54,0,0,1,1.595-2.4l24-7.175a2.24,2.24,0,0,1,2.875,1.635,2.845,2.845,0,0,1,.025,1.47Z" transform="translate(-1544.837 -1749.671)"/>
          </g>
        </g>
        <path id="Path_1470" data-name="Path 1470" class="cls-20" d="M884.05,1511.65s26.56,49.38,27.2,67.23-11.47,30.545-41.5,20.82c-31.23-10.115,14.3-88.05,14.3-88.05" transform="translate(-891.965 -1586.65)"/>
        <path id="Path_1471" data-name="Path 1471" class="cls-21" d="M878.837,1545.885s31.85,36.62,35.875,51.415-3.595,27.5-30.57,24.58c-28.05-3.035-5.305-76-5.305-76" transform="translate(-897.632 -1603.765)"/>
        <path id="Path_1472" data-name="Path 1472" class="cls-22" d="M889.41,1629.145l9.595,6.44v-14.6l-3.08-2.335-7.02,2.7-.585-1.525,6.075-2.34-4.84-3.675.99-1.3,8.46,6.415V1602.46h2.28v8.015l5.185-4.065,1.01,1.285-6.195,4.86V1628.9l4.99-2.63.73-7.265,1.63.165-.625,6.19,5.28-2.78.76,1.45-12.765,6.715v11.775l8.51-4.48.76,1.45-9.27,4.88v19.34h-2.28v-26.155L888.5,1630.5Z" transform="translate(-906.725 -1632.055)"/>
        <path id="Path_1473" data-name="Path 1473" class="cls-20" d="M1052.348,1498.49s-30.37,56.46-31.1,76.87,13.115,34.93,47.45,23.81c35.7-11.565-16.355-100.68-16.355-100.68" transform="translate(-973.178 -1580.07)"/>
        <path id="Path_1474" data-name="Path 1474" class="cls-21" d="M1066.2,1537.64s-36.415,41.875-41,58.79,4.1,31.435,34.95,28.1c32.075-3.465,6.065-86.9,6.065-86.9" transform="translate(-974.594 -1599.645)"/>
        <path id="Path_1475" data-name="Path 1475" class="cls-22" d="M1076.79,1632.84l-10.965,7.365v-16.7l3.52-2.67,8.025,3.09.675-1.745-6.95-2.675,5.53-4.195-1.125-1.49-9.675,7.335V1602.33h-2.61v9.165l-5.93-4.65-1.155,1.47,7.085,5.555v18.69l-5.705-3.005-.835-8.31-1.86.19.71,7.075-6.035-3.175-.87,1.655,14.6,7.68v13.465l-9.73-5.12-.87,1.655,10.6,5.575v22.115h2.61v-29.9l12.01-8.07Z" transform="translate(-986.875 -1631.99)"/>
        <path id="Path_1476" data-name="Path 1476" class="cls-20" d="M949.257,1429.88s-43.07,80.06-44.095,109.03,18.595,49.54,67.3,33.765c50.64-16.4-23.2-142.8-23.2-142.8" transform="translate(-915.127 -1545.765)"/>
        <path id="Path_1477" data-name="Path 1477" class="cls-21" d="M968.883,1485.4s-51.65,59.4-58.175,83.385,5.82,44.59,49.57,39.865c45.5-4.915,8.6-123.25,8.6-123.25" transform="translate(-917.103 -1573.525)"/>
        <path id="Path_1478" data-name="Path 1478" class="cls-22" d="M983.92,1620.43l-15.555,10.45v-23.69l4.99-3.785,11.385,4.385.955-2.475-9.855-3.795,7.845-5.955-1.6-2.11-13.72,10.405v-26.7h-3.7v12.995l-8.41-6.59-1.64,2.085,10.05,7.875v26.51l-8.1-4.26-1.18-11.785-2.645.265,1.015,10.04-8.565-4.505-1.235,2.345,20.705,10.9v19.095l-13.8-7.265-1.235,2.35,15.035,7.91v31.365h3.7v-42.41L985.4,1622.63Z" transform="translate(-934.545 -1619.405)"/>
        <path id="Path_1479" data-name="Path 1479" class="cls-20" d="M1876.249,1850.11s32,59.465,32.745,80.96-13.81,36.785-49.97,25.075c-37.6-12.18,17.225-106.035,17.225-106.035" transform="translate(-1385.489 -1755.88)"/>
        <path id="Path_1480" data-name="Path 1480" class="cls-21" d="M1869.967,1891.34s38.35,44.1,43.2,61.915-4.325,33.11-36.81,29.6c-33.78-3.65-6.385-91.5-6.385-91.5" transform="translate(-1392.307 -1776.495)"/>
        <path id="Path_1481" data-name="Path 1481" class="cls-22" d="M1882.7,1991.6l11.55,7.76v-17.59l-3.7-2.81-8.45,3.255-.71-1.835,7.32-2.82-5.83-4.42,1.19-1.57,10.185,7.73v-19.83h2.75v9.655l6.245-4.9,1.215,1.55-7.46,5.85v19.68l6.01-3.16.88-8.75,1.96.195-.75,7.455,6.355-3.345.92,1.74-15.375,8.09v14.18l10.25-5.4.915,1.745-11.165,5.875v23.29h-2.75v-31.49l-12.645-8.5Z" transform="translate(-1403.255 -1810.56)"/>
        <path id="Path_1482" data-name="Path 1482" class="cls-20" d="M2078.913,1834.26s-36.575,68-37.445,92.575,15.79,42.06,57.14,28.67c43-13.93-19.695-121.245-19.695-121.245" transform="translate(-1483.283 -1747.955)"/>
        <path id="Path_1483" data-name="Path 1483" class="cls-21" d="M2095.568,1881.41s-43.85,50.425-49.4,70.8,4.945,37.86,42.09,33.845c38.63-4.17,7.305-104.64,7.305-104.64" transform="translate(-1484.958 -1771.53)"/>
        <path id="Path_1484" data-name="Path 1484" class="cls-22" d="M2108.345,1996.05l-13.2,8.875V1984.81l4.235-3.215,9.67,3.725.805-2.1-8.365-3.22,6.665-5.055-1.36-1.795-11.65,8.835v-22.67H2092v11.035l-7.14-5.595-1.39,1.77,8.53,6.69v22.505l-6.87-3.62-1-10-2.24.225.855,8.525-7.27-3.825-1.045,1.99,17.575,9.25v16.215l-11.715-6.165-1.05,1.99,12.765,6.72v26.63h3.145v-36.01l14.46-9.715Z" transform="translate(-1499.775 -1810.48)"/>
        <path id="Path_1485" data-name="Path 1485" class="cls-20" d="M1954.769,1751.64s-51.87,96.435-53.1,131.3,22.4,59.66,81.035,40.665c61-19.75-27.93-171.96-27.93-171.96" transform="translate(-1413.374 -1706.645)"/>
        <path id="Path_1486" data-name="Path 1486" class="cls-21" d="M1978.393,1818.505s-62.2,71.5-70.06,100.41,7,53.7,59.695,48c54.79-5.92,10.365-148.415,10.365-148.415" transform="translate(-1415.748 -1740.075)"/>
        <path id="Path_1487" data-name="Path 1487" class="cls-22" d="M1996.51,1981.11l-18.73,12.585v-28.53l6.005-4.56,13.715,5.28,1.145-2.98-11.865-4.57,9.45-7.17-1.93-2.545-16.52,12.535V1929h-4.455v15.655l-10.13-7.945-1.975,2.515,12.1,9.485v31.92l-9.75-5.13-1.425-14.19-3.18.32,1.215,12.085-10.305-5.42-1.49,2.825,24.935,13.12v22.99l-16.625-8.745-1.485,2.83,18.11,9.525v37.775h4.455V1997.54l20.51-13.78Z" transform="translate(-1436.76 -1795.325)"/>
        <path id="Path_1488" data-name="Path 1488" class="cls-12" d="M764.875,675.885l-6.915-12.29,3.24-.255-5.185-8.025,3.245-.25-6.915-9.03,3.025-.25-6.7-11.54-.075.29v-.375l-6.7,11.54,3.025.25-6.915,9.03,3.245.25-5.19,8.025,3.245.255L732.39,675.8l5.68-.075-.005.02Z" transform="translate(-828.76 -1147.905)"/>
        <rect id="Rectangle_270" data-name="Rectangle 270" class="cls-12" width="2.48" height="12.39" transform="translate(-81.365 -474.935)"/>
        <path id="Path_1489" data-name="Path 1489" class="cls-12" d="M786.73,682.55l-6.915-12.29,3.24-.25-5.185-8.025,3.24-.25-6.915-9.03,3.025-.25-6.695-11.54-.075.29,0-.375-6.7,11.535,3.025.255-6.915,9.03,3.24.25-5.185,8.025,3.24.25-6.915,12.29,5.685-.07-.01.02Z" transform="translate(-839.685 -1151.24)"/>
        <rect id="Rectangle_271" data-name="Rectangle 271" class="cls-12" width="2.48" height="9.085" transform="translate(-70.44 -471.715)"/>
        <path id="Path_1490" data-name="Path 1490" class="cls-12" d="M664.44,614.58l-4.02-7.14,1.885-.15-3.015-4.665,1.885-.145-4.02-5.245,1.76-.145-3.89-6.71-.045.17v-.22l-3.9,6.71,1.76.145-4.02,5.245,1.885.15-3.015,4.665,1.885.145-4.02,7.14,3.3-.04v.01Z" transform="translate(-785.345 -1125.99)"/>
        <rect id="Rectangle_272" data-name="Rectangle 272" class="cls-12" width="1.44" height="7.2" transform="translate(-131.065 -513.1)"/>
        <path id="Path_1491" data-name="Path 1491" class="cls-12" d="M677.145,618.46l-4.02-7.145,1.885-.145-3.015-4.665,1.885-.145-4.02-5.25,1.76-.145-3.9-6.7-.045.165v-.215l-3.895,6.705,1.76.145-4.02,5.25,1.885.145L660.4,611.12l1.885.145-4.02,7.145,3.3-.045-.005.015Z" transform="translate(-791.695 -1127.93)"/>
        <rect id="Rectangle_273" data-name="Rectangle 273" class="cls-12" width="1.44" height="5.28" transform="translate(-124.715 -511.23)"/>
        <rect id="Rectangle_274" data-name="Rectangle 274" class="cls-23" width="3.925" height="19.63" transform="translate(-291.78 -368.29)"/>
        <path id="Path_1492" data-name="Path 1492" class="cls-23" d="M380.12,878.76l-10.955-19.47,5.135-.4-8.215-12.715,5.135-.4L360.265,831.47l4.795-.4-10.615-18.28-.115.455-.005-.59-10.61,18.28,4.79.4-10.95,14.305,5.135.4-8.22,12.715,5.135.4L328.65,878.625l9-.115,0,.035Z" transform="translate(-626.89 -1237.155)"/>
        <rect id="Rectangle_275" data-name="Rectangle 275" class="cls-23" width="3.925" height="14.395" transform="translate(-274.465 -363.195)"/>
        <path id="Path_1493" data-name="Path 1493" class="cls-23" d="M345.5,868.2l-10.955-19.47,5.135-.4-8.22-12.715,5.14-.4-10.955-14.3,4.79-.4-10.61-18.275-.12.455v-.59L309.09,820.375l4.8.4-10.955,14.3,5.135.4-8.215,12.715,5.135.4L294.03,868.065l9-.12-.01.04Z" transform="translate(-609.58 -1231.875)"/>
        <path id="Path_1494" data-name="Path 1494" class="cls-23" d="M1893.115,792.615l-9.545-16.975,4.475-.345-7.165-11.085,4.48-.35-9.55-12.47,4.175-.345-9.25-15.935-.1.4-.005-.515-9.25,15.935,4.18.345-9.55,12.475,4.475.345-7.16,11.085,4.475.345-9.55,16.975,7.845-.1,0,.03Z" transform="translate(-1386.69 -1198.32)"/>
        <rect id="Rectangle_276" data-name="Rectangle 276" class="cls-23" width="3.42" height="17.11" transform="translate(482.285 -409.73)"/>
        <path id="Path_1495" data-name="Path 1495" class="cls-23" d="M1923.3,801.825l-9.55-16.975,4.475-.35-7.16-11.085,4.475-.345-9.55-12.47,4.18-.35-9.25-15.935-.105.4V744.2l-9.25,15.935,4.175.345-9.55,12.47,4.475.35-7.16,11.085,4.475.345-9.55,16.975,7.85-.105-.01.035Z" transform="translate(-1401.78 -1202.925)"/>
        <rect id="Rectangle_277" data-name="Rectangle 277" class="cls-23" width="3.42" height="12.55" transform="translate(497.375 -405.285)"/>
        <path id="Path_1496" data-name="Path 1496" class="cls-23" d="M1991.4,857.2l-11.37-20.21,5.33-.41-8.53-13.2,5.33-.41-11.37-14.85,4.975-.41-11.01-18.975-.125.475v-.615l-11.015,18.97,4.97.415L1947.22,822.82l5.33.415-8.53,13.2,5.33.415-11.37,20.21,9.34-.125-.005.04Z" transform="translate(-1431.555 -1225.12)"/>
        <rect id="Rectangle_278" data-name="Rectangle 278" class="cls-23" width="4.075" height="20.37" transform="translate(531.1 -372.715)"/>
        <path id="Path_1497" data-name="Path 1497" class="cls-23" d="M2027.335,868.155l-11.37-20.21,5.33-.41-8.525-13.2,5.33-.41-11.37-14.85,4.975-.41L2000.69,799.7l-.12.47-.005-.615-11.015,18.975,4.975.41-11.37,14.85,5.33.41-8.525,13.2,5.33.41-11.37,20.21,9.34-.125-.01.04Z" transform="translate(-1449.525 -1230.6)"/>
        <rect id="Rectangle_279" data-name="Rectangle 279" class="cls-23" width="4.075" height="14.94" transform="translate(549.065 -367.425)"/>
        <path id="Path_1498" data-name="Path 1498" class="cls-23" d="M676.695,775.855l-12.23-21.745,5.735-.44-9.175-14.2,5.735-.445-12.23-15.97,5.35-.445L648.03,702.2l-.13.51-.005-.66-11.85,20.41,5.355.44-12.235,15.975,5.735.445-9.175,14.2,5.735.44L619.23,775.7l10.05-.13-.01.04Z" transform="translate(-772.18 -1181.85)"/>
        <rect id="Rectangle_280" data-name="Rectangle 280" class="cls-23" width="4.385" height="21.915" transform="translate(-126.41 -411.15)"/>
        <path id="Path_1499" data-name="Path 1499" class="cls-23" d="M715.355,787.645l-12.23-21.74,5.735-.445-9.175-14.2,5.735-.44-12.23-15.975,5.35-.445-11.85-20.41-.13.51-.005-.66-11.85,20.41,5.355.445-12.235,15.97,5.735.445-9.175,14.2,5.735.44-12.23,21.745,10.05-.135-.01.045Z" transform="translate(-791.51 -1187.745)"/>
        <rect id="Rectangle_281" data-name="Rectangle 281" class="cls-23" width="4.385" height="16.07" transform="translate(-107.08 -405.46)"/>
        <path id="Path_1500" data-name="Path 1500" class="cls-23" d="M552.82,894.84,538.85,875.2l6.375-.52-10.44-12.8,6.37-.52L527.28,846.99l5.95-.515L519.7,828.045l-.135.47-.015-.605-12.855,18.9,5.965.3-13.35,14.855,6.39.29-9.98,13.17,6.39.29L488.86,895.85l11.18-.32-.01.035Z" transform="translate(-706.995 -1244.78)"/>
        <rect id="Rectangle_282" data-name="Rectangle 282" class="cls-23" width="4.88" height="14.7" transform="translate(-187.664 -354.7) rotate(-1.146)"/>
        <path id="Path_1501" data-name="Path 1501" class="cls-12" d="M1495.335,704.77l-3.19-6.125,1.44-.15-2.38-3.995,1.44-.15-3.155-4.485,1.34-.15-3.085-5.75-.03.145v-.19l-2.88,5.855,1.35.1-3,4.595,1.445.1-2.235,4.08,1.445.1-2.965,6.235,2.525-.085-.005.01Z" transform="translate(-1203.005 -1172.785)"/>
        <rect id="Rectangle_283" data-name="Rectangle 283" class="cls-12" width="1.105" height="4.57" transform="translate(284.534 -469.411) rotate(-1.03)"/>
        <path id="Path_1502" data-name="Path 1502" class="cls-12" d="M631.24,600.6l-3.19-6.125,1.44-.15-2.38-4,1.44-.15L625.4,585.7l1.34-.15-3.085-5.75-.03.145v-.19l-2.88,5.86,1.35.1-3,4.6,1.445.1-2.235,4.08,1.445.095-2.97,6.24,2.53-.085v.01Z" transform="translate(-770.955 -1120.7)"/>
        <rect id="Rectangle_284" data-name="Rectangle 284" class="cls-12" width="1.105" height="4.57" transform="translate(-147.514 -521.485) rotate(-1.03)"/>
        <path id="Path_1503" data-name="Path 1503" class="cls-12" d="M1517.795,706.07l-3.185-6.125,1.44-.15-2.38-3.995,1.44-.15-3.16-4.485,1.345-.155-3.085-5.745-.03.145,0-.19-2.875,5.855,1.345.105-3,4.6,1.445.1-2.235,4.075,1.445.1-2.965,6.235,2.525-.08v.01Z" transform="translate(-1214.235 -1173.435)"/>
        <rect id="Rectangle_285" data-name="Rectangle 285" class="cls-12" width="1.105" height="4.57" transform="translate(295.764 -468.763) rotate(-1.03)"/>
        <path id="Path_1504" data-name="Path 1504" class="cls-11" d="M1507.95,594.6l-2.78-5.34,1.255-.13-2.075-3.485,1.255-.13-2.75-3.91,1.17-.13-2.69-5.01-.025.125-.005-.165-2.5,5.105,1.175.09-2.61,4.005,1.255.085-1.945,3.555,1.26.09-2.585,5.435,2.2-.075v.01Z" transform="translate(-1210.24 -1119.04)"/>
        <rect id="Rectangle_286" data-name="Rectangle 286" class="cls-11" width="0.96" height="3.98" transform="translate(290.911 -525.657) rotate(-1.03)"/>
        <path id="Path_1505" data-name="Path 1505" class="cls-11" d="M1532.25,603.26l-2.775-5.335,1.255-.135-2.075-3.48,1.255-.135-2.755-3.91,1.175-.13-2.69-5.01-.025.13-.005-.165-2.51,5.1,1.175.09-2.61,4.005,1.26.09-1.95,3.555,1.26.085-2.585,5.435,2.2-.07,0,.01Z" transform="translate(-1222.39 -1123.37)"/>
        <rect id="Rectangle_287" data-name="Rectangle 287" class="cls-11" width="0.96" height="3.98" transform="translate(303.067 -521.331) rotate(-1.03)"/>
        <path id="Path_1506" data-name="Path 1506" class="cls-11" d="M1546.71,615.82l-2.775-5.335,1.255-.135-2.075-3.48,1.255-.135-2.755-3.91,1.17-.13-2.685-5.01-.025.13,0-.165-2.51,5.1,1.175.085-2.61,4,1.26.09-1.95,3.555,1.26.085-2.585,5.435,2.2-.07,0,.01Z" transform="translate(-1229.62 -1129.65)"/>
        <rect id="Rectangle_288" data-name="Rectangle 288" class="cls-11" width="0.96" height="3.98" transform="translate(311.056 -516.563) rotate(-1.146)"/>
        <path id="Path_1507" data-name="Path 1507" class="cls-11" d="M934.32,693.95l-2.76-5.3,1.245-.135-2.06-3.46,1.245-.13-2.735-3.89,1.165-.13-2.675-4.98-.025.125-.005-.165-2.49,5.075,1.165.09-2.6,3.985,1.25.085-1.935,3.535,1.25.085-2.57,5.405,2.19-.075v.01Z" transform="translate(-923.46 -1168.765)"/>
        <rect id="Rectangle_289" data-name="Rectangle 289" class="cls-11" width="0.955" height="3.96" transform="translate(4.1 -476.018) rotate(-1.03)"/>
        <path id="Path_1508" data-name="Path 1508" class="cls-11" d="M952.82,682.485l-2.765-5.3,1.25-.13-2.065-3.465,1.25-.13-2.74-3.885,1.165-.135-2.675-4.98-.025.125-.005-.16-2.49,5.075,1.17.085-2.6,3.985,1.255.085-1.94,3.535,1.255.085-2.57,5.4,2.19-.07-.005.01Z" transform="translate(-932.71 -1163.035)"/>
        <rect id="Rectangle_290" data-name="Rectangle 290" class="cls-11" width="0.955" height="3.96" transform="translate(13.345 -481.753) rotate(-1.03)"/>
        <path id="Path_1509" data-name="Path 1509" class="cls-12" d="M1543.575,685.08l-2.495-4.785,1.125-.12-1.855-3.12,1.125-.12-2.47-3.505,1.05-.115-2.41-4.49-.025.11v-.145l-2.25,4.575,1.055.08-2.34,3.59,1.13.075-1.75,3.185,1.13.08-2.315,4.87,1.975-.065-.005.01Z" transform="translate(-1228.705 -1165.22)"/>
        <rect id="Rectangle_291" data-name="Rectangle 291" class="cls-12" width="0.86" height="3.57" transform="translate(308.777 -481.235) rotate(-1.03)"/>
        <path id="Path_1510" data-name="Path 1510" class="cls-23" d="M593.785,850.665,579.67,823.09l6.375-.685-10.54-17.985,6.375-.685-13.98-20.2,5.945-.675-13.66-25.885-.13.655-.02-.845-12.72,26.355,5.965.465-13.245,20.685,6.39.45L536.54,823.1l6.395.455L529.82,851.62l11.18-.37-.01.055Z" transform="translate(-727.475 -1209.22)"/>
        <rect id="Rectangle_292" data-name="Rectangle 292" class="cls-23" width="4.88" height="20.57" transform="translate(-168.224 -364.8) rotate(-1.03)"/>
        <path id="Path_1511" data-name="Path 1511" class="cls-23" d="M391.38,1186.61h-3.835l-2.09-2.09-8,5.575-7.665,14.115-2.27,1.22-5.935,11.33-6.275,12.37,4.705,18.3s22.65,10.63,23.175,10.805,21.41-2.64,21.41-2.64l17.45-11.5-5.58-23.33-1.565-16.9-12.2-8.885-2.265-3.31Z" transform="translate(-640.22 -1423.085)"/>
        <path id="Path_1512" data-name="Path 1512" class="cls-11" d="M421.35,1207c.5,0,13.94-1.57,13.94-1.57l2.44,1.57-6.445,1.74-5.4,8-5.4,12.72Z" transform="translate(-672.805 -1433.54)"/>
        <path id="Path_1513" data-name="Path 1513" class="cls-23" d="M430.935,1197.41l-7.145,1.05-5.75,1.215h8.885l6.275.35-.87-1.83Z" transform="translate(-671.585 -1429.53)"/>
        <path id="Path_1514" data-name="Path 1514" class="cls-23" d="M461.665,1224.07l2.53-.87,1.565,16.9,5.84,23.355-17.71,11.47.2-3.455,10.11-7.5,1.3-4-4.18-12.37s-1.22,3.225-1.22,2.785-.7-9.5-.7-9.5Z" transform="translate(-689.51 -1442.425)"/>
        <path id="Path_1515" data-name="Path 1515" class="cls-23" d="M481.9,1300.22l-6.1-3.49-1.3,4.01Z" transform="translate(-699.815 -1479.19)"/>
        <path id="Path_1516" data-name="Path 1516" class="cls-23" d="M453.43,1315.275l-.27-3.735,10.67-7.31,7.4-.52Z" transform="translate(-689.145 -1482.68)"/>
        <path id="Path_1517" data-name="Path 1517" class="cls-23" d="M383.19,1302.83l-5.345-8.375-15.65-7.275-6.885-13.45,4.705,18.295Z" transform="translate(-640.22 -1467.69)"/>
        <path id="Path_1518" data-name="Path 1518" class="cls-23" d="M400.38,1315.18l26.39,2.095.27,3.735-21.315,2.545Z" transform="translate(-662.755 -1488.415)"/>
        <path id="Path_1519" data-name="Path 1519" class="cls-23" d="M233.8,1282.82c1.5,0,63.72,1.5,63.72,1.5l-22.58-19.57L203.7,1234.64l-2,8.535Z" transform="translate(-563.415 -1448.145)"/>
        <path id="Path_1520" data-name="Path 1520" class="cls-23" d="M381.81,1281.81l8.53,26.59-19.57-.5-22.58-19.57Z" transform="translate(-636.66 -1471.73)"/>
        <path id="Path_1521" data-name="Path 1521" class="cls-23" d="M425.965,1258.73l3.01,21.575-5.015,16.555-8.53-26.59Z" transform="translate(-670.28 -1460.19)"/>
        <path id="Path_1522" data-name="Path 1522" class="cls-11" d="M205.7,1213.57l71.245,30.1,32.115-4.01,12.04-14.05-12.845-11.08-14.25-8.99-14.045-12.04-11.04-1.005-56.2,16.055Z" transform="translate(-565.415 -1427.075)"/>
        <path id="Path_1523" data-name="Path 1523" class="cls-23" d="M339.055,1207.95l-31.545,5.32h37.4Z" transform="translate(-616.32 -1434.8)"/>
        <path id="Path_1524" data-name="Path 1524" class="cls-23" d="M330.865,1194.51l-18.85,6.075-4.505,5.965,31.545-5.32Z" transform="translate(-616.32 -1428.08)"/>
        <path id="Path_1525" data-name="Path 1525" class="cls-20" d="M415.8,1170.64s21.39,39.77,21.9,54.145-9.235,24.6-33.42,16.77c-25.15-8.145,11.5-70.915,11.5-70.915" transform="translate(-660.298 -1416.145)"/>
        <path id="Path_1526" data-name="Path 1526" class="cls-21" d="M411.6,1198.21s25.65,29.5,28.89,41.41-2.89,22.145-24.615,19.8c-22.6-2.445-4.275-61.21-4.275-61.21" transform="translate(-664.861 -1429.93)"/>
        <path id="Path_1527" data-name="Path 1527" class="cls-22" d="M420.115,1265.27l7.72,5.19V1258.7l-2.475-1.88-5.655,2.175-.475-1.23,4.895-1.88-3.895-2.96.8-1.05,6.81,5.17v-13.26h1.84v6.455l4.18-3.275.81,1.035-4.99,3.915v13.16l4.02-2.115.59-5.85,1.31.13-.5,4.985,4.255-2.235.615,1.165-10.285,5.41v9.485l6.855-3.61.615,1.165-7.47,3.93v15.58h-1.84v-21.065l-8.455-5.685Z" transform="translate(-672.18 -1452.715)"/>
        <path id="Path_1528" data-name="Path 1528" class="cls-20" d="M551.349,1160s-24.46,45.5-25.04,61.91,10.56,28.135,38.21,19.175c28.76-9.31-13.17-81.085-13.17-81.085" transform="translate(-725.708 -1410.825)"/>
        <path id="Path_1529" data-name="Path 1529" class="cls-21" d="M562.488,1191.555s-29.33,33.725-33.035,47.35,3.3,25.32,28.15,22.635c25.835-2.79,4.885-70,4.885-70" transform="translate(-726.828 -1426.595)"/>
        <path id="Path_1530" data-name="Path 1530" class="cls-22" d="M571.03,1268.245l-8.83,5.93v-13.45l2.83-2.15,6.465,2.49.545-1.4-5.6-2.155,4.46-3.38-.91-1.2-7.79,5.91V1243.67h-2.105v7.38l-4.775-3.745-.93,1.19,5.7,4.47v15.05L555.5,1265.6l-.67-6.7-1.5.15.575,5.705-4.865-2.56-.7,1.33,11.755,6.19v10.84l-7.835-4.125-.7,1.335,8.535,4.495v17.81H562.2V1275.99l9.67-6.495Z" transform="translate(-736.735 -1452.66)"/>
        <path id="Path_1531" data-name="Path 1531" class="cls-20" d="M468.33,1104.78s-34.69,64.5-35.5,87.81,15,39.9,54.2,27.2c40.785-13.21-18.685-115-18.685-115" transform="translate(-678.965 -1383.215)"/>
        <path id="Path_1532" data-name="Path 1532" class="cls-21" d="M484.12,1149.5s-41.6,47.835-46.855,67.16,4.69,35.91,39.925,32.1c36.64-3.96,6.93-99.265,6.93-99.265" transform="translate(-680.541 -1405.575)"/>
        <path id="Path_1533" data-name="Path 1533" class="cls-22" d="M496.235,1258.25l-12.53,8.415v-19.08l4.02-3.045,9.17,3.53.765-2-7.935-3.055,6.32-4.795-1.29-1.7-11.05,8.38V1223.4h-2.98v10.47l-6.775-5.315-1.32,1.685,8.095,6.34v21.35l-6.515-3.43-.955-9.49-2.13.21.815,8.085-6.9-3.625-.995,1.89,16.675,8.775v15.375l-11.115-5.845-.995,1.89,12.11,6.37V1303.4h2.98v-34.16l13.72-9.215Z" transform="translate(-694.59 -1442.525)"/>
        <path id="Path_1534" data-name="Path 1534" class="cls-23" d="M1069.3,1798.835l-44.76,5.7L984.21,1797.7l-17.965-12.06L950.26,1762.37l-1.17-5.05,110.335,16.61,14.43.965,3.7,17.34Z" transform="translate(-937.11 -1709.485)"/>
        <path id="Path_1535" data-name="Path 1535" class="cls-11" d="M1072.4,1774.84c-1.5-.24-24.31,3.935-24.31,3.935l-29.9-1.1s-35.42-5.41-36.575-6.05-32.535-18.9-32.535-18.9l10.64-4.595,40.28,2.045,63.45,14.765,10.4,5.36Z" transform="translate(-937.11 -1704.89)"/>
        <path id="Path_1536" data-name="Path 1536" class="cls-18" d="M949.09,1752.725l48.01,2.115,2.91-4.665-40.28-2.045Z" transform="translate(-937.11 -1704.89)"/>
        <path id="Path_1537" data-name="Path 1537" class="cls-23" d="M1045.11,1756.885l49.9,24.03,25.405-4.03,1.45-4.54-10.4-5.36-63.45-14.765Z" transform="translate(-985.12 -1706.935)"/>
        <path id="Path_1538" data-name="Path 1538" class="cls-24" d="M1092.15,1822.11l-7.83-22.505,31.39,1.34,24.31-3.935,1.45-4.54,3.7,17.34-8.26,6.6Z" transform="translate(-1004.725 -1727.06)"/>
        <path id="Path_1539" data-name="Path 1539" class="cls-24" d="M984.03,1797.725l-2.405-21.5L949.09,1757.32l.315,3.65,15.745,24.765Z" transform="translate(-937.11 -1709.485)"/>
        <path id="Path_1540" data-name="Path 1540" class="cls-23" d="M1005.36,1830.455l-11.39-12.635-7.925-2.26-7.115,2.82-5.83,4.92,1.59,1.335,2.055,6.815,8.525.735,12.4,2.98Z" transform="translate(-949.115 -1738.605)"/>
        <path id="Path_1541" data-name="Path 1541" class="cls-11" d="M990.625,1824.45l-15.935,1.835-1.59-1.335,5.83-4.92,2.935-1.17,13.11,1.63Z" transform="translate(-949.115 -1740.255)"/>
        <path id="Path_1542" data-name="Path 1542" class="cls-24" d="M976.745,1839.19l-2.285-.91-1.36-7.24,1.585,1.335Z" transform="translate(-949.115 -1746.345)"/>
        <path id="Path_1543" data-name="Path 1543" class="cls-24" d="M1008.15,1826.08l7.045,12.365,7.69-4.71L1012.5,1822.12Z" transform="translate(-966.64 -1741.885)"/>
        <path id="Path_1544" data-name="Path 1544" class="cls-24" d="M1075.03,1728.54h3.5l1.91-1.91,7.325,5.09,7,12.9,2.07,1.115,5.41,10.345,5.73,11.3-4.3,16.715s-20.67,9.725-21.17,9.87-19.555-2.41-19.555-2.41l-15.94-10.5,5.095-21.33,1.43-15.44,11.145-8.115,2.065-3Z" transform="translate(-986.07 -1694.14)"/>
        <path id="Path_1545" data-name="Path 1545" class="cls-11" d="M1092.865,1747.16c-.5,0-12.735-1.43-12.735-1.43l-2.23,1.43,5.89,1.595,4.935,7.32,4.935,11.62Z" transform="translate(-1001.515 -1703.69)"/>
        <path id="Path_1546" data-name="Path 1546" class="cls-18" d="M1086.02,1738.41l6.525.955,5.255,1.11h-8.12l-5.73.32.8-1.67Z" transform="translate(-1004.54 -1700.03)"/>
        <path id="Path_1547" data-name="Path 1547" class="cls-11" d="M1055.615,1762.76l-2.31-.8-1.43,15.44-5.335,21.335,16.18,10.5-.18-3.16-9.235-6.845-1.19-3.66,3.815-11.305a16.191,16.191,0,0,0,1.115,2.55c0-.4.64-8.68.64-8.68Z" transform="translate(-985.835 -1711.805)"/>
        <path id="Path_1548" data-name="Path 1548" class="cls-11" d="M1046.54,1832.325l5.575-3.185,1.19,3.66Z" transform="translate(-985.835 -1745.395)"/>
        <path id="Path_1549" data-name="Path 1549" class="cls-24" d="M1062.8,1846.07l.25-3.405-9.75-6.68-6.765-.475Z" transform="translate(-985.835 -1748.58)"/>
        <path id="Path_1550" data-name="Path 1550" class="cls-25" d="M1118.01,1834.705l4.885-7.65,14.3-6.65,6.285-12.285-4.3,16.715Z" transform="translate(-1021.57 -1734.885)"/>
        <path id="Path_1551" data-name="Path 1551" class="cls-23" d="M1103.425,1845.99l-24.105,1.915-.25,3.405,19.47,2.33Z" transform="translate(-1002.1 -1753.82)"/>
        <path id="Path_1552" data-name="Path 1552" class="cls-23" d="M1192.41,1816.42c-1.375,0-58.21,1.375-58.21,1.375l20.625-17.875,65.085-27.5,1.835,7.8Z" transform="translate(-1029.665 -1717.035)"/>
        <path id="Path_1553" data-name="Path 1553" class="cls-24" d="M1106.24,1815.5l-7.79,24.295,17.875-.46,20.625-17.875Z" transform="translate(-1011.79 -1738.575)"/>
        <path id="Path_1554" data-name="Path 1554" class="cls-23" d="M1092.03,1794.42l-2.75,19.71,4.585,15.125,7.79-24.3Z" transform="translate(-1007.205 -1728.035)"/>
        <path id="Path_1555" data-name="Path 1555" class="cls-11" d="M1200.2,1753.17l-65.085,27.5-29.335-3.665-11-12.835,11.735-10.125,13.015-8.21,12.835-11,10.085-.915,51.335,14.665Z" transform="translate(-1009.955 -1697.785)"/>
        <path id="Path_1556" data-name="Path 1556" class="cls-23" d="M1149.63,1748.03l28.815,4.86H1144.28Z" transform="translate(-1034.705 -1704.84)"/>
        <path id="Path_1557" data-name="Path 1557" class="cls-18" d="M1162.465,1735.75l17.215,5.555,4.115,5.445-28.815-4.86Z" transform="translate(-1040.055 -1698.7)"/>
        <path id="Path_1558" data-name="Path 1558" class="cls-23" d="M1086.515,809.935h-2.19l-1.2-1.2-4.58,3.185-4.385,8.065-1.3.7-3.385,6.5-3.585,7.07,2.69,10.455s12.945,6.075,13.245,6.175,12.235-1.5,12.235-1.5l10-6.555-3.19-13.345-.93-9.7-6.97-5.08-1.295-1.895Z" transform="translate(-995.515 -1235.195)"/>
        <path id="Path_1559" data-name="Path 1559" class="cls-11" d="M1103.645,821.585c.3,0,7.97-.895,7.97-.895l1.4.895-3.685,1-3.09,4.58-3.085,7.27Z" transform="translate(-1014.14 -1241.17)"/>
        <path id="Path_1560" data-name="Path 1560" class="cls-23" d="M1109.12,816.11l-4.08.595-3.29.7h5.08l3.585.2-.5-1.05Z" transform="translate(-1013.44 -1238.88)"/>
        <path id="Path_1561" data-name="Path 1561" class="cls-23" d="M1126.685,831.34l1.445-.5.9,9.66,3.34,13.345-10.125,6.575.115-2,5.775-4.285.745-2.29-2.385-7.07a9.988,9.988,0,0,1-.7,1.595c0-.25-.4-5.43-.4-5.43Z" transform="translate(-1023.685 -1246.245)"/>
        <path id="Path_1562" data-name="Path 1562" class="cls-23" d="M1138.255,874.865l-3.49-1.995-.745,2.3Z" transform="translate(-1029.575 -1267.26)"/>
        <path id="Path_1563" data-name="Path 1563" class="cls-23" d="M1121.98,883.47l-.16-2.135,6.1-4.175,4.235-.3Z" transform="translate(-1023.475 -1269.255)"/>
        <path id="Path_1564" data-name="Path 1564" class="cls-23" d="M1081.835,876.36l-3.055-4.785-8.945-4.16-3.935-7.685,2.69,10.455Z" transform="translate(-995.515 -1260.69)"/>
        <path id="Path_1565" data-name="Path 1565" class="cls-23" d="M1091.66,883.42l15.08,1.2.16,2.135-12.185,1.455Z" transform="translate(-1008.395 -1272.535)"/>
        <path id="Path_1566" data-name="Path 1566" class="cls-23" d="M996.445,864.92c.86,0,36.42.86,36.42.86l-12.905-11.185-40.72-17.2-1.15,4.875Z" transform="translate(-951.61 -1249.52)"/>
        <path id="Path_1567" data-name="Path 1567" class="cls-23" d="M1081.045,864.34l4.875,15.2-11.185-.285L1061.83,868.07Z" transform="translate(-993.48 -1262.995)"/>
        <path id="Path_1568" data-name="Path 1568" class="cls-23" d="M1106.28,851.15l1.725,12.335-2.87,9.46-4.875-15.2Z" transform="translate(-1012.695 -1256.4)"/>
        <path id="Path_1569" data-name="Path 1569" class="cls-11" d="M980.39,825.345l40.72,17.205,18.355-2.295,6.88-8.03-7.34-6.33-8.145-5.14-8.03-6.88-6.31-.575-32.115,9.175Z" transform="translate(-952.76 -1237.475)"/>
        <path id="Path_1570" data-name="Path 1570" class="cls-23" d="M1056.61,822.13l-18.03,3.04h21.375Z" transform="translate(-981.855 -1241.89)"/>
        <path id="Path_1571" data-name="Path 1571" class="cls-23" d="M1051.925,814.45l-10.77,3.47-2.575,3.41,18.03-3.04Z" transform="translate(-981.855 -1238.05)"/>
        <path id="Path_1572" data-name="Path 1572" class="cls-26" d="M2161.655,1560.095l-15.075-43.9,1.11,12.88Z" transform="translate(-1535.855 -1588.925)"/>
        <path id="Path_1573" data-name="Path 1573" class="cls-23" d="M1856.87,1575.12l56.165,10.135,34.315-1.92,38.23-.17,9.9-30.115-13.965-31.015L1955.3,1541.11l-39.39,9.755L1861,1528.74l-46.78-26.63,2.52,17.745Z" transform="translate(-1369.675 -1581.88)"/>
        <path id="Path_1574" data-name="Path 1574" class="cls-18" d="M1814.22,1480.855c6.3,1.84,54.585,30.935,54.585,30.935l47.11,17.815,39.39-9.75,26.205-19.055-1.11-12.88-49.11-28.32-76.765,8.345Z" transform="translate(-1369.675 -1560.625)"/>
        <path id="Path_1575" data-name="Path 1575" class="cls-24" d="M2014.73,1589.865l-2.88,34.39,72.545-2.09-30.275-42.055Z" transform="translate(-1468.49 -1620.88)"/>
        <path id="Path_1576" data-name="Path 1576" class="cls-11" d="M2126.665,1603.09l-30.275-42.055,26.205-19.075,13.965,31.015Z" transform="translate(-1510.76 -1601.805)"/>
        <path id="Path_1577" data-name="Path 1577" class="cls-11" d="M1967.16,1636.82l-23.295-18.16-54.16-22.52-44.1-8.7,34.585,17.94,7.41,9.245,17.365,7.055,30.035,7.53Z" transform="translate(-1385.37 -1624.545)"/>
        <path id="Path_1578" data-name="Path 1578" class="cls-23" d="M1824.81,1645.56c.1-2.555,9.6-18.845,9.6-18.845l27.43-2.805,16.655.035,6.645,9.215Z" transform="translate(-1374.97 -1642.78)"/>
        <path id="Path_1579" data-name="Path 1579" class="cls-24" d="M1824.82,1654.8l8.15,2.87,123.795,6.625-55.995-14.91-15.62-6.99Z" transform="translate(-1374.975 -1652.025)"/>
        <path id="Path_1580" data-name="Path 1580" class="cls-24" d="M1858.145,1588.33l-14.115,20.6,44.08-2.77Z" transform="translate(-1384.58 -1624.99)"/>
        <path id="Path_1581" data-name="Path 1581" class="cls-15" d="M1214.16,1235.65l24.4,5.94,24.03-3.58,104.175,7.765-6.285-14.69,10.14-8.12,84.57-5.875-22.715-34.255-65.255-19.2Z" transform="translate(-1069.645 -1412.64)"/>
        <path id="Path_1582" data-name="Path 1582" class="cls-12" d="M1227.59,1164.778s5.555,53.885,29.445,55.275,57.5,3.335,64.46,3.61c4.65.19,48.055-22.135,61.5-29.125a7.6,7.6,0,0,0,4.105-6.64c.095-7.23.64-21.755-3.965-27.095C1355.09,1128.268,1242.87,1146.718,1227.59,1164.778Z" transform="translate(-1076.36 -1402.298)"/>
        <path id="Path_1583" data-name="Path 1583" class="cls-15" d="M1224.66,1175.38v10.095s18.13-8.085,28.035-6c7.875,1.665,16.365,11.79,21.5,17.385,4.97,5.4,26.95,23.06,67.79,14.725s44.5-22.785,41-37.785l-47.655,13.9-85-25Z" transform="translate(-1074.895 -1412.175)"/>
        <path id="Path_1584" data-name="Path 1584" class="cls-12" d="M1265.35,1130.46l109.46,10.46,3.875,31.205-119.985-19.44Z" transform="translate(-1091.915 -1396.055)"/>
        <path id="Path_1585" data-name="Path 1585" class="cls-15" d="M1502.335,1137.86l6.665,29.365-14.2,8.6-3.875-31.2Z" transform="translate(-1208.025 -1399.755)"/>
        <path id="Path_1586" data-name="Path 1586" class="cls-27" d="M1251.355,1144.87l89.9,8.43s11.18,5.085,16.87,12.585a17.421,17.421,0,0,1,3.355,10.125s13.88-8.8,13.745-9.31l-2.7-12.45s16.18,5.365,8.405,20.645-45.11,27.735-71.68,21.43c-24.185-5.74-26.91-12.13-38.065-23.755-10.82-11.265-22.295-13-46.47-2.7v-3.405S1239.48,1147.645,1251.355,1144.87Z" transform="translate(-1074.92 -1403.26)"/>
        <path id="Path_1587" data-name="Path 1587" class="cls-28" d="M1179.536,1207.977a6.6,6.6,0,0,0-1.1,1c-2.79,2.885-14.9,16.04-11.88,24.47,3.405,9.5,4.19,10.5,12.81,15.84s20.47,7.11,34.12,4.11c1.95-.43,3.735-.755,5.355-1,11-1.645,14.655-3.275,14.655-3.275s7.875-27.15,4.325-31.12C1226.846,1205.747,1208.141,1189.7,1179.536,1207.977Z" transform="translate(-1045.601 -1430.687)"/>
        <path id="Path_1588" data-name="Path 1588" class="cls-29" d="M1281.99,1116.03l-9.99,7.215,109.46,10.46,11.415-6.76Z" transform="translate(-1098.565 -1388.84)"/>
        <path id="Path_1589" data-name="Path 1589" class="cls-30" d="M1286.3,970.23l100.935,8.98L1376.56,820.1l-17.015-6.555-57.47,8.245-10.14,10.45Z" transform="translate(-1105.715 -1237.6)"/>
        <path id="Path_1590" data-name="Path 1590" class="cls-15" d="M1483.68,982.26l-6.185,3.505L1466.82,826.66l5,3.86Z" transform="translate(-1195.975 -1244.155)"/>
        <path id="Path_1591" data-name="Path 1591" class="cls-31" d="M1404.423,1275.165s-8.5-1.13-9.3,9.4a5.14,5.14,0,0,0,3.36,5.18c4.625,1.715,14.24,4,29.91,2.12C1451.743,1289.065,1404.423,1275.165,1404.423,1275.165Z" transform="translate(-1160.123 -1468.39)"/>
        <path id="Path_1592" data-name="Path 1592" class="cls-32" d="M1522.935,1236.317s-5.7-.755-6.235,6.3a3.44,3.44,0,0,0,2.255,3.5c3.1,1.15,9.55,2.69,20.06,1.425C1554.67,1245.646,1522.935,1236.317,1522.935,1236.317Z" transform="translate(-1220.91 -1448.972)"/>
        <circle id="Ellipse_33" data-name="Ellipse 33" class="cls-12" cx="6.45" cy="6.45" r="6.45" transform="translate(147.945 -210.705)"/>
        <path id="Path_1593" data-name="Path 1593" class="cls-33" d="M1144.159,2796.61c-4.47,9.235-47.305,26.21-112.36,26.1-62.085-.1-112.2-14.735-111.92-24.7s50.81-16.655,112.865-14.935c35.35,1,55.115,1.27,75.6,5.94C1123.824,2792.54,1150.724,2783.06,1144.159,2796.61Z" transform="translate(-922.504 -2222.225)"/>
        <path id="Path_1594" data-name="Path 1594" class="cls-33" d="M1090.285,2776.363c-3.595.14-9.765.045-8.75-.43l-.735-.27c1.53,0,5.5-.06,8.28,0S1093.465,2775.968,1090.285,2776.363Z" transform="translate(-1002.965 -2218.643)"/>
        <path id="Path_1595" data-name="Path 1595" class="cls-8" d="M1099.945,2780.73c-3.1-.14-.73-.28-.19-.45l4.27.035C1105.32,2780.54,1101.735,2780.64,1099.945,2780.73Z" transform="translate(-1011.755 -2220.965)"/>
        <path id="Path_1596" data-name="Path 1596" class="cls-33" d="M1094.972,2789.458l1.25.1c-1.25-.1-3.08-.14-4.275-.12-.1-.23,2.205-.5,4.66-.4C1096.057,2789.213,1093.656,2789.244,1094.972,2789.458Z" transform="translate(-1008.537 -2225.333)"/>
        <path id="Path_1597" data-name="Path 1597" class="cls-33" d="M945.82,2788.86c-.8.83,3.37,1.155,8.5,1.2l-1.76,1.38c-3.88-.065-11.45,1.385-17.2,2.81-2.155.745,5.425-.87-.175.69-.68,0-.29-.41-1.5-.21a17.9,17.9,0,0,0-4.17,1.93c-.595.325-1.385.68-2.6,1.23-.6.28-1.325.595-2.12,1-.4.2-.815.435-1.235.69a9.128,9.128,0,0,0-1.165.835l-.22.13c-.065.05-.065,0-.115.035a1.048,1.048,0,0,0-.235.12,1.121,1.121,0,0,0-.39.44l-.06.165a1.5,1.5,0,0,0,.255.62,4.849,4.849,0,0,0,.32.415,4.709,4.709,0,0,0,.5.5,15.49,15.49,0,0,0,2.57,1.945,43.858,43.858,0,0,0,6.385,3.155,115.9,115.9,0,0,0,14.065,4.53c9.58,2.5,19.26,4.3,28.5,6,1.7-.03,4.935.355,8.5.74s7.41.77,10.33.88l.1.35c3.4-.24,9,.96,13.185,1.14l3.71.55c.7.32-2,.245-4.415.19s-4.645-.095-3,.45c8,1.06,13.545,0,20.385.775a45.393,45.393,0,0,0,6,0c1.16-.1,2-.235,4.07-.345,1.06-.355-1.34-.33-.91-.735,1.865-.04,3.5-.045,5-.035s2.775,0,3.965.06c2.38.1,4.285.185,6.145.325a74.546,74.546,0,0,0,13.785-.14c.23-.17,2.95-.645,4.38-1.065.71-.21,1.1-.39.71-.5a23.458,23.458,0,0,0-4,0c-1.53.26-3.06.5-4.6.735l-3.18-.16c1.79-.145,4.335-.3,6.33-.5s3.435-.44,3.04-.6a23.04,23.04,0,0,0,5.695-.2c1.18-.14,2.415-.34,3.625-.535s2.385-.405,3.445-.615c2.125-.4,3.795-.73,4.335-.76s-.03.3-2.43,1.135c-1.53.125-2.785.25-3.87.36s-2,.205-2.845.33c-1.69.26-3.1.545-5.055,1,13.8-1.3,25.955-2.885,37.05-5.6,1.04-.455,2.075-.91,3.095-1.39.375.5,5.86-.545,11.08-2.145l1.7-.645,1.54-.6c.885-.36,1.405-.61,1-.62.215-.17-.845.15-2.415.66s-3.68,1.15-5.55,1.645a28.387,28.387,0,0,1-4.075.9c-.585.03-.125-.29,2.135-1.205a154.85,154.85,0,0,0,17.62-5.915,62.867,62.867,0,0,0,7.335-3.56,16.006,16.006,0,0,0,4.82-3.87c-.15.245-.275.5-.43.745l-.56.72a15.865,15.865,0,0,1-1.35,1.31c-.24.2-.465.41-.71.6l-.755.57c-.5.39-1,.73-1.535,1.09-2.1,1.42-4.345,2.77-7.04,4.425a107.022,107.022,0,0,1-15.14,6c-5.255,1.685-10.64,3.095-16.045,4.315-10.825,2.43-21.7,4.125-32,5.63-.81-.285-6.315,0-4.7-.5a18.942,18.942,0,0,0-1.97.05l-2.555.145a15.121,15.121,0,0,1-4.17-.095,241.171,241.171,0,0,1-25.28.95c-8.54-.1-16.88-.565-24.12-1.115,2,.645-.215.67-3.43.5s-7.425-.55-9.465-.56c-3.755-.825-10.3-1.43-15.08-2.14-.55.095-3.53-.3-2.855.09,3.56.425,4.815.83,8.455,1.42-1.595.555-7.83-1.09-13.21-2.075l2.885.07c-4.5-.745-9.325-2-14-3.245s-9.245-2.55-13.26-3.345q3.23,1.315,6.535,2.5a105.876,105.876,0,0,1-15.4-4.73,88.757,88.757,0,0,1-12.83-6.04c2.7,2.245,6.9,4.125,10.29,5.5s6,2.295,5.775,2.73c-.265.19-2.29-.35-4.665-1.215a45.6,45.6,0,0,1-6.745-3.07,40.814,40.814,0,0,1-5.285-3.525,13.935,13.935,0,0,1-2.28-2.295,7.137,7.137,0,0,1-.92-1.595,5.213,5.213,0,0,1-.35-1.805,4.749,4.749,0,0,1,.785-2.5l.38-.535c.125-.17.3-.355.425-.5a9.378,9.378,0,0,1,.83-.79,18.591,18.591,0,0,1,3.55-2.29,45.32,45.32,0,0,1,7.31-2.875A64.337,64.337,0,0,1,945.82,2788.86Z" transform="translate(-921.34 -2225.255)"/>
        <path id="Path_1598" data-name="Path 1598" class="cls-33" d="M921.583,2796.62a16.117,16.117,0,0,0-5.645,3.79,6.814,6.814,0,0,0-1.46,2.455,5.378,5.378,0,0,0-.255,2,5.761,5.761,0,0,0,.76,2.3,9.227,9.227,0,0,0,1.5,1.92,29.469,29.469,0,0,0,6.605,4.6c-.855-.18.08.64,1.78,1.655a42.81,42.81,0,0,0,6.2,2.95c4.05,1.2,8.775,2.85,12.325,3.79,2.395.74,1.9,1.3-2.855,0-4.33-1.67-9.15-3.225-14-5.245a47.619,47.619,0,0,1-7.245-3.66,18.228,18.228,0,0,1-3.5-2.815l-.415-.46-.41-.5a6.883,6.883,0,0,1-.445-.66,5.946,5.946,0,0,1-.4-.72,6.34,6.34,0,0,1,.635-6.89,6.819,6.819,0,0,1,.655-.79,7.012,7.012,0,0,1,.59-.58,12.822,12.822,0,0,1,1.19-.945,18.6,18.6,0,0,1,4.385-2.19Z" transform="translate(-919.263 -2229.135)"/>
        <path id="Path_1599" data-name="Path 1599" class="cls-8" d="M943.515,2794.465a22.044,22.044,0,0,1-5.32.865,9.224,9.224,0,0,0-1.83.235,17.468,17.468,0,0,0-3.335,1.2,9.566,9.566,0,0,1,3.37-1.5c1.3-.335,3-.7,6-1.425q-1.675.575-3.31,1.225C940.565,2794.83,942.05,2794.64,943.515,2794.465Z" transform="translate(-929.08 -2227.745)"/>
        <path id="Path_1600" data-name="Path 1600" class="cls-33" d="M976.72,2846.61c2.065.5,5.5,1.41,8.41,2.2s5.385,1.535,5.46,1.9c.61.175-.5.31,1.865.645-1.83-.455-5.445-1.245-8.755-2.165S977.385,2847.25,976.72,2846.61Z" transform="translate(-950.925 -2254.13)"/>
        <path id="Path_1601" data-name="Path 1601" class="cls-8" d="M943,2829.63c2.19.815,4.41,1.68,7.815,2.815A34.919,34.919,0,0,1,943,2829.63Z" transform="translate(-934.065 -2245.64)"/>
        <path id="Path_1602" data-name="Path 1602" class="cls-33" d="M988.025,2846.624c-.685-.675,3.5.68,4.705.915l2.425.73A37.534,37.534,0,0,1,988.025,2846.624Z" transform="translate(-956.54 -2254.043)"/>
        <path id="Path_1603" data-name="Path 1603" class="cls-33" d="M1054.7,2861.235c6.12.87-6.46-.05.84.835l-4.22-.4-1.45-.975Q1052.285,2860.98,1054.7,2861.235Z" transform="translate(-987.5 -2261.17)"/>
        <path id="Path_1604" data-name="Path 1604" class="cls-33" d="M1078.17,2865a46.139,46.139,0,0,1,6.66.425l-1.725.17C1081.935,2865.633,1080.585,2865.2,1078.17,2865Z" transform="translate(-1001.65 -2263.323)"/>
        <path id="Path_1605" data-name="Path 1605" class="cls-33" d="M1061.671,2859.877c2.965.125,2.5.47,4.355.82C1064.881,2860.832,1058.676,2859.632,1061.671,2859.877Z" transform="translate(-992.996 -2260.747)"/>
        <path id="Path_1606" data-name="Path 1606" class="cls-33" d="M1108.06,2854.1c-2.75.565-8.29-.03-13.61-.19C1099.775,2854.045,1102.035,2853.81,1108.06,2854.1Z" transform="translate(-1009.79 -2257.78)"/>
        <path id="Path_1607" data-name="Path 1607" class="cls-33" d="M1187.9,2777.515a43.992,43.992,0,0,0,7.225.105l-1.3-.27Z" transform="translate(-1056.515 -2219.5)"/>
        <path id="Path_1608" data-name="Path 1608" class="cls-33" d="M1114.04,2775.217c-2.73.745,2,.385,7.08,1,6.75.25,13.77-.11,20.445.095l4.08-.3c-4-.245-9.5-.5-15.18-.715S1118.825,2775.057,1114.04,2775.217Z" transform="translate(-1019.185 -2218.382)"/>
        <path id="Path_1609" data-name="Path 1609" class="cls-8" d="M1101.345,2782.39c5,.31,11.415-.155,15.04-.09-6.09-.22-14-.285-18.23-.28C1097.62,2782.195,1100.09,2782.28,1101.345,2782.39Z" transform="translate(-1011.605 -2221.835)"/>
        <path id="Path_1610" data-name="Path 1610" class="cls-33" d="M1142.341,2783.086a41.972,41.972,0,0,1-6.34-.4c-.535-.075-1.065-.17-1.59-.28l-1.72-.385c-1.265-.28-2.54-.6-3.835-.84a84.216,84.216,0,0,0-15.27-1.79c2.16.345,3.26.56,4.66.85s3.1.61,6.455,1.26c-5.19.1-10.365-1.695-16.5-2.22,4.945.675-1.615.445-5.845.245-8-.86-20.71-1.19-31.595-1.45-4.69.225-20.06-.76-17.865.27-6.645-.05-7.55-.785-12.5-1.025-7.355.545-13.945.11-20.7-.185a104.063,104.063,0,0,0-21.565.785c.935-.655-6.935,0-10,.29-3.355.3-9,.9-13.345,1.64s-7.39,1.555-5.555,1.78a81.864,81.864,0,0,0,9.47-1.25,71.279,71.279,0,0,1,11.29-1.09c6.06.065,2.925.42-1.72.945-2.325.265-5,.595-7.15.935s-3.67.685-3.69.93c1.715-.39,2.775.305,8.04-.57-5.615.835-4.41,1-2.535,1.05s4.445.12,1.6.72c6.455-.39,9.385-.445,11.53-.39a67.739,67.739,0,0,1,6.8.69c7.72-.645,5.525-1.345,7.72-1.925,8.225-.855,14.755.12,21.9-.2-2.695.78.3,1,5,1.115s11.155.07,15.365.15c10.89.35,3.71-1.23,15.25-.79,5.725.875-11.725.635-4.165,1.615l5.32-.16c3.405-.5,6.135-1.165,10.2-1.45,2.415.065,6.035.19,6.12.42-4.74.08-3.31.685,1.645,1.2a33.828,33.828,0,0,0,4-.36c-4.825-1-2.27-.95,2.355-.655s11.285.87,14.73.74a66.453,66.453,0,0,1,10.315.91,22,22,0,0,1,4.64,1.36,40.818,40.818,0,0,0,4.5,1.59c1.045.28,2.3.64,3.9,1l1.335.295c.5.09,1,.18,1.54.25a33.477,33.477,0,0,0,3.54.275c-1.55-.46-1.455-.685-.38-.745s3.14-.03,5.58-.11c4.88-.145,11.23-.685,14.4-1.065a26.123,26.123,0,0,1,6.09.33,10.807,10.807,0,0,1,2.115.63c.14.07.34.145.44.21s.22.14.325.215a2.628,2.628,0,0,1,.555.55,1.451,1.451,0,0,1,.56.675,2.345,2.345,0,0,1,.15,1.145,7.3,7.3,0,0,1-.285,1.37,5.329,5.329,0,0,0-.22.94,4.732,4.732,0,0,0,1.21-1.095,5.211,5.211,0,0,0,.61-.915,4.253,4.253,0,0,0,.44-1.29,3.226,3.226,0,0,0-.15-1.635,3.9,3.9,0,0,0-1.13-1.56,6.287,6.287,0,0,0-.905-.63c-.16-.09-.345-.19-.5-.27s-.33-.16-.5-.23a14.34,14.34,0,0,0-2.11-.71,53.345,53.345,0,0,0-9.88-1.2c-3.59-.2-7.45-.29-11.38-.62A2.562,2.562,0,0,0,1142.341,2783.086Z" transform="translate(-946.906 -2219.292)"/>
        <path id="Path_1611" data-name="Path 1611" class="cls-18" d="M1073.823,2681.781c35.27-2.8,47.875-5.645,47.875-5.645s41.2-9.12,47.075-50.1c.555-3.875.69-4.64,1-7.355s.62-5,.785-6.88a115.937,115.937,0,0,0-1.78-31.675c-6.475-34.945-53.57-74.095-122.585-44.34-34.92,15.055-64.74,95.87-62.33,120.34.73,7.4,1.28,12.875,2.24,13.31C1013.583,2681.991,1050.323,2683.656,1073.823,2681.781Z" transform="translate(-954.428 -2093.446)"/>
        <path id="Path_1612" data-name="Path 1612" class="cls-17" d="M1245.21,2733.97c2.62-6.88,2.95-10.725,2.5-13a8.45,8.45,0,0,0-1.735-4.435,6.434,6.434,0,0,0-4.7-2.795c-12.97,0-42.86,5.76-58.525,27.645-12.325,17.225-13.145,18.415-19.375,24-5.76,5.165-19.68,11.28-19.68,11.28s28-1,36.34-2.31c33.295-5.33,44.35-12.765,47.4-14.75C1234.18,2755.245,1241.095,2744.79,1245.21,2733.97Z" transform="translate(-1034.41 -2187.695)"/>
        <circle id="Ellipse_34" data-name="Ellipse 34" class="cls-17" cx="8.875" cy="8.875" r="8.875" transform="translate(91.545 551.7)"/>
        <path id="Path_1613" data-name="Path 1613" class="cls-33" d="M1305.4,2712.867c-1.7,1.1-5.245,6.14-9.59,6.465-1.8.135-11.055-1.235-13.355-1.135,0,0,4.175-2.27,5.2-2.86,1.5-.855,3.62-2.95,7.685-3.745,2.96-.58,5.57.71,6.77,1A17.144,17.144,0,0,0,1305.4,2712.867Z" transform="translate(-1103.79 -2186.547)"/>
      </g>
    </g>
  </g>
</svg>
