<svg xmlns="http://www.w3.org/2000/svg" xmlns:xlink="http://www.w3.org/1999/xlink" viewBox="0 0 199.04 351.81"><defs><style>.cls-1{fill:#fff;}.cls-2{fill:#233240;}.cls-3{fill:url(#未命名漸層_77);}.cls-4{fill:url(#未命名漸層_77-2);}.cls-5{fill:#004a82;}.cls-6{fill:#8acaff;}.cls-7{fill:url(#未命名漸層_102);}.cls-8{fill:url(#未命名漸層_100);}.cls-9{fill:#005a9d;}</style><linearGradient id="未命名漸層_77" x1="38.05" y1="93.06" x2="123.17" y2="93.06" gradientTransform="translate(18.56 -13.28) rotate(10.63)" gradientUnits="userSpaceOnUse"><stop offset="0" stop-color="#007ab0"/><stop offset="0.01" stop-color="#0078ae"/><stop offset="0.19" stop-color="#00649b"/><stop offset="0.39" stop-color="#00558d"/><stop offset="0.62" stop-color="#004d85"/><stop offset="1" stop-color="#004a82"/></linearGradient><linearGradient id="未命名漸層_77-2" x1="9.18" y1="172.75" x2="147.71" y2="172.75" gradientTransform="matrix(1, 0, 0, 1, 0, 0)" xlink:href="#未命名漸層_77"/><linearGradient id="未命名漸層_102" x1="75.42" y1="55.3" x2="164.9" y2="55.3" gradientTransform="matrix(0.99, 0.1, -0.1, 0.99, 6.85, -11.8)" gradientUnits="userSpaceOnUse"><stop offset="0" stop-color="#8acaff"/><stop offset="0.15" stop-color="#85c6fb"/><stop offset="0.33" stop-color="#77b9ee"/><stop offset="0.51" stop-color="#61a4da"/><stop offset="0.7" stop-color="#4186bd"/><stop offset="0.9" stop-color="#186098"/><stop offset="1" stop-color="#004a82"/></linearGradient><linearGradient id="未命名漸層_100" x1="38.21" y1="148.48" x2="199.06" y2="148.48" gradientTransform="translate(0.45 -0.36) rotate(0.17)" gradientUnits="userSpaceOnUse"><stop offset="0" stop-color="#8acaff"/><stop offset="0.21" stop-color="#87c7fc"/><stop offset="0.38" stop-color="#7dbef3"/><stop offset="0.53" stop-color="#6caee4"/><stop offset="0.68" stop-color="#5498ce"/><stop offset="0.82" stop-color="#357bb2"/><stop offset="0.95" stop-color="#0f5890"/><stop offset="1" stop-color="#004a82"/></linearGradient></defs><title>3資產 3</title><g id="圖層_2" data-name="圖層 2"><g id="boat"><path class="cls-1" d="M18.67,316.07S.78,320.54,12,328s28.85,3.72,46.47,17.13,41.46,3,79.46,0,43.6-17.13,28.88-24.59S29,308.62,18.67,316.07Z"/><path class="cls-2" d="M83.68,44.48l3,196.68-13.94,8.72L82,44.45A.85.85,0,0,1,83.68,44.48Z"/><path class="cls-3" d="M109,71.92l-64.21-8.3a2,2,0,0,0-2.26,2.32c1,6.84,2.66,25.79-7,45.11l81.5,15.3S127.82,100.94,109,71.92Z"/><path class="cls-4" d="M127.31,128.73,21.6,115A2.31,2.31,0,0,0,19,117.33c.34,11.68,1,59.32-9.73,109a3.51,3.51,0,0,0,3.44,4.24H135.76S167.61,166.63,127.31,128.73Z"/><path class="cls-2" d="M120.16.32l7.5,226.34a.31.31,0,0,1-.2.31l-15.85,6.61a.33.33,0,0,1-.47-.32L119.48.32A.34.34,0,0,1,120.16.32Z"/><path class="cls-5" d="M143.64,215.25s23.89,12.74,37.62,30.3a1.18,1.18,0,0,1,.26.69c.21,3.76,1.31,31.94-14.29,82.06a1.33,1.33,0,0,1-1,.9l-33.79,10Z"/><path class="cls-6" d="M43.65,262.54c-.9,4.61-6.73,36.17-4,62.78a1.39,1.39,0,0,0,1.19,1.23l92.36,12.74,10.47-124s-80.32,23.06-99.51,46.27A2.14,2.14,0,0,0,43.65,262.54Z"/><path class="cls-7" d="M143.15,29.23,82,26.86a3.44,3.44,0,0,0-3.47,4.29c2.08,8.05,5,25.94-2.59,45.23a2.06,2.06,0,0,0,1.7,2.81l81.68,8.23a2.81,2.81,0,0,0,3.06-2c1.72-7.12,5-30-15.58-54.39A5.14,5.14,0,0,0,143.15,29.23Z"/><path class="cls-8" d="M173.46,101.87l-118-17.44a1.87,1.87,0,0,0-2.13,1.86c.18,11.37.11,65.39-15.22,120.88a1.84,1.84,0,0,0,1.72,2.33l139.39,3.05a6.11,6.11,0,0,0,5.59-3.16c7.26-13.93,32.34-69.61-8.69-106.32A5,5,0,0,0,173.46,101.87Z"/><path class="cls-9" d="M141.63,239.43,140,258a174.83,174.83,0,0,1,39.78,17.43s1.13-8.29,1.31-12.76C181.13,262.62,155.6,245.3,141.63,239.43Z"/><path class="cls-9" d="M141.63,239.05S71,255.24,41.74,274c0,0-.26-.23-1.32,10.39,0,0,57.23-23.31,99.62-26.46Z"/><path class="cls-1" d="M.24,324.47A10.15,10.15,0,0,0,2,331.63a17.85,17.85,0,0,0,5.44,5.08,47.4,47.4,0,0,0,14.12,5.21c1.24.3,2.47.6,3.72.84s2.48.51,3.73.73c2.5.45,5,.74,7.54,1a20.29,20.29,0,0,1,3.81.72A13.63,13.63,0,0,1,43.83,347a71.05,71.05,0,0,1,6,4.8c-2-1.5-4.06-3.08-6.22-4.39a12.65,12.65,0,0,0-3.38-1.57,18.87,18.87,0,0,0-3.71-.56,99.25,99.25,0,0,1-15.13-2.39c-5-1.21-10-2.72-14.32-5.55a18.16,18.16,0,0,1-5.43-5.47,11.19,11.19,0,0,1-1.4-3.59A8.35,8.35,0,0,1,.24,324.47Z"/></g></g></svg>