<svg xmlns="http://www.w3.org/2000/svg" viewBox="0 0 81.565 138.392">
  <defs>
    <style>
      .cls-1 {
        fill: #004a82;
      }

      .cls-2 {
        fill: #137fff;
      }

      .cls-3 {
        fill: #007ab0;
      }

      .cls-4 {
        fill: #8acaff;
      }

      .cls-5 {
        fill: #002353;
      }

      .cls-6 {
        opacity: 0.2;
      }

      .cls-7 {
        fill: #fff;
      }
    </style>
  </defs>
  <g id="Group_126" data-name="Group 126" transform="translate(-253 -358.358)">
    <g id="_4資產_12" data-name="4資產 12" transform="translate(253 358.358)">
      <g id="安平古堡">
        <g id="圖層_2" data-name="圖層 2">
          <g id="圖層_17" data-name="圖層 17">
            <path id="Path_1015" data-name="Path 1015" class="cls-1" d="M122.3,207.81l9.36,18.052-26.745,16.045-4.346-25.074Z" transform="translate(-50.096 -103.515)"/>
            <path id="Path_1016" data-name="Path 1016" class="cls-2" d="M64.993,201.43l.331,3.342-14.569,5.541-20.391-2.675.331-6.018L14.65,208.978l43.357,5.887,21.52-10.283Z" transform="translate(-7.298 -100.337)"/>
            <path id="Path_1017" data-name="Path 1017" class="cls-3" d="M51.146,222.151l3.774,24.03L0,238.2,7.352,216.47Z" transform="translate(0 -107.829)"/>
            <path id="Path_1018" data-name="Path 1018" class="cls-1" d="M98.171,75.46,85.92,78.511l2.158,69.495L102.3,142.36Z" transform="translate(-42.799 -37.589)"/>
            <path id="Path_1019" data-name="Path 1019" class="cls-4" d="M65.817,79.741,46.63,78.21l-1.34,68.862,22.549,2.3Z" transform="translate(-22.56 -38.958)"/>
            <path id="Path_1020" data-name="Path 1020" class="cls-5" d="M66.341,203.4,65.7,189.427a.853.853,0,0,0-.763-.818l-9.9-1.044a.673.673,0,0,0-.748.582v.085L54,202.069Z" transform="translate(-26.899 -93.428)"/>
            <path id="Path_1021" data-name="Path 1021" class="cls-1" d="M47.821,66.61,47.68,80.291,67.554,83.97,79.479,76.8l-.572-8.191Z" transform="translate(-23.751 -33.18)"/>
            <path id="Path_1022" data-name="Path 1022" class="cls-4" d="M61.008,45.1l-.888,19.016L36.481,62.349,30.88,42.41Z" transform="translate(-15.382 -21.125)"/>
            <path id="Path_1023" data-name="Path 1023" class="cls-1" d="M108.452,37.65,103.97,56.375l-14.84,5.36.893-19.1Z" transform="translate(-44.398 -18.754)"/>
            <path id="Path_1024" data-name="Path 1024" class="cls-1" d="M79.27,0l7.307,24.1,19.081-5.942Z" transform="translate(-39.486)"/>
            <path id="Path_1025" data-name="Path 1025" class="cls-3" d="M52.859,0,26.25,21.285,60.167,24.1Z" transform="translate(-13.076)"/>
            <path id="Path_1026" data-name="Path 1026" class="cls-5" d="M43.326,50.083l2.258,9.987a1.506,1.506,0,0,0,1.285,1.114l13.51,1.26a1.551,1.551,0,0,0,1.6-1.506l.758-10.007a1.611,1.611,0,0,0-1.355-1.792h-.035L44.832,47.9a1.556,1.556,0,0,0-1.576,1.556A1.762,1.762,0,0,0,43.326,50.083Z" transform="translate(-21.545 -23.86)"/>
            <path id="Path_1027" data-name="Path 1027" class="cls-5" d="M108.206,45.574,105.9,55.707a1.059,1.059,0,0,1-.662.778L96.5,59.506a1,1,0,0,1-1.255-.718c-.035-.13-.055.5-.045.341l.552-10.765a1.1,1.1,0,0,1,.693-1.049l10.494-3.137a1,1,0,0,1,1.26.718,1.25,1.25,0,0,1,.01.678Z" transform="translate(-47.419 -21.986)"/>
          </g>
        </g>
      </g>
    </g>
    <g id="_4資產_12-2" data-name="4資產 12" class="cls-6" transform="translate(253 358.358)">
      <g id="安平古堡-2" data-name="安平古堡">
        <g id="圖層_2-2" data-name="圖層 2">
          <g id="圖層_17-2" data-name="圖層 17">
            <path id="Path_1015-2" data-name="Path 1015" class="cls-7" d="M122.3,207.81l9.36,18.052-26.745,16.045-4.346-25.074Z" transform="translate(-50.096 -103.515)"/>
            <path id="Path_1016-2" data-name="Path 1016" class="cls-7" d="M64.993,201.43l.331,3.342-14.569,5.541-20.391-2.675.331-6.018L14.65,208.978l43.357,5.887,21.52-10.283Z" transform="translate(-7.298 -100.337)"/>
            <path id="Path_1017-2" data-name="Path 1017" class="cls-7" d="M51.146,222.151l3.774,24.03L0,238.2,7.352,216.47Z" transform="translate(0 -107.829)"/>
            <path id="Path_1018-2" data-name="Path 1018" class="cls-7" d="M98.171,75.46,85.92,78.511l2.158,69.495L102.3,142.36Z" transform="translate(-42.799 -37.589)"/>
            <path id="Path_1019-2" data-name="Path 1019" class="cls-7" d="M65.817,79.741,46.63,78.21l-1.34,68.862,22.549,2.3Z" transform="translate(-22.56 -38.958)"/>
            <path id="Path_1020-2" data-name="Path 1020" class="cls-7" d="M66.341,203.4,65.7,189.427a.853.853,0,0,0-.763-.818l-9.9-1.044a.673.673,0,0,0-.748.582v.085L54,202.069Z" transform="translate(-26.899 -93.428)"/>
            <path id="Path_1021-2" data-name="Path 1021" class="cls-7" d="M47.821,66.61,47.68,80.291,67.554,83.97,79.479,76.8l-.572-8.191Z" transform="translate(-23.751 -33.18)"/>
            <path id="Path_1022-2" data-name="Path 1022" class="cls-7" d="M61.008,45.1l-.888,19.016L36.481,62.349,30.88,42.41Z" transform="translate(-15.382 -21.125)"/>
            <path id="Path_1023-2" data-name="Path 1023" class="cls-7" d="M108.452,37.65,103.97,56.375l-14.84,5.36.893-19.1Z" transform="translate(-44.398 -18.754)"/>
            <path id="Path_1024-2" data-name="Path 1024" class="cls-7" d="M79.27,0l7.307,24.1,19.081-5.942Z" transform="translate(-39.486)"/>
            <path id="Path_1025-2" data-name="Path 1025" class="cls-7" d="M52.859,0,26.25,21.285,60.167,24.1Z" transform="translate(-13.076)"/>
            <path id="Path_1026-2" data-name="Path 1026" class="cls-7" d="M43.326,50.083l2.258,9.987a1.506,1.506,0,0,0,1.285,1.114l13.51,1.26a1.551,1.551,0,0,0,1.6-1.506l.758-10.007a1.611,1.611,0,0,0-1.355-1.792h-.035L44.832,47.9a1.556,1.556,0,0,0-1.576,1.556A1.762,1.762,0,0,0,43.326,50.083Z" transform="translate(-21.545 -23.86)"/>
            <path id="Path_1027-2" data-name="Path 1027" class="cls-7" d="M108.206,45.574,105.9,55.707a1.059,1.059,0,0,1-.662.778L96.5,59.506a1,1,0,0,1-1.255-.718c-.035-.13-.055.5-.045.341l.552-10.765a1.1,1.1,0,0,1,.693-1.049l10.494-3.137a1,1,0,0,1,1.26.718,1.25,1.25,0,0,1,.01.678Z" transform="translate(-47.419 -21.986)"/>
          </g>
        </g>
      </g>
    </g>
  </g>
</svg>
