<svg xmlns="http://www.w3.org/2000/svg" viewBox="0 0 145.623 192.791">
  <defs>
    <style>
      .cls-1 {
        fill: #0090b8;
      }

      .cls-2 {
        fill: #fff;
      }

      .cls-3 {
        fill: #003e56;
      }
    </style>
  </defs>
  <g id="Group_124" data-name="Group 124" transform="translate(-115 -237.522)">
    <g id="Group_28" data-name="Group 28" transform="translate(5 -34)">
      <g id="_2資產_6" data-name="2資產 6" transform="translate(-13.979 190.99)">
        <g id="圖層_4" data-name="圖層 4" transform="translate(124 80.522)">
          <path id="Path_26" data-name="Path 26" class="cls-1" d="M93.386,94.246l.063-.069.094-.094-.094.094-.063.069a143.39,143.39,0,0,1-63.772,37A123.487,123.487,0,0,1,.876,135.576a.878.878,0,0,1-.627-1.511c8.34-9.569,10.221-12.077,12.811-18.273a1.881,1.881,0,0,0-.125-1.8A72.739,72.739,0,1,1,145.5,68.844a.169.169,0,0,1-.144.169A87.6,87.6,0,0,0,93.543,94.1" transform="translate(0 -0.008)"/>
          <path id="Path_27" data-name="Path 27" class="cls-2" d="M47.24,172.252a143.389,143.389,0,0,0,63.772-37l.157-.163a87.663,87.663,0,0,1,51.964-25.082q.094,1.881.094,3.762a72.739,72.739,0,0,1-72.739,72.739c-1.511,0-3.01-.056-4.5-.144A72.419,72.419,0,0,1,47.24,172.252Z" transform="translate(-17.626 -41.023)"/>
          <circle id="Ellipse_11" data-name="Ellipse 11" class="cls-2" cx="4.389" cy="4.389" r="4.389" transform="translate(53.737 88.112)"/>
          <path id="Path_28" data-name="Path 28" class="cls-3" d="M116.227,14.263C93.967-1.558,61.359,7.1,43.175,23.525,23.736,41.082,26.871,50.488.334,76.511Q.24,74.63.24,72.749A72.739,72.739,0,0,1,72.979.01c1.511,0,3,.05,4.5.144a72.319,72.319,0,0,1,38.752,14.109Z" transform="translate(-0.097)"/>
        </g>
      </g>
    </g>
    <g id="_4資產_11" data-name="4資產 11" transform="translate(136 402)">
      <g id="圖層_4-2" data-name="圖層 4">
        <path id="Path_1414" data-name="Path 1414" class="cls-2" d="M0,21.47V1.16H5.61q10.73,0,10.73,9.9a10,10,0,0,1-3,7.55,11,11,0,0,1-8,2.86ZM2.38,3.31v16h3a8.65,8.65,0,0,0,6.22-2.13,8,8,0,0,0,2.22-6.06q0-7.81-8.3-7.81Z"/>
        <path id="Path_1415" data-name="Path 1415" class="cls-2" d="M27.58,9.32a2.83,2.83,0,0,0-1.75-.47,3,3,0,0,0-2.49,1.4,6.54,6.54,0,0,0-1,3.83v7.39H20V7h2.32v3h.06A5.09,5.09,0,0,1,23.9,7.62a3.47,3.47,0,0,1,2.28-.86,3.8,3.8,0,0,1,1.38.2Z"/>
        <path id="Path_1416" data-name="Path 1416" class="cls-2" d="M31.29,3.29a1.49,1.49,0,0,1-1.06-.43,1.44,1.44,0,0,1-.44-1.08A1.47,1.47,0,0,1,30.23.7,1.45,1.45,0,0,1,31.29.27,1.5,1.5,0,0,1,32.38.7a1.47,1.47,0,0,1,.44,1.08,1.48,1.48,0,0,1-.44,1.07A1.51,1.51,0,0,1,31.29,3.29Zm1.14,18.18H30.1V7h2.33Z"/>
        <path id="Path_1417" data-name="Path 1417" class="cls-2" d="M49.16,21.47H46.84V13.2q0-4.62-3.37-4.62a3.66,3.66,0,0,0-2.88,1.31,4.86,4.86,0,0,0-1.14,3.31v8.27H37.13V7h2.32V9.4h.06a5.22,5.22,0,0,1,4.75-2.74,4.44,4.44,0,0,1,3.64,1.5,6.87,6.87,0,0,1,1.26,4.44Z"/>
        <path id="Path_1418" data-name="Path 1418" class="cls-2" d="M65.58,21.47H62.32l-6.4-7h-.06v7H53.54V0h2.32V13.61h.06L62,7h3l-6.72,7Z"/>
        <path id="Path_1419" data-name="Path 1419" class="cls-2" d="M69.14,3.29a1.49,1.49,0,0,1-1.06-.43,1.44,1.44,0,0,1-.44-1.08A1.47,1.47,0,0,1,68.08.7,1.45,1.45,0,0,1,69.14.27,1.5,1.5,0,0,1,70.23.7a1.47,1.47,0,0,1,.44,1.08,1.48,1.48,0,0,1-.44,1.07A1.51,1.51,0,0,1,69.14,3.29Zm1.14,18.18H68V7h2.33Z"/>
        <path id="Path_1420" data-name="Path 1420" class="cls-2" d="M87,21.47H84.69V13.2q0-4.62-3.37-4.62a3.66,3.66,0,0,0-2.88,1.31A4.86,4.86,0,0,0,77.3,13.2v8.27H75V7h2.3V9.4h.06a5.22,5.22,0,0,1,4.75-2.74,4.44,4.44,0,0,1,3.64,1.53A6.87,6.87,0,0,1,87,12.6Z"/>
        <path id="Path_1421" data-name="Path 1421" class="cls-2" d="M103.77,20.31q0,8-7.65,8a10.27,10.27,0,0,1-4.7-1V25a9.6,9.6,0,0,0,4.67,1.36q5.35,0,5.35-5.69V19h0a5.86,5.86,0,0,1-9.34.84,7.71,7.71,0,0,1-1.65-5.19,9,9,0,0,1,1.78-5.87A5.9,5.9,0,0,1,97,6.63,4.74,4.74,0,0,1,101.39,9h0V7h2.33Zm-2.33-5.4V12.77a4.18,4.18,0,0,0-1.16-3,3.85,3.85,0,0,0-2.91-1.23A4,4,0,0,0,94,10.15a6.92,6.92,0,0,0-1.22,4.38A6,6,0,0,0,94,18.4a3.75,3.75,0,0,0,3,1.45,4,4,0,0,0,3.18-1.39,5.14,5.14,0,0,0,1.26-3.55Z"/>
      </g>
    </g>
  </g>
</svg>
