<svg xmlns="http://www.w3.org/2000/svg" viewBox="0 0 35.394 36.363">
  <defs>
    <style>
      .cls-1 {
        fill: #004a82;
      }

      .cls-2 {
        opacity: 0.2;
      }

      .cls-3 {
        fill: #fff;
      }
    </style>
  </defs>
  <g id="Group_129" data-name="Group 129" transform="translate(-28.444 -605.909)">
    <g id="資產_3" data-name="資產 3" transform="translate(32.443 614.909)">
      <g id="圖層_1" data-name="圖層 1" transform="translate(-3.999 -9)">
        <path id="Path_22" data-name="Path 22" class="cls-1" d="M31.2,19.954a14.84,14.84,0,0,0,0-1.773,11.2,11.2,0,0,0-.136-1.773l3.954-3a.932.932,0,0,0,.227-1.159l-3.636-6.3A.932.932,0,0,0,30.5,5.545L25.953,7.364a13.318,13.318,0,0,0-3.068-1.773L22.225.773A.909.909,0,0,0,21.316,0H14.044a.886.886,0,0,0-.886.773l-.682,4.818A13.636,13.636,0,0,0,9.407,7.364L4.862,5.545a.909.909,0,0,0-1.114.409L.135,12.25a.886.886,0,0,0,.227,1.159l3.841,3a10.7,10.7,0,0,0,0,3.545l-3.864,3a.932.932,0,0,0-.227,1.159l3.636,6.3a.932.932,0,0,0,1.114.409L9.407,29a13.318,13.318,0,0,0,3.068,1.773l.682,4.818a.932.932,0,0,0,.909.773h7.273a.864.864,0,0,0,.886-.773l.682-4.818A13.636,13.636,0,0,0,25.975,29l4.545,1.818a.909.909,0,0,0,1.114-.409l3.636-6.3a.886.886,0,0,0-.227-1.159ZM17.68,25A6.818,6.818,0,1,1,24.5,18.181,6.818,6.818,0,0,1,17.68,25Z" transform="translate(-0.001 0)"/>
      </g>
    </g>
    <g id="資產_3-2" data-name="資產 3" class="cls-2" transform="translate(32.443 614.909)">
      <g id="圖層_1-2" data-name="圖層 1" transform="translate(-3.999 -9)">
        <path id="Path_22-2" data-name="Path 22" class="cls-3" d="M31.2,19.954a14.84,14.84,0,0,0,0-1.773,11.2,11.2,0,0,0-.136-1.773l3.954-3a.932.932,0,0,0,.227-1.159l-3.636-6.3A.932.932,0,0,0,30.5,5.545L25.953,7.364a13.318,13.318,0,0,0-3.068-1.773L22.225.773A.909.909,0,0,0,21.316,0H14.044a.886.886,0,0,0-.886.773l-.682,4.818A13.636,13.636,0,0,0,9.407,7.364L4.862,5.545a.909.909,0,0,0-1.114.409L.135,12.25a.886.886,0,0,0,.227,1.159l3.841,3a10.7,10.7,0,0,0,0,3.545l-3.864,3a.932.932,0,0,0-.227,1.159l3.636,6.3a.932.932,0,0,0,1.114.409L9.407,29a13.318,13.318,0,0,0,3.068,1.773l.682,4.818a.932.932,0,0,0,.909.773h7.273a.864.864,0,0,0,.886-.773l.682-4.818A13.636,13.636,0,0,0,25.975,29l4.545,1.818a.909.909,0,0,0,1.114-.409l3.636-6.3a.886.886,0,0,0-.227-1.159ZM17.68,25A6.818,6.818,0,1,1,24.5,18.181,6.818,6.818,0,0,1,17.68,25Z" transform="translate(-0.001 0)"/>
      </g>
    </g>
  </g>
</svg>
