<svg xmlns="http://www.w3.org/2000/svg" xmlns:xlink="http://www.w3.org/1999/xlink" viewBox="0 0 230.75 223.87"><defs><style>.cls-1{fill:#00286d;}.cls-2{fill:#004a82;}.cls-3{fill:url(#未命名漸層_130);}.cls-4{fill:url(#未命名漸層_132);}.cls-5{fill:#000f63;}.cls-6{fill:url(#未命名漸層_100);}.cls-7{fill:url(#未命名漸層_123);}.cls-8{fill:url(#未命名漸層_123-2);}</style><linearGradient id="未命名漸層_130" x1="25.52" y1="167.32" x2="163.34" y2="167.32" gradientUnits="userSpaceOnUse"><stop offset="0" stop-color="#8acaff"/><stop offset="0.24" stop-color="#63a5db"/><stop offset="0.59" stop-color="#2d74ab"/><stop offset="0.86" stop-color="#0c568d"/><stop offset="1" stop-color="#004a82"/></linearGradient><linearGradient id="未命名漸層_132" x1="12.74" y1="174.15" x2="54.18" y2="215.59" gradientUnits="userSpaceOnUse"><stop offset="0" stop-color="#8acaff"/><stop offset="0.18" stop-color="#86c7fc"/><stop offset="0.35" stop-color="#7bbcf2"/><stop offset="0.52" stop-color="#68abe1"/><stop offset="0.68" stop-color="#4e93c9"/><stop offset="0.83" stop-color="#2c73aa"/><stop offset="0.99" stop-color="#034d85"/><stop offset="1" stop-color="#004a82"/></linearGradient><linearGradient id="未命名漸層_100" x1="52.34" y1="72.1" x2="140.2" y2="72.1" gradientUnits="userSpaceOnUse"><stop offset="0" stop-color="#8acaff"/><stop offset="0.21" stop-color="#87c7fc"/><stop offset="0.38" stop-color="#7dbef3"/><stop offset="0.53" stop-color="#6caee4"/><stop offset="0.68" stop-color="#5498ce"/><stop offset="0.82" stop-color="#357bb2"/><stop offset="0.95" stop-color="#0f5890"/><stop offset="1" stop-color="#004a82"/></linearGradient><linearGradient id="未命名漸層_123" x1="99.7" y1="208.48" x2="134.31" y2="208.48" gradientUnits="userSpaceOnUse"><stop offset="0" stop-color="#0078d4"/><stop offset="0.2" stop-color="#0075cf"/><stop offset="0.44" stop-color="#006ec2"/><stop offset="0.68" stop-color="#0061ab"/><stop offset="0.94" stop-color="#004f8b"/><stop offset="1" stop-color="#004a82"/></linearGradient><linearGradient id="未命名漸層_123-2" x1="152.62" y1="189.08" x2="175.83" y2="189.08" xlink:href="#未命名漸層_123"/></defs><title>3資產 4</title><g id="圖層_2" data-name="圖層 2"><g id="turtle"><polygon class="cls-1" points="20.95 215.06 42.18 220.23 63.1 217.11 153.78 223.87 148.31 211.09 157.14 204.01 230.75 198.9 210.98 169.09 154.18 152.37 20.95 215.06"/><path class="cls-2" d="M26.79,162.37s4.84,46.9,25.63,48.11,50.07,2.9,56.11,3.15c4,.16,41.83-19.27,53.56-25.36a6.61,6.61,0,0,0,3.57-5.78c.08-6.29.56-18.93-3.45-23.58C137.78,130.59,40.09,146.65,26.79,162.37Z"/><path class="cls-1" d="M25.52,163l0,8.79s15.78-7,24.4-5.22c6.86,1.45,14.25,10.27,18.73,15.13,4.32,4.7,23.46,20.08,59,12.82s38.75-19.83,35.7-32.89l-41.51,12.09L47.83,152Z"/><polygon class="cls-2" points="46.12 137.93 141.4 147.03 144.78 174.2 40.33 157.28 46.12 137.93"/><polygon class="cls-1" points="151.34 141.15 157.14 166.71 144.78 174.2 141.4 147.03 151.34 141.15"/><path class="cls-3" d="M48.71,144.2,127,151.54s9.74,4.42,14.69,11a15.18,15.18,0,0,1,2.92,8.82s12.08-7.66,12-8.11l-2.36-10.83s14.09,4.67,7.31,18S122.23,194.48,99.1,189c-21-5-23.42-10.56-33.13-20.68-9.42-9.8-19.41-11.3-40.45-2.35v-3S38.39,146.62,48.71,144.2Z"/><path class="cls-4" d="M11.72,175.26a5.73,5.73,0,0,0-1,.88c-2.43,2.51-13,14-10.34,21.3,3,8.28,3.64,9.12,11.15,13.79s17.81,6.19,29.7,3.57c1.7-.37,3.25-.65,4.66-.86,9.57-1.44,12.75-2.85,12.75-2.85s6.86-23.64,3.77-27.1C52.92,173.32,36.64,159.35,11.72,175.26Z"/><polygon class="cls-5" points="54.82 131.65 46.12 137.93 141.4 147.03 151.34 141.15 54.82 131.65"/><polygon class="cls-6" points="52.34 136.38 140.2 144.2 130.91 5.71 116.1 0 66.08 7.18 57.25 16.27 52.34 136.38"/><polygon class="cls-1" points="145.59 141.15 140.2 144.2 130.91 5.71 135.27 9.07 145.59 141.15"/><path class="cls-7" d="M107.81,200.93s-7.4-1-8.09,8.17a4.46,4.46,0,0,0,2.92,4.51c4,1.49,12.4,3.49,26,1.85C149,213,107.81,200.93,107.81,200.93Z"/><path class="cls-8" d="M158.05,184s-5-.66-5.42,5.49a3,3,0,0,0,2,3c2.7,1,8.31,2.34,17.46,1.24C185.68,192.12,158.05,184,158.05,184Z"/><circle class="cls-2" cx="29.55" cy="191.32" r="5.61"/></g></g></svg>