<svg xmlns="http://www.w3.org/2000/svg" viewBox="0 0 87.838 157.621">
  <defs>
    <style>
      .cls-1 {
        fill: #1e303a;
      }

      .cls-2, .cls-5 {
        fill: #fff;
      }

      .cls-3 {
        fill: #ff8585;
      }

      .cls-4, .cls-9 {
        fill: none;
      }

      .cls-4, .cls-5 {
        stroke: #707070;
      }

      .cls-6 {
        fill: #666;
      }

      .cls-7, .cls-8 {
        stroke: none;
      }

      .cls-8 {
        fill: #707070;
      }
    </style>
  </defs>
  <g id="Group_164" data-name="Group 164" transform="translate(-193.415 -110.357)">
    <g id="_3資產_4" data-name="3資產 4" transform="translate(193.461 160.074)">
      <g id="turtle" transform="translate(-0.046)">
        <path id="Path_213" data-name="Path 213" class="cls-1" d="M26.79,152.856s2.417,23.421,12.8,24.025,25,1.448,28.02,1.573c2,.08,20.889-9.623,26.747-12.664a3.3,3.3,0,0,0,1.783-2.886c.04-3.141.28-9.453-1.723-11.775C82.216,136.986,33.432,145.006,26.79,152.856Z" transform="translate(-13.389 -71.772)"/>
        <path id="Path_214" data-name="Path 214" class="cls-1" d="M25.52,157.493v4.39s7.88-3.5,12.185-2.607c3.426.724,7.116,5.129,9.353,7.556,2.157,2.347,11.715,10.028,29.463,6.4s19.351-9.9,17.828-16.425L73.62,162.847,36.661,152Z" transform="translate(-12.753 -76.094)"/>
        <path id="Path_215" data-name="Path 215" class="cls-1" d="M43.221,137.93,90.8,142.474l1.688,13.568-52.16-8.449Z" transform="translate(-20.167 -69.051)"/>
        <path id="Path_216" data-name="Path 216" class="cls-1" d="M146.364,141.15l2.9,12.764-6.172,3.74L141.4,144.086Z" transform="translate(-70.765 -70.662)"/>
        <path id="Path_217" data-name="Path 217" class="cls-1" d="M37.1,144.2l39.1,3.665s4.864,2.207,7.336,5.493a7.58,7.58,0,0,1,1.458,4.4s6.033-3.825,5.993-4.05L89.805,148.3s7.036,2.332,3.65,8.989-19.641,12.015-31.191,9.279c-10.487-2.5-11.7-5.273-16.544-10.327-4.7-4.894-9.693-5.643-20.2-1.174v-1.5S31.947,145.408,37.1,144.2Z" transform="translate(-12.753 -72.189)"/>
        <path id="Path_218" data-name="Path 218" class="cls-1" d="M5.83,171.664a2.863,2.863,0,0,0-.5.439c-1.213,1.253-6.492,6.991-5.164,10.637,1.5,4.135,1.818,4.554,5.568,6.886s8.894,3.091,14.832,1.783c.849-.185,1.623-.325,2.327-.429a28.972,28.972,0,0,0,6.367-1.423s3.426-11.805,1.883-13.533C26.4,170.7,18.274,163.719,5.83,171.664Z" transform="translate(0.046 -84.143)"/>
        <path id="Path_219" data-name="Path 219" class="cls-1" d="M50.465,131.65l-4.345,3.136L93.7,139.33l4.964-2.936Z" transform="translate(-23.066 -65.907)"/>
        <path id="Path_220" data-name="Path 220" class="cls-1" d="M52.34,68.105l43.876,3.905L91.576,2.851,84.18,0,59.2,3.586l-4.41,4.539Z" transform="translate(-26.179)"/>
        <path id="Path_221" data-name="Path 221" class="cls-1" d="M138.241,73.346,135.248,74.9,130.817,5.66l2.271,1.728Z" transform="translate(-65.513 -2.859)"/>
        <path id="Path_222" data-name="Path 222" class="cls-1" d="M103.754,200.914s-3.7-.5-4.04,4.08a2.227,2.227,0,0,0,1.458,2.252c2,.744,6.192,1.743,12.984.924C124.324,206.941,103.754,200.914,103.754,200.914Z" transform="translate(-49.893 -100.574)"/>
        <path id="Path_223" data-name="Path 223" class="cls-1" d="M155.334,183.99s-2.5-.33-2.707,2.742a1.5,1.5,0,0,0,1,1.5,18.815,18.815,0,0,0,8.719.619C169.132,188.045,155.334,183.99,155.334,183.99Z" transform="translate(-76.384 -92.104)"/>
        <circle id="Ellipse_13" data-name="Ellipse 13" class="cls-1" cx="2.802" cy="2.802" r="2.802" transform="translate(11.978 92.74)"/>
      </g>
    </g>
    <g id="Group_163" data-name="Group 163">
      <g id="Group_150" data-name="Group 150" transform="translate(53.287 -62.643)">
        <g id="Path_1820" data-name="Path 1820" class="cls-2" transform="translate(162 173)">
          <path class="cls-7" d="M 20.21331787109375 39.92663955688477 C 17.55181694030762 39.92663955688477 14.97018814086914 39.40548706054688 12.54015827178955 38.37767791748047 C 10.19276809692383 37.38480758666992 8.084497451782227 35.96333694458008 6.273897647857666 34.15273666381836 C 4.463297843933105 32.34213638305664 3.041827917098999 30.23386764526367 2.048957824707031 27.88647842407227 C 1.021147847175598 25.45644760131836 0.4999978840351105 22.87481880187988 0.4999978840351105 20.21331787109375 C 0.4999978840351105 17.55181694030762 1.021147847175598 14.97018814086914 2.048957824707031 12.54015827178955 C 3.041827917098999 10.19276809692383 4.463297843933105 8.084497451782227 6.273897647857666 6.273897647857666 C 8.084497451782227 4.463297843933105 10.19276809692383 3.041827917098999 12.54015827178955 2.048957824707031 C 14.97018814086914 1.021147847175598 17.55181694030762 0.4999978840351105 20.21331787109375 0.4999978840351105 C 22.87481880187988 0.4999978840351105 25.45644760131836 1.021147847175598 27.88647842407227 2.048957824707031 C 30.23386764526367 3.041827917098999 32.34213638305664 4.463297843933105 34.15273666381836 6.273897647857666 C 35.96333694458008 8.084497451782227 37.38480758666992 10.19276809692383 38.37767791748047 12.54015827178955 C 39.40548706054688 14.97018814086914 39.92663955688477 17.55181694030762 39.92663955688477 20.21331787109375 C 39.92663955688477 22.87481880187988 39.40548706054688 25.45644760131836 38.37767791748047 27.88647842407227 C 37.38480758666992 30.23386764526367 35.96333694458008 32.34213638305664 34.15273666381836 34.15273666381836 C 32.34213638305664 35.96333694458008 30.23386764526367 37.38480758666992 27.88647842407227 38.37767791748047 C 25.45644760131836 39.40548706054688 22.87481880187988 39.92663955688477 20.21331787109375 39.92663955688477 Z"/>
          <path class="cls-8" d="M 20.21331787109375 39.42663955688477 C 22.80753707885742 39.42663955688477 25.32362747192383 38.91877746582031 27.69170761108398 37.91716766357422 C 29.97948837280273 36.94951629638672 32.03434753417969 35.56402969360352 33.79918670654297 33.79918670654297 C 35.56402969360352 32.03434753417969 36.94951629638672 29.97948837280273 37.91716766357422 27.69170761108398 C 38.91877746582031 25.32362747192383 39.42663955688477 22.80753707885742 39.42663955688477 20.21331787109375 C 39.42663955688477 17.61909866333008 38.91877746582031 15.10300827026367 37.91716766357422 12.73492813110352 C 36.94951629638672 10.44714832305908 35.56402969360352 8.392288208007813 33.79918670654297 6.627448081970215 C 32.03434753417969 4.862607955932617 29.97948837280273 3.477117776870728 27.69170761108398 2.509467840194702 C 25.32362747192383 1.507857918739319 22.80753707885742 0.9999978542327881 20.21331787109375 0.9999978542327881 C 17.61909866333008 0.9999978542327881 15.10300827026367 1.507857918739319 12.73492813110352 2.509467840194702 C 10.44714832305908 3.477117776870728 8.392288208007813 4.862607955932617 6.627448081970215 6.627448081970215 C 4.862607955932617 8.392288208007813 3.477117776870728 10.44714832305908 2.509467840194702 12.73492813110352 C 1.507857918739319 15.10300827026367 0.9999978542327881 17.61909866333008 0.9999978542327881 20.21331787109375 C 0.9999978542327881 22.80753707885742 1.507857918739319 25.32362747192383 2.509467840194702 27.69170761108398 C 3.477117776870728 29.97948837280273 4.862607955932617 32.03434753417969 6.627448081970215 33.79918670654297 C 8.392288208007813 35.56402969360352 10.44714832305908 36.94951629638672 12.73492813110352 37.91716766357422 C 15.10300827026367 38.91877746582031 17.61909866333008 39.42663955688477 20.21331787109375 39.42663955688477 M 20.21331787109375 40.42663955688477 C 9.049807548522949 40.42663955688477 -2.12890631701157e-06 31.37682723999023 -2.12890631701157e-06 20.21331787109375 C -2.12890631701157e-06 9.049807548522949 9.049807548522949 -2.12890631701157e-06 20.21331787109375 -2.12890631701157e-06 C 31.37682723999023 -2.12890631701157e-06 40.42663955688477 9.049807548522949 40.42663955688477 20.21331787109375 C 40.42663955688477 31.37682723999023 31.37682723999023 40.42663955688477 20.21331787109375 40.42663955688477 Z"/>
        </g>
        <g id="Group_149" data-name="Group 149" transform="translate(171.074 181.16)">
          <rect id="Rectangle_324" data-name="Rectangle 324" class="cls-3" width="22.195" height="5.549" transform="translate(0.439 2.408)"/>
          <g id="Rectangle_320" data-name="Rectangle 320" class="cls-4" transform="translate(0 1.9)">
            <rect class="cls-7" width="23.072" height="21.297" rx="2"/>
            <rect class="cls-9" x="0.5" y="0.5" width="22.072" height="20.297" rx="1.5"/>
          </g>
          <line id="Line_25" data-name="Line 25" class="cls-4" x2="22.185" transform="translate(0.444 7.668)"/>
          <g id="Rectangle_321" data-name="Rectangle 321" class="cls-5" transform="translate(4.437)">
            <rect class="cls-7" width="3.55" height="5.574" rx="1.775"/>
            <rect class="cls-9" x="0.5" y="0.5" width="2.55" height="4.574" rx="1.275"/>
          </g>
          <g id="Rectangle_322" data-name="Rectangle 322" class="cls-5" transform="translate(14.198)">
            <rect class="cls-7" width="3.55" height="5.574" rx="1.775"/>
            <rect class="cls-9" x="0.5" y="0.5" width="2.55" height="4.574" rx="1.275"/>
          </g>
          <g id="Group_148" data-name="Group 148" transform="translate(3.55 10.774)">
            <rect id="Rectangle_323" data-name="Rectangle 323" class="cls-6" width="1.775" height="1.775" transform="translate(7.099)"/>
            <rect id="Rectangle_323-2" data-name="Rectangle 323" class="cls-6" width="1.775" height="1.775" transform="translate(10.649)"/>
            <rect id="Rectangle_323-3" data-name="Rectangle 323" class="cls-6" width="1.775" height="1.775" transform="translate(14.198)"/>
            <rect id="Rectangle_323-4" data-name="Rectangle 323" class="cls-6" width="1.775" height="1.775" transform="translate(0 3.55)"/>
            <rect id="Rectangle_323-5" data-name="Rectangle 323" class="cls-6" width="1.775" height="1.775" transform="translate(3.55 3.55)"/>
            <rect id="Rectangle_323-6" data-name="Rectangle 323" class="cls-6" width="1.775" height="1.775" transform="translate(7.099 3.55)"/>
            <rect id="Rectangle_323-7" data-name="Rectangle 323" class="cls-6" width="1.775" height="1.775" transform="translate(10.649 3.55)"/>
            <rect id="Rectangle_323-8" data-name="Rectangle 323" class="cls-6" width="1.775" height="1.775" transform="translate(14.198 3.55)"/>
            <rect id="Rectangle_323-9" data-name="Rectangle 323" class="cls-6" width="1.775" height="1.775" transform="translate(0 7.099)"/>
            <rect id="Rectangle_323-10" data-name="Rectangle 323" class="cls-6" width="1.775" height="1.775" transform="translate(3.55 7.099)"/>
            <rect id="Rectangle_323-11" data-name="Rectangle 323" class="cls-6" width="1.775" height="1.775" transform="translate(7.099 7.099)"/>
            <rect id="Rectangle_323-12" data-name="Rectangle 323" class="cls-6" width="1.775" height="1.775" transform="translate(10.649 7.099)"/>
          </g>
        </g>
      </g>
    </g>
  </g>
</svg>
