<svg xmlns="http://www.w3.org/2000/svg" viewBox="0 0 208.703 130.937">
  <defs>
    <style>
      .cls-1 {
        opacity: 0.8;
      }

      .cls-2 {
        fill: #707070;
      }
    </style>
  </defs>
  <g id="_4資產_10" data-name="4資產 10" class="cls-1">
    <g id="圖層_9" data-name="圖層 9" transform="translate(0 0)">
      <path id="Path_1410" data-name="Path 1410" class="cls-2" d="M123.316,1.864C93.663,7.209,73.468,38.679,69.4,56.952c-4.114,18.554-19.925,67.535-26.7,25.786-4.946-30.474-19.011-28.13-19.011-28.13C19,78.049,31.636,93.286,34.5,95.361c-1.442-.926-7.032-3.715-17.487.27-12.3,4.688-24.614-7.032-11.182,9.377s33.522,2.344,33.522,2.344c19.5,12.893,34.741,14.065,52.322,15.237-2.684,2.848-5.028,5.7-6.212,7.173a.692.692,0,0,0,.527,1.172c6.786,0,16.257-5,21.7-6.751,26.571,3.7,40.249.8,40.249.8s63.75-2.907,60.655-68.567C207.237,27.65,181.92-8.685,123.316,1.864Z" transform="translate(0.009 0.002)"/>
      <path id="Path_1411" data-name="Path 1411" class="cls-2" d="M189.322,72.037v-.105c-1.981-.258-35.866-4.9-58.147,13.784-23.934,20.078-39.78,26.137-39.394,26.2,3.212.445,9.072,1.934,15.753,1.934,18.753,0,30.1,0,43.367-4.688S180.824,96.522,189.322,72.037Z" transform="translate(15.803 12.262)"/>
      <circle id="Ellipse_31" data-name="Ellipse 31" class="cls-2" cx="5.86" cy="5.86" r="5.86" transform="translate(146.708 71.254)"/>
    </g>
  </g>
</svg>
