<?xml version="1.0" encoding="utf-8"?>
<!-- Generator: Adobe Illustrator 22.1.0, SVG Export Plug-In . SVG Version: 6.00 Build 0)  -->
<svg version="1.1" id="圖層_1" xmlns="http://www.w3.org/2000/svg" xmlns:xlink="http://www.w3.org/1999/xlink" x="0px" y="0px"
	 viewBox="0 0 750 1334" style="enable-background:new 0 0 750 1334;" xml:space="preserve">
<style type="text/css">
	.st0{clip-path:url(#SVGID_2_);}
	.st1{fill:url(#Path_2733_1_);}
	.st2{fill:url(#Ellipse_43_1_);}
	.st3{opacity:0.82;fill:#9DACFF;enable-background:new    ;}
	.st4{fill:url(#Rectangle_402_1_);}
	.st5{fill:#FFFFFF;}
	.st6{fill:#002F48;}
	.st7{fill:url(#Path_2742_1_);}
	.st8{fill:#3570FF;}
	.st9{fill:#004A82;}
	.st10{fill:#5AA9FF;}
	.st11{fill:#9DACFF;}
	.st12{fill:#00286D;}
	.st13{fill:#137FFF;}
	.st14{fill:#007AB0;}
	.st15{fill:#8ACAFF;}
	.st16{fill:#002353;}
	.st17{fill:#D700DA;}
	.st18{fill:#FF6BF5;}
	.st19{fill:#60004C;}
	.st20{fill:#00306B;}
	.st21{fill:#233240;}
	.st22{fill:url(#Path_2837_1_);}
	.st23{fill:url(#Path_2838_1_);}
	.st24{fill:url(#Path_2842_1_);}
	.st25{fill:url(#Path_2843_1_);}
	.st26{fill:#005A9D;}
	.st27{fill:#003678;}
	.st28{fill:#3C3544;}
	.st29{fill:url(#Path_2899_1_);}
	.st30{fill:url(#Path_2900_1_);}
	.st31{fill:#000F63;}
	.st32{fill:url(#Path_2902_1_);}
	.st33{fill:url(#Path_2904_1_);}
	.st34{fill:url(#Path_2905_1_);}
	.st35{fill:#FFF8F8;}
	.st36{opacity:0.2;}
	.st37{fill:none;stroke:#707070;}
</style>
<title>500-工作區域1</title>
<g id="Group_379">
	<g>
		<defs>
			<rect id="SVGID_1_" width="748.9" height="1332"/>
		</defs>
		<clipPath id="SVGID_2_">
			<use xlink:href="#SVGID_1_"  style="overflow:visible;"/>
		</clipPath>
		<g class="st0">
			<g id="Group_378">
				
					<linearGradient id="Path_2733_1_" gradientUnits="userSpaceOnUse" x1="6780.2808" y1="-7154.8496" x2="6780.2808" y2="-7152.8496" gradientTransform="matrix(441.54 0 0 265.24 -2993405.75 1897721.375)">
					<stop  offset="0" style="stop-color:#003B95"/>
					<stop  offset="6.000000e-02" style="stop-color:#0747A0"/>
					<stop  offset="0.24" style="stop-color:#1D6BC2"/>
					<stop  offset="0.43" style="stop-color:#2E86DD"/>
					<stop  offset="0.62" style="stop-color:#3A9AF0"/>
					<stop  offset="0.81" style="stop-color:#42A6FB"/>
					<stop  offset="1" style="stop-color:#44AAFF"/>
				</linearGradient>
				<path id="Path_2733" class="st1" d="M-81.1,499.3l877.9,8.6L800-22H-79.9L-81.1,499.3z"/>
				
					<linearGradient id="Ellipse_43_1_" gradientUnits="userSpaceOnUse" x1="6715.6401" y1="-7221.7744" x2="6717.6401" y2="-7221.7744" gradientTransform="matrix(85.65 0 0 85.65 -575016.3125 618704.5)">
					<stop  offset="0" style="stop-color:#FF64F0"/>
					<stop  offset="0" style="stop-color:#FF65F0"/>
					<stop  offset="0.32" style="stop-color:#FF92F0"/>
					<stop  offset="0.6" style="stop-color:#FFB3F0"/>
					<stop  offset="0.84" style="stop-color:#FFC7F0"/>
					<stop  offset="1" style="stop-color:#FFCEF0"/>
				</linearGradient>
				<circle id="Ellipse_43" class="st2" cx="236.9" cy="159.6" r="85.5"/>
				<path id="Path_2734" class="st3" d="M636,172.3c0,0-19.2-15.6-30-7c0,0-25.5,5.8-25.5,12.8c0,0-16.1-9.6-21.3,0
					c0,0-29.8,0.1-34.7,11.3c0,0-25.3-1.7-28.4,12.1c0,0-8.6-4.1-11.3-3.8c-3.4,0.3-11.8,6.9-11.8,6.9s-14.5-2-17.1,5.3
					c0,0-6.7,0.8-7.9,6.3c0,0-3.5-4.7-6.7-5.1c-1.9-0.2-7.4,2.1-7.4,2.1s-7.4-7-11.3-6.2c-3.2,0.8-6.4,2-9.4,3.4
					c0,0-5.4-6.9-10.9-6.9c-3.3,0.3-6.6,1.1-9.8,2.3c-3.1-3.6-7.5-5.8-12.3-6c-1.7-0.1-6.5,6.3-6.5,6.3s-6.6-4.3-12.5,0.2
					c0,0-6-15.2-21-14.1c-6.9,0.5-25.1,9.4-25.1,9.4s-15-6.3-24.8-7.1c-6-0.5-17.6,5.6-30.1,6.9c-16,1.6-50.3,0-61.7-13.1
					c0,0,79.2,2.8,73.4-0.3c-11.3-6.2-26-2.1-37.7-3c-0.2,0-0.4,0-0.3-0.2c1-3.6-22.6-8.1-36.2-7.2c-14.6,1-22.1,5.3-22.1,5.3
					c1.3-5.5-16.9-24.9-32.2-16.8c-7.8,4.2-16.7-27.5-37.7-21.5c0,0-4.5-9.6-11.2-12.3c-7.7-3.2-16.7,1.1-16.7,1.1s-6.5-5-13-5.4
					c-3.3,0.1-6.5,1.3-9.1,3.4c0,0-7.2-6.4-11.9-7.7c-3.1-0.9-10.5,0.5-10.5,0.5c-3.1-4.6-8.5-7.1-14-6.7c-2.8,0.3-5.6,0.7-8.4,1.3
					c0,0-7-16.1-22.1-11.4c-10.3,3.3-20.7,5.8-31.4,7.5v204.6h698.3L652,178.2L636,172.3z"/>
				<path id="Path_2735" class="st3" d="M366.6,139.6c0,0-21.7-7-40-4s-31,4.3-36.3,4s-21.7-2.9-28.3,0.1s41.6,3.3,41.6,3.3
					S375.9,144.9,366.6,139.6z"/>
				<path id="Path_2736" class="st3" d="M302.3,150.6c0,0,10.8-3.5,20-2c6,1.2,12.1,1.9,18.2,2c2.7-0.2,10.8-1.4,14.2,0
					s-20.8,1.6-20.8,1.6S297.6,153.1,302.3,150.6z"/>
				
					<linearGradient id="Rectangle_402_1_" gradientUnits="userSpaceOnUse" x1="6780.0732" y1="-7141.0303" x2="6780.0732" y2="-7139.0303" gradientTransform="matrix(433.23 0 0 444.89 -2936964.75 3177421.25)">
					<stop  offset="0" style="stop-color:#FFCEF0"/>
					<stop  offset="1" style="stop-color:#FF64F0"/>
				</linearGradient>
				<rect id="Rectangle_402" x="-65.9" y="475.3" class="st4" width="864.7" height="888.7"/>
				<g id="Group_323">
					<path id="Path_2737" class="st5" d="M176.5,694c7.1,9.5,14.9,18.5,23.4,26.8c4.3,4.1,8.6,8.1,13.2,11.7
						c4.6,3.7,9.3,7.1,14.3,10.3c2.5,1.6,5,3.1,7.6,4.5l1.9,1.1c0.6,0.3,1.2,0.6,1.9,0.9c1.3,0.5,2.7,0.9,4.1,1.2
						c5.8,1.1,11.7,1.9,17.6,2.3c5.9,0.5,11.9,1,17.9,1.9c6,0.7,11.7,2.5,17.1,5.2c-2.7-1.2-5.6-2.1-8.5-2.7c-2.9-0.6-5.8-1-8.8-1.2
						c-5.9-0.6-11.9-0.7-17.8-1c-6-0.1-12-0.7-18-1.6c-1.5-0.3-3-0.7-4.5-1.2c-0.8-0.3-1.5-0.5-2.2-0.9l-2-1c-2.7-1.3-5.4-2.8-8-4.3
						c-10.4-6.2-19.8-13.8-28-22.7c-2.1-2.2-4.1-4.4-6-6.8s-3.8-4.7-5.5-7.1C182.4,704.6,179.2,699.5,176.5,694z"/>
				</g>
				<g id="Group_324">
					<path id="Path_2738" class="st5" d="M499.6,1152.8c14.6,4.3,29.6,7.4,44.7,9.3c7.5,1.1,15.1,2,22.8,2.6s15.3,0.7,22.9,0.8
						c15.3,0.2,30.7-0.2,46-0.6c7.7-0.2,15.4-0.4,23.1-0.3c3.8,0,7.7,0.1,11.5,0.3c3.8,0.1,7.7,0.7,11.4,1.6
						c-3.7-0.8-7.6-1.1-11.4-1.1c-3.8-0.1-7.7,0-11.5,0.1c-7.7,0.2-15.3,0.7-23,1c-15.3,0.8-30.7,1.6-46,1.7
						c-7.7,0-15.4-0.1-23.1-0.5l-5.8-0.3l-5.8-0.3c-3.9-0.3-7.7-0.7-11.5-1.2c-1.9-0.2-3.8-0.6-5.7-0.9s-3.8-0.7-5.7-1l-2.8-0.6
						l-2.8-0.7l-2.8-0.7l-2.8-0.8c-1.9-0.5-3.7-1.1-5.6-1.7s-3.7-1.3-5.5-2C506.6,1156.3,503,1154.8,499.6,1152.8z"/>
				</g>
				<g id="Group_325">
					<path id="Path_2739" class="st5" d="M98.2,892.9c-6-2.2-11.9-4.6-17.8-7.1c-2.9-1.2-5.9-2.5-8.8-3.8l-8.7-3.9
						c-2.9-1.4-5.8-2.6-8.7-4l-4.3-2c-0.7-0.3-1.4-0.7-2.1-1l-2.2-0.9c-5.9-2.3-11.9-4.2-18-5.6C15.3,862,2.7,860-9.9,858.8
						c-6.3-0.7-12.7-1.3-19-2c-3.2-0.4-6.3-0.8-9.5-1.3c-3.1-0.5-6.2-1.3-9.2-2.5c3,1,6.1,1.7,9.3,2c3.2,0.4,6.3,0.6,9.5,0.9
						l19.1,1.3c12.8,0.7,25.5,2.4,38.1,4.9c6.4,1.3,12.6,3.1,18.7,5.4c6.1,2.3,11.9,4.6,17.8,7.2c2.9,1.3,5.8,2.7,8.7,4
						c1.4,0.7,2.9,1.4,4.3,2.1s2.9,1.4,4.3,2.2C87.4,886,93,889.2,98.2,892.9z"/>
				</g>
				<path id="Path_2740" class="st5" d="M799.8,1085.6c0,0-118,69.7-275.3,27.1c-82.4-22.4-103.2-3.9-153.5-25.7
					c-87.8-38.1-130.4-7.4-189.2-34.3c-51.7-23.7-109.4-32.1-212.7-55.8c-66.8-15.4,14-182.4-35.1-227.8l4-407.6h868.7L799.8,1085.6
					z"/>
				<path id="Path_2741" class="st6" d="M795.8,1065.6c0,0-118,69.7-275.3,27.1c-82.4-22.4-103.3-3.9-153.5-25.7
					c-87.8-38.1-130.4-7.4-189.2-34.3c-51.7-23.7-109.4-32.1-212.7-55.8c-66.8-15.4,14-182.4-35-227.8l4-407.6h868.7L795.8,1065.6z"
					/>
				
					<linearGradient id="Path_2742_1_" gradientUnits="userSpaceOnUse" x1="6780.2456" y1="-7144.3101" x2="6780.2456" y2="-7142.3208" gradientTransform="matrix(437.23 0 0 383.07 -2964160.5 2737080.25)">
					<stop  offset="0" style="stop-color:#003B95"/>
					<stop  offset="5.000000e-02" style="stop-color:#0F54AD"/>
					<stop  offset="0.12" style="stop-color:#206FC6"/>
					<stop  offset="0.2" style="stop-color:#2D85DB"/>
					<stop  offset="0.29" style="stop-color:#3796EB"/>
					<stop  offset="0.4" style="stop-color:#3FA1F7"/>
					<stop  offset="0.56" style="stop-color:#43A8FD"/>
					<stop  offset="1" style="stop-color:#44AAFF"/>
				</linearGradient>
				<path id="Path_2742" class="st7" d="M795.8,1033.6c0,0-118,69.7-275.3,27.1c-82.4-22.4-103.3-3.9-153.5-25.7
					c-87.8-38.1-130.4-7.4-189.2-34.3c-51.7-23.7-109.4-32.1-212.7-55.8c-66.8-15.4,14-182.4-35-227.8l4-407.6h868.7L795.8,1033.6z"
					/>
				<path id="Path_2743" class="st8" d="M639.4,288.3l-175-60.3l-43.1,19.9l-13.8-6.6l-51.3,29c0,0-29.9,19.7-64,14.4
					s-39.5-3.9-46.2-2.4s-17-4.8-17-4.8l-93.8-64.6l-9.1,6.9l-42.3-27.8l-133.8,56.6v70.9H669v-49.1L639.4,288.3z"/>
				<g id="Group_326">
					<path id="Path_2744" class="st9" d="M541.7,286.4c12.6-35.3,24.6-69,37.4-104.7c5.7,15.3,10.8,29.1,16.4,44.3
						c23.3-49.3,46.2-97.6,69.8-147.6c16.6,34,32.7,66.9,49.8,102.3c8.9-19.6,17.5-38.7,27.4-60.4c28.1,73.9,53.8,141.5,80.3,211.3
						h-327c10.8-24.9,21-48,32.7-74.9C533.1,267,537.2,276.2,541.7,286.4z M660.5,287c1.5,5.2,4.2,14.4,8.1,27.6
						c4.5-11.3,8-20.1,12.3-31.2c4.1,24.6,11.6,29.2,21.8,23.9c1.3-1,3-1.3,4.6-0.9c10.2,5.2,13.9-6.8,16.7-21.4
						c2.6-13.3,5.3-26.5,8.1-40.4c4.3,4.1,7.3,7,10.9,10.4V148.8c-9.8,19.3-19.3,38.6-29.2,57c-7.8,14.5-16.2,27.7-24.1,42
						c-4,7.2-6.7,17.2-11,23C673.7,277.4,667.5,280.9,660.5,287L660.5,287z M605.8,299.5c1.4-0.2,2.3,0.2,2.7-0.4
						c16.7-27.1,34.1-52.8,49.8-82c13.2-24.6,13-26.4,25.6-2.6c0.3,0.6,1.1,0.3,2.2,0.6c1.3-10.7,2.7-21.5,4.8-38.1
						c4.5,10.6,7.2,17,10.3,24.1c1.9-3.7,4.6-9,7.4-14.4c-14.3-29.1-28.1-57-43-87.4c-2.3,29.5-4.3,55.1-6.4,82.7
						c-5.5-6.9-9.7-12.2-14.2-17.8C631.8,209.6,619,253.9,605.8,299.5z M546.4,303.3c15.5,8.8,29.9-1.9,31.6-24.6
						c1.5-19.9,0.3-40.4,0.3-65.5C566.8,245.8,556.8,273.8,546.4,303.3z"/>
					<path id="Path_2745" class="st10" d="M660.5,287c7-6.1,13.2-9.6,18.2-16.3c4.4-5.9,7.1-15.8,11-23c7.9-14.3,16.3-27.5,24.1-42
						c9.9-18.5,19.4-37.8,29.2-57.1V255c-3.6-3.4-6.6-6.3-10.9-10.4c-2.8,13.9-5.6,27.1-8.1,40.4c-2.8,14.6-6.5,26.6-16.7,21.4
						c-1.4-0.7-3.1,0.2-4.6,0.9c-10.2,5.3-17.7,0.8-21.8-23.9c-4.4,11.1-7.8,19.8-12.3,31.2C664.7,301.4,662,292.2,660.5,287z"/>
					<path id="Path_2746" class="st10" d="M605.8,299.5c13.2-45.6,25.9-90,39-135.3c4.5,5.6,8.8,10.9,14.2,17.8
						c2.1-27.5,4.1-53.3,6.4-82.7c14.9,30.3,28.7,58.3,43,87.4c-2.8,5.4-5.5,10.7-7.4,14.4c-3.1-7.2-5.8-13.6-10.3-24.1
						c-2.1,16.6-3.4,27.4-4.8,38.1c-1.1-0.3-1.8,0-2.2-0.6c-12.6-23.8-12.4-22-25.6,2.6c-15.6,29.1-33.1,54.8-49.8,82
						C608.1,299.7,607.3,299.3,605.8,299.5z"/>
					<path id="Path_2747" class="st10" d="M546.5,303.3c10.4-29.5,20.4-57.5,31.9-90.1c0,25.2,1.2,45.7-0.3,65.5
						C576.3,301.4,561.9,312.1,546.5,303.3z"/>
				</g>
				<path id="Path_2748" class="st9" d="M-90.8,259.8c0,0,61.7-56.2,158.1-30.3s123.5,67.5,184.9,66.2s172.3,7.9,211.8,0
					s100.7,14.4,131.1,8.5S705,257.1,755,270s44.3,37,44.3,37l4.6,51.4l-75.4-19.8L628,364.5l-127.5-14.4l-111.2,8.3l-69.4-11.5
					L175.7,355l-276.3-26.9L-90.8,259.8z"/>
				<g id="Group_327">
					<path id="Path_2749" class="st9" d="M-105.4,299.9c12.6-24.5,24.6-48,37.4-72.6c5.7,10.6,10.8,20.2,16.4,30.7
						c23.3-34.2,46.2-67.7,69.8-102.5c16.6,23.5,32.7,46.5,49.8,71c8.9-13.6,17.5-26.9,27.4-42c28.1,51.3,53.8,121.7,80.3,170.1
						c-37.3,3.5-100.2,6.4-100.2,6.4l-26.3,22.4l-72.7,9.9l-41.7,49.5c0,0-64.1-85.9-86-111.6c10.8-17.3,21-33.4,32.7-52
						C-114,286.4-109.9,292.8-105.4,299.9z M13.4,300.5c1.5,3.6,4.2,10,8.1,19.1c4.5-7.9,8-13.9,12.3-21.6
						c4.1,17.1,11.6,20.2,21.8,16.6c1.4-0.7,3-0.9,4.6-0.6c10.2,3.6,13.9-4.7,16.7-14.9c2.6-9.2,5.3-18.4,8.1-28.1
						c4.3,2.8,7.3,4.8,10.9,7.2v-73.7c-9.8,13.4-19.3,26.8-29.2,39.6c-7.8,10.1-16.2,19.2-24.1,29.1c-4,5-6.7,11.9-11,16
						C26.5,293.8,20.3,296.3,13.4,300.5z M-41.3,309.2c1.4-0.1,2.3,0.1,2.7-0.3c16.7-18.8,34.1-36.7,49.8-56.9
						c13.2-17.1,13-18.3,25.6-1.8c0.3,0.4,1.1,0.2,2.2,0.4c1.3-7.4,2.7-14.9,4.8-26.4c4.5,7.3,7.2,11.8,10.3,16.8
						c1.9-2.6,4.6-6.2,7.4-10c-14.3-20.2-28.1-39.7-42.9-60.6c-2.3,20.5-4.3,38.3-6.4,57.3c-5.5-4.8-9.7-8.4-14.2-12.4
						C-15.3,246.8-28.1,277.5-41.3,309.2z M-100.6,311.8c15.5,6.1,29.9-1.3,31.6-17.1c1.5-13.8,0.3-28,0.3-45.4
						C-80.3,271.9-90.2,291.4-100.6,311.8z"/>
					<path id="Path_2750" class="st10" d="M13.4,300.5c7-4.2,13.2-6.7,18.2-11.3c4.4-4.1,7.1-11,11-16c7.9-9.9,16.3-19.1,24.1-29.1
						c9.9-12.8,19.4-26.2,29.2-39.6v73.7c-3.6-2.4-6.6-4.4-10.9-7.2c-2.8,9.6-5.6,18.8-8.1,28.1c-2.8,10.2-6.5,18.5-16.7,14.9
						c-1.6-0.3-3.2-0.1-4.6,0.6c-10.2,3.7-17.7,0.5-21.8-16.6c-4.4,7.7-7.8,13.8-12.3,21.6C17.6,310.5,15,304.2,13.4,300.5z"/>
					<path id="Path_2751" class="st10" d="M-41.3,309.2c13.2-31.8,25.9-62.4,39-93.9c4.5,3.9,8.8,7.6,14.2,12.4
						c2.1-19.1,4.1-37,6.4-57.3c14.9,21.1,28.7,40.5,43,60.6c-2.8,3.8-5.5,7.4-7.4,10c-3.1-5-5.8-9.4-10.3-16.8
						c-2.1,11.5-3.4,19-4.8,26.4c-1.1-0.2-1.8,0-2.2-0.4C24,233.7,24.2,235,11,252c-15.6,20.1-33.1,38-49.8,56.9
						C-39,309.4-39.9,309.1-41.3,309.2z"/>
				</g>
				<g id="Group_328">
					<path id="Path_2753" class="st11" d="M127.8,201.8c0,0-44.2-9.9-81.6-5.6s-63.2,6.1-74.1,5.6s-44.2-4.1-57.8,0.1s85,4.6,85,4.6
						S146.7,209.3,127.8,201.8z"/>
					<path id="Path_2754" class="st11" d="M-3.6,217.3c0,0,22.1-4.9,40.8-2.8s31.7,3.1,37.1,2.8s22.1-2,28.9,0s-42.5,2.3-42.5,2.3
						S-13.2,221-3.6,217.3z"/>
				</g>
				<g id="Group_329">
					<path id="Path_2755" class="st11" d="M824.1,125.6c0,0-44.2-9.9-81.6-5.6s-63.2,6.1-74.1,5.6s-44.2-4.1-57.8,0.1s85,4.6,85,4.6
						S843.2,133.1,824.1,125.6z"/>
					<path id="Path_2756" class="st11" d="M690.7,104.2c0,0,22.1-4.9,40.8-2.8s31.7,3.1,37.1,2.8s22.1-2,28.9,0s-42.4,2.3-42.4,2.3
						S681.1,107.9,690.7,104.2z"/>
				</g>
				<g id="Group_334">
					<path id="Path_2757" class="st12" d="M582.1,991.4l77.5-10.9l24.9-20.7L649.8,930L548,912.3L582.1,991.4z"/>
					<g id="Group_333">
						<g id="圖層_2_1_">
							<g id="圖層_17">
								<g id="Group_330">
									<path id="Path_2758" class="st9" d="M616.6,923.5l18.7,36l-53.3,32l-8.7-50L616.6,923.5z"/>
									<path id="Path_2759" class="st13" d="M587.7,917.2l0.7,6.6l-29.1,11.1l-40.6-5.4l0.7-11.9l-32,14.6l86.3,11.7l42.8-20.4
										L587.7,917.2z"/>
									<path id="Path_2760" class="st14" d="M574.7,943.5l7.5,47.8l-109.3-15.9l14.6-43.3L574.7,943.5z"/>
								</g>
								<g id="Group_331">
									<path id="Path_2761" class="st9" d="M583.1,791.3l-24.4,6.1l4.3,138.3l28.3-11.2L583.1,791.3z"/>
									<path id="Path_2762" class="st15" d="M558.9,797.1l-38.2-3l-2.7,137.1l45,4.5L558.9,797.1z"/>
									<path id="Path_2763" class="st16" d="M551.2,934.9l-1.3-27.9c0-0.8-0.7-1.5-1.5-1.6l-19.7-2.1c-0.7-0.1-1.4,0.4-1.5,1.2
										c0,0,0,0,0,0v0.2l-0.6,27.6L551.2,934.9z"/>
									<path id="Path_2764" class="st9" d="M521.2,782.5l-0.3,27.3l39.6,7.3l23.8-14.2l-1.1-16.4L521.2,782.5z"/>
								</g>
								<path id="Path_2765" class="st15" d="M563.7,763.7l-1.8,37.9l-47.1-3.5l-11.2-39.8L563.7,763.7z"/>
								<path id="Path_2766" class="st9" d="M600.4,753.6l-9,37.3l-29.5,10.7l1.8-38.1L600.4,753.6z"/>
								<g id="Group_332">
									<path id="Path_2767" class="st9" d="M552,715.9l14.6,48l38-11.8L552,715.9z"/>
									<path id="Path_2768" class="st14" d="M552,715.9l-52.9,42.4l67.5,5.6L552,715.9z"/>
								</g>
								<path id="Path_2769" class="st16" d="M516.3,768.7l4.5,19.9c0.3,1.2,1.4,2,2.6,2.2l26.9,2.5c1.7,0.1,3.1-1.3,3.2-3l1.5-19.9
									c0.2-1.7-1-3.3-2.7-3.6h-0.1l-32.9-2.4c-1.7,0-3.1,1.4-3.1,3.1C516.1,767.9,516.1,768.4,516.3,768.7z"/>
								<path id="Path_2770" class="st16" d="M593.9,762.9l-4.6,20.2c-0.2,0.7-0.7,1.3-1.3,1.6l-17.4,6.1c-1,0.3-2.1-0.3-2.5-1.3
									v-0.1c-0.1-0.3-0.1,1-0.1,0.7l1-21.6c0-0.9,0.5-1.8,1.4-2.1l20.9-6.2c1.2-0.2,2.4,0.6,2.6,1.8
									C594,762.3,594,762.6,593.9,762.9L593.9,762.9z"/>
							</g>
						</g>
					</g>
				</g>
				<g id="Group_338">
					<g id="Group_335">
						<path id="Path_2771" class="st17" d="M218.9,655.2c0,0,23.1,43,23.7,58.4s-10,26.6-36.1,18.1
							C179.3,722.9,218.9,655.2,218.9,655.2"/>
						<path id="Path_2772" class="st18" d="M209.4,670c0,0,27.7,31.9,31.2,44.8s-3.1,23.9-26.6,21.4
							C189.6,733.5,209.4,670,209.4,670"/>
						<path id="Path_2773" class="st19" d="M210.7,717.8l7,5.6v-12.7l-1.3-2l-6.1,2.4l-0.5-1.4l5.3-2l-4.3-3.2l0.9-1.1l8,5.5V695h2
							v7l4.8-3.5l0.8,1.1l-5.7,4.2v14.4l4.6-2.3l0.6-6.4l1.5,0.2l-0.5,5.4l4.8-2.4l0.7,1.3l-11.7,5.9v10.4l7.9-4l0.6,1.2l-8.5,4.4
							v17h-2v-23.6l-9.8-6.2L210.7,717.8z"/>
					</g>
					<g id="Group_336">
						<path id="Path_2774" class="st17" d="M294.6,649.5c0,0-26.4,49.1-27.1,66.8s11.4,30.4,41.3,20.7
							C339.9,726.9,294.6,649.5,294.6,649.5"/>
						<path id="Path_2775" class="st18" d="M305.4,666.5c0,0-31.7,36.5-35.7,51.2s3.6,27.4,30.4,24.5
							C328.1,739,305.4,666.5,305.4,666.5"/>
						<path id="Path_2776" class="st19" d="M304,721.1l-8.4,6.4V713l1.9-2.3l7,2.7l0.5-1.6l-6-2.3l4.8-3.6l-1-1.3l-7.2,6.3V695h-4
							v7.6l-4.5-4l-1,1.3l7.5,4.8v16.3l-6.4-2.6l-0.8-7.3l-1.6,0.2l0.6,6.1l-5.2-2.7l-0.8,1.4l12.1,6.7v11.7l-7.8-4.4l-0.8,1.4
							l8.6,4.9v18.6h2v-25.4l11.3-7L304,721.1z"/>
					</g>
					<g id="Group_337">
						<path id="Path_2777" class="st17" d="M255.4,619.6c0,0-37.4,69.6-38.4,94.8s16.2,43.1,58.5,29.4
							C319.7,729.5,255.4,619.6,255.4,619.6"/>
						<path id="Path_2778" class="st18" d="M270.8,643.8c0,0-45,51.7-50.6,72.5s5.1,38.8,43.1,34.7
							C302.9,746.7,270.8,643.8,270.8,643.8"/>
						<path id="Path_2779" class="st19" d="M268.7,721.3l-15.1,9.1v-20.7l5.9-3.3l9.9,3.9l0.8-2.2l-8.6-3.3l6.9-5.2l-1.4-1.8
							l-11.5,9V683h-4v12l-7-5.7l-1.4,1.8l8.4,6.8v23l-6.6-3.7l-1.1-10.2l-2.3,0.2l0.9,8.7l-7.4-3.9l-1.1,2l17.6,9.5v16.7l-11.6-6.4
							l-1.1,2.1l14.8,6.9v28h2v-37.7l14.4-9.9L268.7,721.3z"/>
					</g>
				</g>
				<g id="Group_342">
					<g id="Group_339">
						<path id="Path_2780" class="st17" d="M677.7,781.7c0,0,27.8,51.8,28.5,70.4s-12,32-43.5,21.8
							C630.1,863.3,677.7,781.7,677.7,781.7"/>
						<path id="Path_2781" class="st18" d="M666.3,799.6c0,0,33.4,38.4,37.6,53.8s-3.8,28.8-32,25.8
							C642.5,876.1,666.3,799.6,666.3,799.6"/>
						<path id="Path_2782" class="st19" d="M667.9,857.2l9,6.7v-15.3l-2.3-2.4l-7.3,2.8l-0.7-1.6l6.4-2.4l-5.1-3.9l1.1-1.3l9.9,6.7
							v-17.7l0,0v8.8l6.8-4.2l1,1.3l-5.8,5.1v17.1l4.6-2.7l0.7-7.6l1.7,0.1l-0.6,6.5l5.5-2.9l0.8,1.5l-12.7,7.1v12.3l8.2-4.7
							l0.8,1.5l-9,5.2v19.5h-4V866l-10-7.4L667.9,857.2z"/>
					</g>
					<g id="Group_340">
						<path id="Path_2783" class="st17" d="M768.9,774.8c0,0-31.8,59.2-32.6,80.5s13.7,36.6,49.7,25
							C823.5,868.1,768.9,774.8,768.9,774.8"/>
						<path id="Path_2784" class="st18" d="M782,795.2c0,0-38.2,43.8-43,61.5s4.3,33,36.6,29.5C809.2,882.7,782,795.3,782,795.2"/>
					</g>
					<g id="Group_341">
						<path id="Path_2786" class="st17" d="M721.8,738.9c0,0-45,83.8-46.2,114.2s19.5,51.8,70.4,35.4
							C799.1,871.3,721.8,738.9,721.8,738.9"/>
						<path id="Path_2787" class="st18" d="M740.3,768c0,0-54,62.2-60.9,87.3s6.1,46.7,52,41.8C778.9,891.9,740.3,768,740.3,768"/>
						<path id="Path_2788" class="st19" d="M737.8,861.3l-14.9,11v-24.9l3.8-3.9l11.9,4.6l1-2.6l-10.3-4l8.2-6.2l-1.6-2.3l-13,10.9
							v-27.1h-6v12.8l-8.1-6.9l-1.7,2.2l11.8,8.2v27.8l-9.8-4.5l-1.2-12.3l-2.8,0.3l1.1,10.5l-9-4.7l-1.3,2.4l21,11.4v20l-13.8-7.7
							l-1.3,2.5l17.1,8.3v33.5h2v-45l18.3-12L737.8,861.3z"/>
					</g>
				</g>
				<g id="Group_343">
					<path id="Path_2789" class="st9" d="M195.8,289.7l-6-10.7l2.8-0.2l-4.5-7l2.8-0.2l-6-7.9l2.7-0.2l-5.9-10v-0.1l-5.9,10.1
						l2.7,0.2l-6.1,7.8l2.9,0.2l-4.5,7l2.8,0.3l-6,10.7l4.9-0.1l0,0L195.8,289.7z"/>
					<rect id="Rectangle_403" x="179.7" y="287.6" class="st9" width="2" height="10"/>
					<path id="Path_2790" class="st9" d="M205.8,291.7l-6-10.7l2.9-0.2l-4.6-7l2.9-0.2l-6.1-7.9l2.7-0.2l-5.9-10v-0.1l-5.9,10.1
						l2.7,0.2l-6,7.8l2.8,0.2l-4.5,7l2.8,0.3l-6,10.7l4.9-0.1l0,0L205.8,291.7z"/>
					<rect id="Rectangle_404" x="189.7" y="289.6" class="st9" width="2" height="8"/>
				</g>
				<g id="Group_344">
					<path id="Path_2791" class="st9" d="M146,255.6l-3.5-6.2l1.6-0.1l-2.6-4.1l1.7-0.1l-3.5-4.6l1.5-0.1l-3.4-5.8v-0.1l-3.4,5.9
						l1.5,0.1l-3.5,4.6l1.6,0.1l-2.6,4.1l1.7,0.1l-3.5,6.2L146,255.6L146,255.6z"/>
					<rect id="Rectangle_405" x="135.8" y="253.6" class="st9" width="2" height="6"/>
					<path id="Path_2792" class="st9" d="M151.3,257.6l-3.5-7.1l1.7-0.1l-2.6-4.1l1.6-0.1l-3.5-4.6l1.5-0.1l-2.8-5.8v-0.1l-4,5.9
						l1.5,0.1l-3.5,4.6l1.7,0.1l-2.6,4l1.6,0.2l-3.5,6.2l2.9-0.1v1L151.3,257.6z"/>
					<rect id="Rectangle_406" x="141.8" y="255.6" class="st9" width="2" height="4"/>
				</g>
				<g id="Group_345">
					<path id="Path_2793" class="st20" d="M36.3,389.4l-9.5-18.3l4.5-0.4l-7.2-11l4.5-0.4L19.2,347l4.1-0.4l-9.2-15.9l-0.1,0.4v-0.5
						l-9.2,15.9l4.1,0.4l-9.5,12.4l4.5,0.4l-7.2,11l4.5,0.4l-9.6,16.4l7.9,2L36.3,389.4L36.3,389.4z"/>
					<rect id="Rectangle_408" x="12" y="383.4" class="st20" width="4" height="12"/>
					<path id="Path_2794" class="st20" d="M21.4,383.4l-9.6-16.9l4.5-0.4l-7.1-11l4.4-0.4l-9.5-12.4l4.2-0.4L-1,326.1l-1,0.4V326
						l-8.3,15.9l4.2,0.4l-9.6,12.4l4.5,0.4l-7.2,11l4.5,0.4l-9.5,15l7.8,2L21.4,383.4L21.4,383.4z"/>
				</g>
				<g id="Group_346">
					<path id="Path_2795" class="st20" d="M690.6,347.7l-8.3-14.8l3.9-0.3l-6.3-9.7l3.9-0.3l-8.3-10.8l3.6-0.3l-8-13.9l-0.1,0.3
						v-0.4l-8.1,13.9l3.7,0.3l-8.3,10.8l3.9,0.3l-6.3,9.7l3.9,0.3l-8.3,14.7h6.8L690.6,347.7z"/>
					<rect id="Rectangle_409" x="669" y="343.5" class="st20" width="4" height="14"/>
					<path id="Path_2796" class="st20" d="M704.5,351.5l-8.3-15.3l3.9-0.3l-6.2-9.7l3.9-0.3l-8.4-10.8l3.7-0.3l-8.1-13.9l-0.1,0.3
						v-0.4l-8,13.9l3.6,0.3l-8.3,10.8l3.9,0.3l-6.2,9.7l3.9,0.3l-8.3,13.4l6.8,2L704.5,351.5L704.5,351.5z"/>
					<rect id="Rectangle_410" x="683" y="347.5" class="st20" width="4" height="10"/>
				</g>
				<g id="Group_347">
					<path id="Path_2797" class="st20" d="M737.9,381.4l-9.9-19.3l4.6-0.3l-7.4-11.5l4.6-0.4l-9.9-12.9l4.4-0.3l-9.6-16.6l0.2,0.5
						v-0.6l-10,16.5l4.3,0.4l-9.9,12.9l4.7,0.4l-7.5,11.5l4.7,0.3l-9.9,17.4l8.1,2H737.9L737.9,381.4z"/>
					<rect id="Rectangle_411" x="712.9" y="375.4" class="st20" width="4" height="18"/>
					<path id="Path_2798" class="st20" d="M753.5,385.4l-9.9-18.4l4.7-0.3l-7.5-11.5l4.7-0.4l-9.9-12.9l4.3-0.4l-9.6-16.5l0.6,0.4
						v-0.5l-10.3,16.5l4.3,0.4l-9.8,12.9l4.6,0.3l-7.4,11.5l4.6,0.4l-9.9,16.6l8.1,2H753.5L753.5,385.4z"/>
					<rect id="Rectangle_412" x="728.9" y="379.4" class="st20" width="4" height="14"/>
				</g>
				<g id="Group_348">
					<path id="Path_2799" class="st20" d="M167.9,347.5l-10.6-19.7l5-0.4l-8-12.4l5-0.4l-10.7-13.9l4.7-0.3L143,282.6l0.7,0.4v-0.5
						l-11.2,17.7l4.7,0.4l-10.6,13.9l4.9,0.4l-7.9,12.4l5,0.3L118,347.5H167.9L167.9,347.5z"/>
					<rect id="Rectangle_413" x="141.8" y="341.5" class="st20" width="4" height="20"/>
					<path id="Path_2800" class="st20" d="M184.8,353.5l-10.7-20.6l5-0.4l-8-12.3l5-0.4l-10.6-13.9l4.6-0.4l-10.3-17.8l-0.1,0.5
						v-0.6l-10.3,17.8l4.6,0.3l-10.6,13.9l5,0.4l-8,12.4l5,0.4l-10.7,18.7l8.8,2H184.8z"/>
					<rect id="Rectangle_414" x="157.8" y="347.5" class="st20" width="4" height="14"/>
				</g>
				<g id="Group_349">
					<path id="Path_2801" class="st20" d="M116.7,394.8l-12.1-17.1l5.5-0.5l-9.1-11.1l5.6-0.5l-12.1-12.5l5.2-0.4l-11.8-16l-0.1,0.4
						v-0.6l-11.2,16.5l5.2,0.2l-11.6,13l5.5,0.2l-8.7,11.5l5.6,0.2l-11.5,17.6l9.7-0.3l0,0L116.7,394.8z"/>
					
						<rect id="Rectangle_415" x="87" y="391.6" transform="matrix(0.9998 -1.797592e-02 1.797592e-02 0.9998 -7.1402 1.6656)" class="st20" width="4.2" height="12.8"/>
				</g>
				<g id="Group_350">
					<path id="Path_2802" class="st9" d="M505.2,293.6l-2.8-6.1l1.3-0.1l-2.1-3.5l1.3-0.2l-2.8-3.9l1.2-0.1l-2.7-5l0,0l-2.5,5.1
						l1.1,0.1l-2.6,3.7h1.3l-2,3.9l1.3,0.1l-2.6,5.4l2.2,0.6L505.2,293.6L505.2,293.6z"/>
					
						<rect id="Rectangle_416" x="498.4" y="291.5" transform="matrix(0.9998 -1.797592e-02 1.797592e-02 0.9998 -5.1958 9.015)" class="st9" width="1" height="4"/>
				</g>
				<g id="Group_351">
					<path id="Path_2803" class="st9" d="M130.4,247.5l-2.7-5.4l1.2-0.1l-2.1-3.5l1.3-0.1l-2.8-3.9l1.2-0.1l-2.7-5v-0.1l-2.5,5.1
						l1.2,0.1l-2.6,4l1.2,0.1l-1.9,3.5l1.2,0.1l-2.6,5.5l2.2-0.1l0,0L130.4,247.5z"/>
					
						<rect id="Rectangle_417" x="122.7" y="246.3" transform="matrix(0.9998 -1.797592e-02 1.797592e-02 0.9998 -4.4427 2.2555)" class="st9" width="1" height="4"/>
				</g>
				<g id="Group_352">
					<path id="Path_2804" class="st9" d="M515,293.6l-2.8-5.6l1.3-0.1l-2.1-3.5l1.2-0.1l-2.7-3.9l1.2-0.1l-1.8-5v0.1l-1-0.2
						l-2.5,5.1l1.2,0.1l-2.6,4l1.3,0.1l-2,3.1h1.3l-2.6,5.9l2.2,0L515,293.6L515,293.6z"/>
					
						<rect id="Rectangle_418" x="508.2" y="292.1" transform="matrix(0.9998 -1.797592e-02 1.797592e-02 0.9998 -5.2049 9.1911)" class="st9" width="1" height="4"/>
				</g>
				<g id="Group_353">
					<path id="Path_2805" class="st8" d="M509.9,243.6l-2.4-4.6l1.1-0.2l-1.8-3l1.1-0.1l-2.4-3.4l1-0.1l-2.4-4.4l0,0l-2.2,4.4l1,0.1
						l-2.2,3.5l1.1,0.1l-1.7,3.7h1.1l-2.3,4.2l1.9-0.2L509.9,243.6L509.9,243.6z"/>
					
						<rect id="Rectangle_419" x="504" y="242.6" transform="matrix(0.9998 -1.797592e-02 1.797592e-02 0.9998 -4.3105 9.1058)" class="st8" width="0.8" height="3.5"/>
				</g>
				<g id="Group_354">
					<path id="Path_2806" class="st8" d="M521.1,247.5l-2.4-4.8l1-0.1l-1.8-3l1.1-0.1l-2.4-3.4l1.1-0.2l-2.4-4.4v-0.1L513,236l1,0.1
						l-2.2,3.5h1.1l-1.7,3.1l1.1,0.1l-2.3,4.8h1.9L521.1,247.5z"/>
					
						<rect id="Rectangle_420" x="515.1" y="245.4" transform="matrix(0.9998 -1.999600e-02 1.999600e-02 0.9998 -4.8384 10.3582)" class="st8" width="0.8" height="3.5"/>
				</g>
				<g id="Group_355">
					<path id="Path_2807" class="st8" d="M527,253.5l-2.6-4.8l1.2-0.1l-1.9-3.3l1.2-0.1l-2.5-3.6l1-0.1l-2.3-4.6l0,0l-2.3,4.7h1
						l-2.4,3.7l1.2,0.1l-1.8,3.3l1.2,0.1l-2.3,4.9l2-0.1l0,0L527,253.5z"/>
					
						<rect id="Rectangle_421" x="520.8" y="251.9" transform="matrix(0.9998 -1.797592e-02 1.797592e-02 0.9998 -4.4746 9.4108)" class="st8" width="0.8" height="3.5"/>
				</g>
				<g id="Group_356">
					<path id="Path_2808" class="st8" d="M261.3,287.5l-2.4-4.6l1.1-0.1l-1.8-3.1l1.1-0.1l-2.4-3.4l1-0.1l-2.3-4.3v0.1l-0.1-0.1
						l-2.1,4.4l1,0.1l-2.3,3.4l1.1,0.1l-1.7,3.1l1.1,0.1l-2.2,4.7l1.9-0.1l0,0L261.3,287.5z"/>
					
						<rect id="Rectangle_422" x="254.5" y="285.7" transform="matrix(0.9998 -1.797592e-02 1.797592e-02 0.9998 -5.1253 4.6288)" class="st8" width="0.8" height="3.4"/>
				</g>
				<g id="Group_357">
					<path id="Path_2809" class="st8" d="M268.4,281.5l-2.4-4.6l1.1-0.1l-1.8-3l1.1-0.2l-2.4-3.3l1.1-0.2l-2.4-4.3l0,0l-2.2,4.4
						l1,0.1l-2.2,3.4l1.1,0.1l-1.7,3.1l1.1,0.1l-2.3,4.7l1.9-0.1l0,0L268.4,281.5z"/>
					
						<rect id="Rectangle_423" x="262.6" y="280.8" transform="matrix(0.9998 -1.797592e-02 1.797592e-02 0.9998 -5.0362 4.7734)" class="st8" width="0.8" height="3.4"/>
				</g>
				<g id="Group_358">
					<path id="Path_2810" class="st9" d="M524.8,283.6l-2.1-5.5l0.9-0.1l-1.6-2.7l1-0.1l-2.1-3.1l0.9-0.1l-2.1-3.9l-0.5,0.1V268
						l-1.5,3.5h0.9l-2,4h0.9L516,278l1,0.1l-2,4.2l2.2-0.1v1.4L524.8,283.6z"/>
					
						<rect id="Rectangle_424" x="520.1" y="280.2" transform="matrix(0.9998 -1.999600e-02 1.999600e-02 0.9998 -5.5303 10.4634)" class="st9" width="0.7" height="3.1"/>
				</g>
				<g id="Group_359">
					<path id="Path_2811" class="st20" d="M135.2,386.9l-12.3-24l5.5-0.6l-9.1-15.7l5.5-0.6l-12.2-17.5l5.2-0.6l-11.9-22.6l-0.1,0.6
						v-0.7l-11.1,22.9l5.2,0.4l-11.5,18l5.5,0.4l-8.6,16l5.6,0.4l-11.4,24.4l9.7-0.3l0,0L135.2,386.9z"/>
					
						<rect id="Rectangle_425" x="104.9" y="382.4" transform="matrix(0.9998 -1.797592e-02 1.797592e-02 0.9998 -7.0179 1.9859)" class="st20" width="4.2" height="17.9"/>
				</g>
				<g id="Group_360">
					<path id="Path_2812" class="st20" d="M34.5,493.3h-3.3l-1.8-1.8l-7,4.9l-6.7,12.3l-2,1.1l-5.2,9.9l-5.5,10.8l4.1,15.9
						c0,0,19.7,9.3,20.2,9.4s18.6-2.3,18.6-2.3l15.2-10l-4.9-20.3l-1.4-14.7l-10.6-7.7l-2-2.9L34.5,493.3z"/>
					<path id="Path_2813" class="st8" d="M32.3,502.7c0.5,0,12.1-1.4,12.1-1.4l2.1,1.4l-5.6,1.5l-4.7,7l-4.7,11.1L32.3,502.7z"/>
					<path id="Path_2814" class="st20" d="M41.7,497.4l-6.3,0.9l-5,1h7.8l5.4,0.3l-0.7-1.6L41.7,497.4z"/>
					<path id="Path_2815" class="st20" d="M52.8,509.8L55,509l1.4,14.7l5.1,20.3l-15.4,10l0.2-3l8.8-6.5l1.1-3.5l-3.6-10.8
						c0,0-1.1,2.8-1.1,2.4s-0.6-8.3-0.6-8.3L52.8,509.8z"/>
					<path id="Path_2816" class="st20" d="M61.5,544.1l-5.3-3l-1.2,3.5L61.5,544.1z"/>
					<path id="Path_2817" class="st20" d="M46,554.2l-0.3-3.3l9.3-6.3l6.5-0.5L46,554.2z"/>
					<path id="Path_2818" class="st20" d="M27.5,556.4l-4.6-7.3l-13.7-6.3l-6-11.7L7.3,547L27.5,556.4z"/>
					<path id="Path_2819" class="st20" d="M22.9,549.1l22.9,1.8l0.3,3.3l-18.6,2.2L22.9,549.1z"/>
					<path id="Path_2820" class="st20" d="M-35.7,556c1.3,0,55.5,1.3,55.5,1.3l-19.7-17l-61.9-26.2l-1.7,7.4L-35.7,556z"/>
					<path id="Path_2821" class="st20" d="M29.4,534.6l7.4,23.1l-17-0.4l-19.7-17L29.4,534.6z"/>
					<path id="Path_2822" class="st20" d="M38.5,524.5l2.6,18.8l-4.4,14.4l-7.4-23.1L38.5,524.5z"/>
					<path id="Path_2823" class="st8" d="M-61.9,514.1l61.9,26.2l28-3.5l10.5-12.3l-11.2-9.6L15,507.1L2.8,496.6l-9.6-0.9l-49,14
						L-61.9,514.1z"/>
					<path id="Path_2824" class="st20" d="M9.9,502.5l-27.5,4.7H15L9.9,502.5z"/>
					<path id="Path_2825" class="st20" d="M2.8,496.6l-16.4,5.3l-4,5.2l27.5-4.7L2.8,496.6z"/>
				</g>
				<g id="Group_364">
					<g id="Group_361">
						<path id="Path_2826" class="st17" d="M38.3,486.2c0,0,18.6,34.6,19.1,47.1s-8,21.4-29.1,14.6C6.5,540.8,38.3,486.2,38.3,486.2
							"/>
						<path id="Path_2827" class="st18" d="M30.8,498.2c0,0,22.3,25.7,25.1,36s-2.5,19.3-21.4,17.2
							C14.8,549.4,30.8,498.2,30.8,498.2"/>
						<path id="Path_2828" class="st19" d="M31.8,536.7l8.2,4.6V531l-3.6-1.6l-4.9,1.9l-0.4-1.1l4.2-1.6l-3.4-2.6l0.7-0.9l7.4,4.5
							v-12.4l0,0v6.5l3.8-2.9l0.7,0.9l-4.5,3.4v11.5l3.7-1.9l0.5-5.1l1.1,0.1l-0.4,4.4l3.7-2l0.5,1.1l-9.1,4.7v8.2L46,543l0.6,1
							l-4.7,3.4v13.8h-4v-18.6l-6.8-4.9L31.8,536.7z"/>
					</g>
					<g id="Group_362">
						<path id="Path_2829" class="st17" d="M99.4,481.6c0,0-21.3,39.6-21.8,53.8s9.2,24.5,33.3,16.7
							C135.9,544.1,99.4,481.6,99.4,481.6"/>
						<path id="Path_2830" class="st18" d="M108.1,495.3c0,0-25.5,29.4-28.8,41.2s2.9,22,24.5,19.7
							C126.3,553.8,108.1,495.3,108.1,495.3"/>
						<path id="Path_2831" class="st19" d="M106.9,539.4l-7,5.1v-11.7l1.8-1.8l5.6,2.1l0.5-1.2l-4.9-1.9l3.9-2.9L106,526l-8.1,5.2
							v-14l0,0v7.2l-4.7-3.2l-0.8,1l5.4,3.9v13.1l-4.4-2.1l-0.6-5.9l-1.3,0.2l0.5,4.9l-4.2-2.2l-0.6,1.2l10.6,5.4v9.4l-7.3-3.6
							l-0.6,1.2l7.8,3.9v15.6l0,0v-21.1l9.7-5.6L106.9,539.4z"/>
					</g>
					<g id="Group_363">
						<path id="Path_2832" class="st17" d="M67.8,457.6c0,0-30.2,56-30.8,76.3s13,34.7,47.2,23.7C119.6,546.1,67.9,457.6,67.8,457.6
							"/>
						<path id="Path_2833" class="st18" d="M80.2,477c0,0-36.2,41.6-40.8,58.5s4.1,31.3,34.8,27.9C106,560,80.2,477,80.2,477"/>
						<path id="Path_2834" class="st19" d="M78.5,539.5l-12.6,7.3v-16.6l5.2-2.6l8,3l0.6-1.7l-6.9-2.7l5.5-4.1l-1.1-1.5l-9.3,7.3
							v-18.6h-4v9.1l-4.8-4.6l-1.2,1.4l6,5.5v18.6l-4.6-3l-0.8-8.2l-1.9,0.2l0.7,7l-6-3.2l-0.8,1.7l15.4,7.6v13.4l-10.6-5.1
							l-0.9,1.7l11.5,5.5v22.4h2v-30.1l11.6-8.1L78.5,539.5z"/>
					</g>
				</g>
				<g id="Group_366">
					<path id="Path_2835" class="st5" d="M101.5,1086.4c0,0-14.5,3.6-5.4,9.7s23.5,3,37.9,13.9s33.8,2.4,64.7,0s35.5-13.9,23.5-20
						S110,1080.3,101.5,1086.4z"/>
					<path id="Path_2836" class="st21" d="M153.8,865.2l2.5,160.2l-11.3,7.1l7.5-167.2c0-0.3,0.3-0.6,0.6-0.6c0,0,0,0,0,0
						C153.5,864.6,153.8,864.9,153.8,865.2C153.8,865.2,153.8,865.2,153.8,865.2L153.8,865.2z"/>
					
						<linearGradient id="Path_2837_1_" gradientUnits="userSpaceOnUse" x1="6597.75" y1="-7444.0244" x2="6599.7598" y2="-7444.0244" gradientTransform="matrix(34.47 0 0 25.57 -227308.3594 191250.0156)">
						<stop  offset="0" style="stop-color:#007AB0"/>
						<stop  offset="1.000000e-02" style="stop-color:#0078AE"/>
						<stop  offset="0.19" style="stop-color:#00649B"/>
						<stop  offset="0.39" style="stop-color:#00558D"/>
						<stop  offset="0.62" style="stop-color:#004D84"/>
						<stop  offset="1" style="stop-color:#004A82"/>
					</linearGradient>
					<path id="Path_2837" class="st22" d="M175.1,887.5l-52.3-6.8c-0.9-0.1-1.8,0.5-1.9,1.5c0,0.1,0,0.3,0,0.4
						c1.8,12.5-0.2,25.3-5.7,36.7l66.3,12.5C181.6,931.9,190.4,911.3,175.1,887.5z"/>
					
						<linearGradient id="Path_2838_1_" gradientUnits="userSpaceOnUse" x1="6674.0898" y1="-7295.7705" x2="6676.0898" y2="-7295.7705" gradientTransform="matrix(56.45 0 0 47.14 -376683.8438 344892.0313)">
						<stop  offset="0" style="stop-color:#007AB0"/>
						<stop  offset="1.000000e-02" style="stop-color:#0078AE"/>
						<stop  offset="0.19" style="stop-color:#00649B"/>
						<stop  offset="0.39" style="stop-color:#00558D"/>
						<stop  offset="0.62" style="stop-color:#004D84"/>
						<stop  offset="1" style="stop-color:#004A82"/>
					</linearGradient>
					<path id="Path_2838" class="st23" d="M190,933.6l-86-11.2c-1-0.2-1.9,0.5-2.1,1.5c0,0,0,0,0,0c0,0.1,0,0.3,0,0.4
						c0.7,29.8-2,59.5-7.9,88.7c-0.3,1.5,0.6,3,2.1,3.4c0.2,0,0.4,0.1,0.6,0.1h100.2C196.9,1016.6,222.8,964.5,190,933.6z"/>
					<path id="Path_2839" class="st21" d="M184.2,829.3l6.1,184.2c0,0.1-0.1,0.3-0.2,0.3l-12.9,5.4c-0.2,0.1-0.3,0-0.4-0.2
						c0,0,0,0,0,0l0,0l6.8-189.6C183.7,828.9,184.2,828.9,184.2,829.3z"/>
					<path id="Path_2840" class="st9" d="M203.3,1004.3c0,0,19.5,10.3,30.6,24.7c0.1,0.2,0.2,0.4,0.2,0.6c0.2,3.1,1.1,26-11.6,66.8
						c-0.1,0.4-0.4,0.7-0.8,0.7l-27.5,8.1L203.3,1004.3z"/>
					<path id="Path_2841" class="st15" d="M121.9,1042.7c-0.7,3.8-5.5,29.5-3.3,51.1c0.1,0.5,0.5,0.9,1,1l75.2,10.3l8.6-101
						c0,0-65.4,18.8-81,37.7C122.1,1042.1,121.9,1042.4,121.9,1042.7z"/>
					
						<linearGradient id="Path_2842_1_" gradientUnits="userSpaceOnUse" x1="6605.7998" y1="-7457.3682" x2="6607.8301" y2="-7457.3682" gradientTransform="matrix(35.86 0 0 24.67 -236709.1094 184848.75)">
						<stop  offset="0" style="stop-color:#8ACAFF"/>
						<stop  offset="0.15" style="stop-color:#85C6FB"/>
						<stop  offset="0.33" style="stop-color:#77B9EE"/>
						<stop  offset="0.51" style="stop-color:#61A4DA"/>
						<stop  offset="0.7" style="stop-color:#4186BD"/>
						<stop  offset="0.9" style="stop-color:#186098"/>
						<stop  offset="1" style="stop-color:#004A82"/>
					</linearGradient>
					<path id="Path_2842" class="st24" d="M202.9,852.8l-49.7-2c-1.6,0-2.9,1.2-2.9,2.8c0,0.2,0,0.5,0.1,0.7
						c3.2,12.2,2.4,25.1-2.1,36.8c-0.4,0.8,0,1.8,0.8,2.1c0,0,0,0,0,0c0.2,0.1,0.3,0.1,0.5,0.1l66.5,6.7c1.1,0.1,2.2-0.6,2.5-1.6
						c1.4-5.8,4.1-24.4-12.7-44.3C205.1,853.4,204,852.9,202.9,852.8z"/>
					
						<linearGradient id="Path_2843_1_" gradientUnits="userSpaceOnUse" x1="6691.21" y1="-7278.541" x2="6693.21" y2="-7278.541" gradientTransform="matrix(65.64 0 0 52.24 -439120.625 381180.9688)">
						<stop  offset="0" style="stop-color:#8ACAFF"/>
						<stop  offset="0.21" style="stop-color:#87C7FC"/>
						<stop  offset="0.38" style="stop-color:#7DBEF3"/>
						<stop  offset="0.53" style="stop-color:#6CAEE4"/>
						<stop  offset="0.68" style="stop-color:#5498CE"/>
						<stop  offset="0.82" style="stop-color:#357BB2"/>
						<stop  offset="0.95" style="stop-color:#0F5890"/>
						<stop  offset="1" style="stop-color:#004A82"/>
					</linearGradient>
					<path id="Path_2843" class="st25" d="M227.6,912l-96.1-14.2c-0.8-0.1-1.6,0.5-1.7,1.3c0,0.1,0,0.2,0,0.3
						c0.2,33.2-3.9,66.3-12.4,98.4c-0.2,0.8,0.2,1.6,1,1.8c0,0,0,0,0,0c0.1,0,0.3,0.1,0.4,0.1l113.5,2.5c1.9,0.1,3.7-0.9,4.6-2.6
						c5.9-11.3,26.3-56.7-7.1-86.5C229.2,912.4,228.4,912.1,227.6,912z"/>
					<path id="Path_2844" class="st26" d="M201.7,1023.9l-1.3,15.1c11.3,3.4,22.2,8.1,32.4,14.2c0,0,0.9-6.8,1-10.4
						C233.8,1042.8,213.1,1028.7,201.7,1023.9z"/>
					<path id="Path_2845" class="st26" d="M201.7,1023.7c0,0-57.6,13.2-81.3,28.5c0,0-0.2-0.2-1.1,8.5c0,0,46.6-19,81.1-21.6
						L201.7,1023.7z"/>
					<g id="Group_365">
						<path id="Path_2846" class="st5" d="M86.5,1093.2c-0.3,2.1,0.3,4.2,1.5,5.9c1.2,1.7,2.7,3.1,4.4,4.2c3.6,2,7.5,3.5,11.5,4.2
							c1,0.2,2,0.5,3,0.7s2,0.4,3,0.6c2,0.4,4.1,0.6,6.1,0.8c1,0.1,2.1,0.3,3.1,0.6c1,0.3,2,0.8,2.8,1.5c1.7,1.2,3.3,2.5,4.9,3.9
							c-1.7-1.2-3.3-2.5-5-3.6c-0.9-0.5-1.8-1-2.8-1.3c-1-0.2-2-0.4-3-0.5c-4.1-0.4-8.2-1-12.3-2c-4.1-0.8-8-2.3-11.7-4.5
							c-1.8-1.2-3.3-2.7-4.4-4.5c-0.5-0.9-0.9-1.9-1.1-2.9C86.3,1095.2,86.3,1094.2,86.5,1093.2z"/>
					</g>
				</g>
				<g id="Group_369">
					<g id="Group_367">
						<path id="Path_2847" class="st20" d="M340.6,798.1l-38.9,4.9l-35.1-5.9L251,786.6l-13.9-20.3l-1-4.4l96,14.5l12.5,0.8
							l3.2,15.1L340.6,798.1z"/>
						<path id="Path_2848" class="st8" d="M343.5,781.3c-1.3-0.2-21.2,3.4-21.2,3.4l-26-1c0,0-30.8-4.7-31.8-5.3
							s-28.3-16.5-28.3-16.5l9.3-4l35.1,1.8l55.1,12.9l9,4.7L343.5,781.3z"/>
						<path id="Path_2849" class="st15" d="M236.1,762l41.8,1.9l2.5-4.1l-35-1.8L236.1,762z"/>
						<path id="Path_2850" class="st20" d="M277.9,763.9l43.4,20.9l22.2-3.5l1.2-4l-9-4.7l-55.3-12.8L277.9,763.9z"/>
						<path id="Path_2851" class="st27" d="M301.8,803l-6.8-19.5l27.3,1.2l21.2-3.4l1.2-4l3.2,15.1l-7.2,5.8L301.8,803z"/>
						<path id="Path_2852" class="st27" d="M266.5,797.1l-2.1-18.7L236.1,762l0.3,3.2l13.7,21.5L266.5,797.1z"/>
						<path id="Path_2853" class="st20" d="M274.6,800.2l-9.9-11l-6.9-1.9l-6.2,2.4l-5,4.3l1.3,1.2l1.8,5.9l7.5,0.6l10.7,2.6
							L274.6,800.2z"/>
						<path id="Path_2854" class="st8" d="M261.8,793.6l-13.9,1.6l-1.3-1.2l5-4.3l2.6-1l11.4,1.4L261.8,793.6z"/>
						<path id="Path_2855" class="st27" d="M249.7,801.1l-2-0.8l-1.1-6.3l1.3,1.2L249.7,801.1z"/>
						<path id="Path_2856" class="st27" d="M261.8,793.6l6.1,10.7l6.7-4.1l-9-10.1L261.8,793.6z"/>
					</g>
					<g id="Group_368">
						<path id="Path_2857" class="st27" d="M303.1,750.9h3l1.7-1.7l6.4,4.4l6.1,11.2l1.8,1l4.7,9l5,9.8L328,799c0,0-18,8.5-18.4,8.6
							s-17-2.1-17-2.1l-13.9-9.1l4.4-18.6l1.2-13.4l9.7-7.1l1.8-2.6L303.1,750.9z"/>
						<path id="Path_2858" class="st8" d="M305.2,758.2c-0.4,0-11.1-1.2-11.1-1.2l-1.9,1.2l5.1,1.4l4.3,6.4l4.3,10.1L305.2,758.2z"
							/>
						<path id="Path_2859" class="st15" d="M296.6,753.1l5.7,0.8l4.6,1h-7.1l-5,0.3l0.7-1.5L296.6,753.1z"/>
						<path id="Path_2860" class="st8" d="M286.4,764.7l-2-0.7l-1.2,13.4l-4.6,18.6l14.1,9.1l-0.2-2.7l-8-6l-1-3.2l3.3-9.8
							c0,0,1,2.6,1,2.2s0.6-7.6,0.6-7.6L286.4,764.7z"/>
						<path id="Path_2861" class="st8" d="M278.5,795.9l4.9-2.7l1,3.2L278.5,795.9z"/>
						<path id="Path_2862" class="st27" d="M292.7,805.1l0.2-2.9l-8.5-5.8l-5.9-0.5L292.7,805.1z"/>
						<path id="Path_2863" class="st28" d="M309.6,807.2l4.3-6.7l12.4-5.8l5.5-10.7l-3.7,14.6L309.6,807.2z"/>
						<path id="Path_2864" class="st20" d="M313.9,800.5l-21,1.7l-0.2,2.9l16.9,2.1L313.9,800.5z"/>
						<path id="Path_2865" class="st20" d="M367.2,806.8c-1.2,0-50.7,1.2-50.7,1.2l18-15.6l56.6-23.9l1.6,6.8L367.2,806.8z"/>
						<path id="Path_2866" class="st27" d="M307.9,787.2l-6.8,21.2l15.6-0.4l17.9-15.6L307.9,787.2z"/>
						<path id="Path_2867" class="st20" d="M299.5,778.2l-2.4,17.1l4,13.2l6.8-21.2L299.5,778.2z"/>
						<path id="Path_2868" class="st8" d="M391.2,768.5l-56.6,23.9l-25.5-3.2l-9.6-11.1l10.2-8.9l11.4-7.1l11.1-9.6l8.8-0.8
							l44.6,12.8L391.2,768.5z"/>
						<path id="Path_2869" class="st20" d="M325.7,758.7l25.1,4.2h-29.7L325.7,758.7z"/>
						<path id="Path_2870" class="st15" d="M332.2,752.6l15,4.9l3.6,4.7l-25.1-4.2L332.2,752.6z"/>
					</g>
				</g>
				<g id="Group_370">
					<path id="Path_2871" class="st20" d="M330.1,329.5h-1.9l-1-1l-4,2.8l-3.8,7l-1.1,0.6l-3.1,5.6l-3.1,6.2l2.3,9.1l11.5,5.4
						c0.3,0.1,10.7-1.3,10.7-1.3l8.7-5.7l-2.8-11.6l-0.8-8.4l-6.1-4.4l-1.1-1.6L330.1,329.5z"/>
					<path id="Path_2872" class="st8" d="M328.9,334.9c0.3,0,6.9-0.8,6.9-0.8l1.2,0.8l-3.2,0.9l-2.7,4l-2.7,6.3L328.9,334.9z"/>
					<path id="Path_2873" class="st20" d="M334.1,332.4l-3.5,0.5l-2.9,0.6h4.4l3.2,0.2l-0.5-0.9L334.1,332.4z"/>
					<path id="Path_2874" class="st20" d="M340.5,338.9l1.3-0.4l0.8,8.4l2.9,11.6l-8.8,5.7l0.1-1.7l5-3.7l0.6-2l-2.1-6.2
						c-0.2,0.5-0.4,1-0.6,1.4c0-0.2-0.3-4.7-0.3-4.7L340.5,338.9z"/>
					<path id="Path_2875" class="st20" d="M345.4,358.5l-3-1.7l-0.6,2L345.4,358.5z"/>
					<path id="Path_2876" class="st20" d="M336.7,364.3l-0.1-1.9l5.3-3.6l3.6-0.3L336.7,364.3z"/>
					<path id="Path_2877" class="st20" d="M326.1,365.5l-2.7-4.2l-7.8-3.6l-3.4-6.7l2.4,9.1L326.1,365.5z"/>
					<path id="Path_2878" class="st20" d="M323.4,361.4l13.2,1l0.1,1.9l-10.6,1.3L323.4,361.4z"/>
					<path id="Path_2879" class="st20" d="M290,365.3c0.7,0,31.7,0.7,31.7,0.7l-11.2-9.7l-35.4-15l-1,4.2L290,365.3z"/>
					<path id="Path_2880" class="st20" d="M327.2,353.1l4.2,13.2l-9.7-0.2l-11.3-9.8L327.2,353.1z"/>
					<path id="Path_2881" class="st20" d="M332.4,347.3l1.5,10.8l-2.5,8.2l-4.2-13.2L332.4,347.3z"/>
					<path id="Path_2882" class="st8" d="M275,341.4l35.4,14.9l16-2l6-7l-6.4-5.5l-7.1-4.4l-7-6l-5.5-0.5l-27.9,8L275,341.4z"/>
					<path id="Path_2883" class="st20" d="M316,334.8l-15.7,2.7h18.6L316,334.8z"/>
					<path id="Path_2884" class="st20" d="M311.9,331.4l-9.3,3l-2.3,3l15.7-2.7L311.9,331.4z"/>
				</g>
				<g id="Group_371">
					<path id="Path_2886" class="st20" d="M674.6,693.8l48.8,8.8l29.9-1.6l33.3-0.2l8.6-26.2l-12.2-27l-22.8,16.6l-34.2,8.5
						l-47.8-19.3l-40.7-23.1l2.2,15.4L674.6,693.8z"/>
					<path id="Path_2887" class="st15" d="M637.6,630.4c5.5,1.6,47.5,26.9,47.5,26.9l41,15.5l34.3-8.5l22.7-16.6l-1-11.2l-42.7-24.7
						l-66.7,7.3L637.6,630.4z"/>
					<path id="Path_2888" class="st27" d="M726,672.8l-2.5,29.9l63.1-1.8l-26.4-36.6L726,672.8z"/>
					<path id="Path_2890" class="st8" d="M757,710.4l-20.3-15.8L689.7,675l-38.4-7.6l30,15.5l6.4,8.1l15.1,6.1l26.2,6.6L757,710.4z"
						/>
					<path id="Path_2891" class="st20" d="M642.2,701.8c0.1-2.2,8.4-16.4,8.4-16.4l23.9-2.4h14.5l5.8,8L642.2,701.8z"/>
					<path id="Path_2892" class="st27" d="M642.2,702.1l7.1,2.5l107.8,5.8l-48.8-13l-13.6-6.1L642.2,702.1z"/>
					<path id="Path_2893" class="st27" d="M662.8,667.9l-12.3,17.9l38.4-2.4L662.8,667.9z"/>
				</g>
				<path id="Path_2894" class="st12" d="M376.6,545.8l21.3,5.2l20.9-3.1l90.6,6.8l-5.5-12.8l8.8-7.1l73.5-5.1l-19.7-29.8
					l-56.7-16.8L376.6,545.8z"/>
				<path id="Path_2895" class="st9" d="M382.5,493.2c0,0,4.8,46.9,25.6,48.1s50,2.9,56,3.1c4,0.2,41.8-19.3,53.6-25.4
					c2.2-1.1,3.6-3.3,3.6-5.8c0.1-6.3,0.6-18.9-3.5-23.6C493.4,461.5,395.8,477.4,382.5,493.2z"/>
				<path id="Path_2896" class="st12" d="M381.4,493.8v8.8c0,0,15.8-7,24.4-5.2c6.9,1.4,14.2,10.3,18.7,15.1
					c4.3,4.7,23.5,20.1,58.9,12.8s38.7-19.8,35.7-32.9l-41.5,12.1l-73.9-21.8L381.4,493.8z"/>
				<path id="Path_2897" class="st9" d="M401.8,468.8l95.2,9.1l3.4,27.2L396,488.1L401.8,468.8z"/>
				<path id="Path_2898" class="st12" d="M506.9,472l5.8,25.6l-12.3,7.4l-3.4-27.2L506.9,472z"/>
				
					<linearGradient id="Path_2899_1_" gradientUnits="userSpaceOnUse" x1="6698.04" y1="-7484.6812" x2="6700.04" y2="-7484.6812" gradientTransform="matrix(68.91 0 0 23.17 -461208.875 173918.2188)">
					<stop  offset="0" style="stop-color:#8ACAFF"/>
					<stop  offset="0.24" style="stop-color:#63A5DB"/>
					<stop  offset="0.59" style="stop-color:#2D74AB"/>
					<stop  offset="0.85" style="stop-color:#0C568D"/>
					<stop  offset="1" style="stop-color:#004A82"/>
				</linearGradient>
				<path id="Path_2899" class="st29" d="M404.5,475l78.2,7.3c0,0,9.7,4.4,14.7,11c1.9,2.6,2.9,5.6,2.9,8.8c0,0,12.1-7.7,12-8.1
					l-2.4-10.8c0,0,14.1,4.7,7.3,18c-6.8,13.3-39.3,24.1-62.3,18.7c-21.1-5-23.4-10.6-33.1-20.7c-9.4-9.8-19.4-11.3-40.4-2.4v-3
					C381.5,493.8,394.2,477.4,404.5,475z"/>
				
					<linearGradient id="Path_2900_1_" gradientUnits="userSpaceOnUse" x1="6583.562" y1="-7472.9326" x2="6584.8721" y2="-7471.2031" gradientTransform="matrix(31.73 0 0 24.03 -208539.0469 180068.3594)">
					<stop  offset="0" style="stop-color:#8ACAFF"/>
					<stop  offset="0.18" style="stop-color:#86C7FC"/>
					<stop  offset="0.35" style="stop-color:#7BBCF2"/>
					<stop  offset="0.52" style="stop-color:#68ABE1"/>
					<stop  offset="0.68" style="stop-color:#4E93C9"/>
					<stop  offset="0.83" style="stop-color:#2C73AA"/>
					<stop  offset="0.99" style="stop-color:#034D85"/>
					<stop  offset="1" style="stop-color:#004A82"/>
				</linearGradient>
				<path id="Path_2900" class="st30" d="M367.4,506c-0.4,0.2-0.7,0.5-1,0.9c-2.4,2.5-13,14-10.3,21.3c3,8.3,3.6,9.1,11.2,13.8
					s17.8,6.2,29.7,3.6c1.7-0.4,3.2-0.7,4.7-0.9c4.4-0.4,8.7-1.4,12.8-2.9c0,0,6.9-23.6,3.8-27.1C408.6,504.1,392.3,490.1,367.4,506
					z"/>
				<path id="Path_2901" class="st31" d="M410.5,462.5l-8.7,6.3l95.2,9.1l9.9-5.9L410.5,462.5z"/>
				
					<linearGradient id="Path_2902_1_" gradientUnits="userSpaceOnUse" x1="6643.3398" y1="-7239.2207" x2="6645.3398" y2="-7239.2207" gradientTransform="matrix(43.97 0 0 72.14 -291719.875 522640.375)">
					<stop  offset="0" style="stop-color:#8ACAFF"/>
					<stop  offset="0.21" style="stop-color:#87C7FC"/>
					<stop  offset="0.38" style="stop-color:#7DBEF3"/>
					<stop  offset="0.53" style="stop-color:#6CAEE4"/>
					<stop  offset="0.68" style="stop-color:#5498CE"/>
					<stop  offset="0.82" style="stop-color:#357BB2"/>
					<stop  offset="0.95" style="stop-color:#0F5890"/>
					<stop  offset="1" style="stop-color:#004A82"/>
				</linearGradient>
				<path id="Path_2902" class="st32" d="M408,467.3l87.8,7.8l-9.3-138.4l-14.8-5.6l-50,7.2l-8.9,9.1L408,467.3z"/>
				<path id="Path_2903" class="st12" d="M501.2,472l-5.4,3l-9.3-138.4l4.4,3.4L501.2,472z"/>
				
					<linearGradient id="Path_2904_1_" gradientUnits="userSpaceOnUse" x1="6410.8301" y1="-8235.416" x2="6412.8301" y2="-8235.416" gradientTransform="matrix(17.3 0 0 7.59 -110437.1484 63046.0508)">
					<stop  offset="0" style="stop-color:#0078D4"/>
					<stop  offset="0.2" style="stop-color:#0075CF"/>
					<stop  offset="0.44" style="stop-color:#006EC2"/>
					<stop  offset="0.68" style="stop-color:#0061AB"/>
					<stop  offset="0.94" style="stop-color:#004F8B"/>
					<stop  offset="1" style="stop-color:#004A82"/>
				</linearGradient>
				<path id="Path_2904" class="st33" d="M463.4,531.7c0,0-7.4-1-8.1,8.2c-0.1,2,1.1,3.8,2.9,4.5c4,1.5,12.4,3.5,26,1.8
					C504.6,543.8,463.4,531.7,463.4,531.7z"/>
				
					<linearGradient id="Path_2905_1_" gradientUnits="userSpaceOnUse" x1="6226.25" y1="-8791.4629" x2="6228.2402" y2="-8791.4629" gradientTransform="matrix(11.64 0 0 5.07 -71948.6797 45092.5703)">
					<stop  offset="0" style="stop-color:#0078D4"/>
					<stop  offset="0.2" style="stop-color:#0075CF"/>
					<stop  offset="0.44" style="stop-color:#006EC2"/>
					<stop  offset="0.68" style="stop-color:#0061AB"/>
					<stop  offset="0.94" style="stop-color:#004F8B"/>
					<stop  offset="1" style="stop-color:#004A82"/>
				</linearGradient>
				<path id="Path_2905" class="st34" d="M513.6,514.8c0,0-5-0.7-5.4,5.5c-0.1,1.3,0.7,2.6,2,3c2.7,1,8.3,2.3,17.5,1.2
					C541.3,522.9,513.6,514.8,513.6,514.8z"/>
				<circle id="Ellipse_44" class="st9" cx="385.2" cy="522.1" r="5.6"/>
				<g id="Group_377">
					<g id="Group_375">
						<path id="Path_2906" class="st35" d="M340,1229.9c3.9,8,41.2,22.8,97.7,22.7c53.9-0.1,97.6-12.8,97.3-21.5s-44.1-14.5-98.1-13
							c-30.8,0.9-48,1.1-65.7,5.2C357.7,1226.4,334.4,1218.1,340,1229.9z"/>
						<g id="Group_374">
							<g id="Group_373">
								<g id="Group_372">
									<path id="Path_2907" class="st35" d="M456.8,1223.6c3.1-0.2,8.4,0.3,7.5,1.2l0.6,0.6
										C462.3,1225.2,451.5,1225.1,456.8,1223.6z"/>
									<path id="Path_2908" class="st5" d="M456.1,1219.5c2.7,0.3,0.6,0.6,0.2,0.9l-3.7-0.1
										C451.5,1219.9,454.6,1219.7,456.1,1219.5z"/>
									<path id="Path_2909" class="st35" d="M457.7,1210.9l-1.1-0.2c1.3,0.2,2.5,0.3,3.8,0.3c0.1,0.5-2,0.9-4.1,0.7
										C456.7,1211.3,458.9,1211.3,457.7,1210.9z"/>
									<path id="Path_2910" class="st35" d="M511.6,1224.3c1-1.2-2.1-3.8-6.5-5.7l2-2.1c3.3,1.5,10.1,1.9,15.5,3.2
										c2.2,0-4.8-1.9,0.6-1.1c0.5,0.5,0,0.9,1,1.4c0.5,0.1,1.1,0.1,1.6,0.1c0.3,0,0.5,0,0.8,0.1h0.8c1,0,1.9,0,2.9,0.2
										c1.6,0.3,3.1,0.7,4.5,1.4c2.5,1.1,4.6,3,6,5.4c0.2,0.7,0.3,1.5,0.4,2.2v0.6l-0.1,0.6c0,0.2-0.1,0.4-0.1,0.6l-0.2,0.6
										c-0.1,1.4-0.5,2.8-1.3,4c-0.8,1.3-1.7,2.4-2.9,3.4c-2.7,2.2-5.7,4-8.9,5.4c-12.3,5.5-25.4,9-38.8,10.4
										c-2.8,1.7-11.5,2.4-16.6,3.6l-0.2-0.7c-2.9,1.5-8.1,0.5-11.8,0.8l-3.4-0.5c-0.7-0.5,1.7-0.8,3.9-1.1s4.1-0.8,2.5-1.5
										c-7.1-0.5-11.9,2.3-18,1.2c-5.9-0.2-5.2,0.6-8.9,0.9c-0.9,0.7,1.2,0.7,0.8,1.5c-4.5,0.2-9.1-0.4-13.4-1.7
										c-3.9-1.3-8-2.1-12.1-2.3c-0.5,0.6-10,1.1-1.3,2.8c1.4-0.1,2.8-0.2,4.2-0.4l2.8,1c-3.2-0.2-9.1-0.8-8.5,0.1
										c-2-1.5-7.6-1.4-11.5-1.5s-6.2-0.2-1.5-1.5c2,0.6,4,0.9,6,1.1c1.6,0.1,3.2-0.1,4.7-0.4c-11.1-1.6-22-3.9-32.8-6.9
										c-1.1,0.1-2.1,0.3-3.2,0.4c0.1-1.2-4.6-3.1-9.1-5c-2.1-0.4-4.6-1.5-4.2-0.7c-0.6,0.2,3.6,1.8,6.9,3.1s5.6,2.4,1.1,2.1
										c-5.5-1.9-10.8-4.2-15.9-7.1c-2.3-1.3-4.6-2.9-6.6-4.7c-0.5-0.4-1-0.8-1.4-1.3c-0.5-0.5-0.9-1-1.3-1.5
										c-0.8-1.1-1.5-2.2-2-3.5c0.8,1.4,1.9,2.6,3.2,3.6c0.5,0.4,1,0.8,1.6,1.2c0.5,0.4,1,0.7,1.6,1c2.3,1.3,4.7,2.1,7.3,2.5
										c4.5,1.6,9.1,3,13.7,4.3s9.4,2.5,14.1,3.4c9.2,2,18.6,3.1,28.1,3.2c0.6,0.9,5.3,1.6,3.8,2.3c1.6,0.7,6.3,0.4,7.5,1.6
										c7.1-0.1,14.7-0.1,22.2-0.1s14.8-0.2,21.2-0.6c-1.8-0.9,0.1-1.3,2.8-1.7c2.8-0.3,5.5-0.8,8.2-1.4c4.4,0.2,8.9-0.2,13.2-1.2
										c0.4-0.4,3-0.9,2.2-1.4c-2.4,0.4-4.9,0.7-7.4,0.7c1.1-1.6,6.8-0.9,11.4-1.6l-2.3,1.2c3.9-0.6,8.3-0.8,12.5-1.2
										c4-0.2,7.9-1.2,11.6-2.9c-2.1,0.1-4.2,0.2-6.2,0.2c4.2-1.4,9-2.4,13.4-3.8c2.1-0.6,4.1-1.4,6-2.4c1.4-0.7,2.7-1.7,3.6-3
										c-1.2,0.7-2.4,1.4-3.7,2.1c-0.7,0.3-1.3,0.7-2,1c-0.4,0.2-0.7,0.3-1.1,0.5c-0.4,0.2-0.7,0.3-1.1,0.4
										c-2.9,1.1-5.3,1.6-5.5,0.7c0-0.5,1.6-1.3,3.5-2.1c0.9-0.4,2.1-0.8,2.9-1.2l1.8-0.6c1.2-0.3,2.3-0.8,3.3-1.5
										c1-0.5,1.7-1.5,2-2.6c0-0.6-0.2-1.1-0.6-1.5c-0.4-0.4-0.8-0.7-1.3-1c-0.9-0.4-1.9-0.8-2.9-1.1c-1-0.2-1.9-0.4-2.7-0.6
										l-4.2-0.9C517,1226.1,514.3,1225.3,511.6,1224.3z"/>
									<path id="Path_2911" class="st35" d="M524.2,1229.8c0.7,0.3,1.4,0.5,2.1,0.8c0.6,0.3,1.1,0.6,1.6,0.9
										c0.4,0.3,0.8,0.7,0.6,1.2s-0.9,1.3-2.4,2c-0.1-0.6-1.1-0.6-1.9-0.6h-0.9c-0.2,0-0.4,0.1-0.6,0.2c-0.9,0.3-1.8,0.5-2.6,0.8
										c-3.2,1.6-6.5,2.7-10,3.4c-2.1,0.3-2.1-0.9,1.8-2.1c2.6-0.2,5.1-0.8,7.6-1.7c0.6-0.2,1.2-0.5,1.9-0.7l0.9-0.4l0.4-0.2
										l0.2-0.1c0.1,0,0.1,0,0.1-0.1c0.3-0.2,0.5-0.4,0.8-0.6c0.4-0.4,0.7-0.9,0.8-1.4c0-0.2-0.1-0.5-0.2-0.7
										C524.2,1230.3,524.2,1230.1,524.2,1229.8z"/>
									<path id="Path_2912" class="st5" d="M520.3,1223.3c1,0.2,2,0.5,2.9,1c0.5,0.3,0.9,0.6,1.2,1.1c0.3,0.4,0.6,0.7,1,1
										c0.7,0.4,1.4,0.7,2.2,0.8c-0.9,0.2-1.8,0-2.6-0.4l-1.4-0.7c-1-0.4-2-0.7-3-0.9c1,0,2,0,3.1,0.1
										C522.6,1224.6,521.4,1223.9,520.3,1223.3z"/>
									<path id="Path_2913" class="st35" d="M509.2,1241.1c-2.4,0.6-4.8,1.1-7.2,1.4c-2.6,0.3-4.8,0.2-5.1-0.5
										c-0.5,0,0.2-0.9-1.7-0.2c1.6-0.1,4.7-0.5,7.6-0.9S508.3,1240.4,509.2,1241.1z"/>
									<path id="Path_2914" class="st5" d="M526.4,1241.1l-0.8,0.4c-0.3,0.1-0.5,0.2-0.7,0.4c-0.5,0.2-1,0.5-1.6,0.7
										c-1.1,0.5-2.4,0.9-3.9,1.5c0.9-0.5,2-1,3.1-1.6c0.6-0.3,1.2-0.5,1.8-0.8c0.3-0.1,0.6-0.2,1-0.3L526.4,1241.1z"/>
									<path id="Path_2915" class="st35" d="M505.2,1244.9c0.9,0.8-3,0.9-4,1.2H499C501,1245.4,503.1,1245,505.2,1244.9z"/>
									<path id="Path_2916" class="st35" d="M473.8,1246.9c-5.3,0.2,5.3-1.9-0.9-1.4l3.6-0.5l1.5,1.4L473.8,1246.9z"/>
									<path id="Path_2917" class="st35" d="M465.6,1246.2c-1.8,0.6-3.8,0.8-5.7,0.6l1.4-0.7
										C462.4,1245.8,463.6,1246.4,465.6,1246.2z"/>
									<path id="Path_2918" class="st35" d="M472.9,1249.2c-2.5,0.6-2.2-0.2-3.9-0.4C469.9,1248.2,475.4,1248.8,472.9,1249.2z"/>
									<path id="Path_2919" class="st35" d="M447.8,1260.5c2.4-1.3,7.4-0.8,12.2-1.5C455.9,1259.9,451.8,1260.4,447.8,1260.5z"/>
									<path id="Path_2920" class="st35" d="M418.9,1225.5c-2.1-0.3-4.2-0.1-6.2,0.5l1.1,0.4L418.9,1225.5z"/>
									<path id="Path_2921" class="st35" d="M450.4,1225.4c2.3-1.5-1.7-0.8-6.1-1.8c-5.8-0.2-11.9,1.2-17.7,1.3l-3.5,0.9
										c3.5,0.2,8.3,0.3,13.2,0.2S446.4,1225.8,450.4,1225.4z"/>
									<path id="Path_2922" class="st5" d="M454.8,1217.9c-4.3-0.7-9.9,0.5-13.1,0.6c5.3,0.1,12.2,0.1,15.8,0.2
										C458,1218.4,455.9,1218.2,454.8,1217.9z"/>
									<path id="Path_2923" class="st35" d="M362.8,1231.7c2.3,0,4.7-0.1,7-0.3c0.7-0.1,1.4-0.2,2.1-0.3l1.8-0.3l3.1-0.6
										c4.1-0.7,8.2-1.7,12.2-3c-3.1-0.2-6.3-0.1-9.4,0.3c3.8-2.7,8.6-1,13.7-1.5c-4.2,0,1.2-1.4,4.8-1.8c6.8,0,17.8-0.6,27.2-0.9
										c4.1-0.8,17.4-0.1,15.5-1.9c5.7-0.3,6.5,1.2,10.8,1.6c5.9-0.9,11.9-0.5,17.7,1.1c6,1.5,12.2,2,18.4,1.4
										c-0.9,1.1,5.8,1.4,8.3,1.8c2.8,0.3,7.5,0.9,11.2,1.1s6.2,0.2,5-1.1c-2.5-1-5.2-1.5-7.9-1.4c-3.2,0-6.4-0.5-9.5-1.3
										c-5-1.6-2.3-1.6,1.7-1.4s9.3,0.7,9.5-0.2c-1.5,0.2-2.1-1.7-6.8-1.5c9.9,0.2-3.8-2.6,1.3-3.2c-5.6-1.2-8.1-1.6-10-2.2
										c-2-0.8-3.9-1.7-5.8-2.7c-6.9,0-5,1.8-7,2.7c-7.3,0.7-12.9-1.7-19.2-1.3c2.4-1.5-0.2-2.1-4.4-2.3s-9.8,0.1-13.5,0.2
										c-9.6,0.1-3.1,2.7-13.2,2.8c-5-1.3,10.1-2.2,3.5-3.6l-4.6,0.7c-2.8,1.5-5.7,2.8-8.8,3.8c-2.1,0.1-5.3,0.2-5.4-0.2
										c4.1-0.6,2.8-1.7-1.6-2.2c-1.2,0.3-2.4,0.7-3.5,1.2c4.3,1.4,2.1,1.6-2,1.6s-10,0.2-12.9,1.4c-2.9,0.8-6,1.4-9,1.6
										c-1.5,0.1-3-0.1-4.4-0.6c-1.4-0.5-2.9-0.7-4.4-0.7c-1.2,0-2.5,0.1-3.7,0.4c-0.3,0.1-0.7,0.1-1,0.2s-0.6,0.1-1,0.2
										c-0.7,0.1-1.6,0.3-2.5,0.4c1.2,0.6,1.2,1.1,0.4,1.4c-1.4,0.5-3,0.7-4.5,0.6c-4.1,0.1-9.6-0.5-12.5,0
										c-2.4-0.1-4.1-0.3-5.7-0.5c-0.9-0.1-1.7-0.1-2.6-0.1c-1.3,0.1-2.5,0.5-3.6,1.2c-0.2,0.3-0.5,0.7-0.8,1.1
										c-0.3,0.5-0.5,1-0.7,1.6c-0.1,0.6-0.2,1.1-0.2,1.7c0,0.3,0,0.5,0.1,0.8l0.2,0.7c0.2,1.1,0.8,2.1,1.6,2.9
										c0.3-0.6,0.5-1.3,0.7-2c0.2-0.9,0.5-1.7,1-2.4c0.2-0.3,0.5-0.6,0.9-0.8c0.4-0.1,0.7-0.1,1.1-0.1c0.9,0.1,1.8,0.3,2.7,0.6
										c2.1,0.7,4.7,1.6,7.6,2.6c3.3,1.2,6.7,2.1,10.2,2.9C362.4,1231.9,362.8,1231.8,362.8,1231.7z"/>
								</g>
							</g>
						</g>
					</g>
					<g id="Group_376">
						<path id="Path_2924" class="st15" d="M429,1242.1c-30.7-2.4-41.7-4.9-41.7-4.9s-35.9-7.9-41-43.6c-0.5-3.4-0.6-4-0.9-6.4
							s-0.5-4.4-0.7-6c-0.7-9.2-0.2-18.5,1.5-27.6c5.6-30.4,46.5-64.4,106.6-38.6c30.4,13.1,56.4,83.4,54.3,104.6
							c-0.6,6.4-1.1,11.2-1.9,11.6C481.4,1242.2,449.5,1243.7,429,1242.1z"/>
						<path id="Path_2925" class="st14" d="M349.5,1205.5c-2.3-6-2.6-9.3-2.2-11.3c0.1-1.4,0.6-2.8,1.5-3.9c0.9-1.4,2.4-2.3,4.1-2.4
							c11.3,0,37.3,5,50.9,24.1c10.7,15,11.4,16,16.9,20.9c5,4.5,17.1,9.8,17.1,9.8s-24.4-0.9-31.6-2c-29-4.6-38.6-11.1-41.3-12.8
							C359.1,1224,353.1,1214.9,349.5,1205.5z"/>
					</g>
					<circle id="Ellipse_45" class="st14" cx="445.5" cy="1217.9" r="7.7"/>
					<path id="Path_2926" class="st35" d="M357.5,1188.2c1.5,1,4.6,5.3,8.3,5.6c1.6,0.1,9.6-1.1,11.6-1l-4.5-2.5
						c-2-1.5-4.3-2.7-6.7-3.3c-2-0.2-4,0.1-5.9,0.9C359.4,1188,358.5,1188.2,357.5,1188.2z"/>
				</g>
			</g>
		</g>
	</g>
</g>
<g id="Rectangle_427" class="st36">
	<rect class="st5" width="748.9" height="1332"/>
	<rect x="1" y="1" class="st37" width="746.9" height="1330"/>
</g>
</svg>
